%TF.GenerationSoftware,KiCad,Pcbnew,(6.0.4)*%
%TF.CreationDate,2022-04-25T23:47:20+01:00*%
%TF.ProjectId,pcb,7063622e-6b69-4636-9164-5f7063625858,1*%
%TF.SameCoordinates,Original*%
%TF.FileFunction,Soldermask,Top*%
%TF.FilePolarity,Negative*%
%FSLAX46Y46*%
G04 Gerber Fmt 4.6, Leading zero omitted, Abs format (unit mm)*
G04 Created by KiCad (PCBNEW (6.0.4)) date 2022-04-25 23:47:20*
%MOMM*%
%LPD*%
G01*
G04 APERTURE LIST*
G04 Aperture macros list*
%AMRoundRect*
0 Rectangle with rounded corners*
0 $1 Rounding radius*
0 $2 $3 $4 $5 $6 $7 $8 $9 X,Y pos of 4 corners*
0 Add a 4 corners polygon primitive as box body*
4,1,4,$2,$3,$4,$5,$6,$7,$8,$9,$2,$3,0*
0 Add four circle primitives for the rounded corners*
1,1,$1+$1,$2,$3*
1,1,$1+$1,$4,$5*
1,1,$1+$1,$6,$7*
1,1,$1+$1,$8,$9*
0 Add four rect primitives between the rounded corners*
20,1,$1+$1,$2,$3,$4,$5,0*
20,1,$1+$1,$4,$5,$6,$7,0*
20,1,$1+$1,$6,$7,$8,$9,0*
20,1,$1+$1,$8,$9,$2,$3,0*%
G04 Aperture macros list end*
%ADD10C,2.000000*%
%ADD11C,1.900000*%
%ADD12C,3.450000*%
%ADD13C,1.500000*%
%ADD14RoundRect,0.150000X-0.150000X0.875000X-0.150000X-0.875000X0.150000X-0.875000X0.150000X0.875000X0*%
G04 APERTURE END LIST*
D10*
%TO.C,REF\u002A\u002A*%
X117000000Y-161500000D03*
%TD*%
%TO.C,REF\u002A\u002A*%
X81000000Y-161500000D03*
%TD*%
%TO.C,REF\u002A\u002A*%
X45000000Y-161500000D03*
%TD*%
%TO.C,REF\u002A\u002A*%
X45000000Y-127500000D03*
%TD*%
%TO.C,REF\u002A\u002A*%
X81000000Y-127500000D03*
%TD*%
%TO.C,REF\u002A\u002A*%
X117000000Y-127500000D03*
%TD*%
%TO.C,REF\u002A\u002A*%
X117000000Y-93500000D03*
%TD*%
%TO.C,REF\u002A\u002A*%
X81000000Y-93500000D03*
%TD*%
%TO.C,REF\u002A\u002A*%
X45000000Y-93500000D03*
%TD*%
D11*
%TO.C,B4*%
X41500000Y-170000000D03*
D12*
X36000000Y-170000000D03*
D11*
X30500000Y-170000000D03*
%TD*%
%TO.C,B0*%
X30500000Y-102000000D03*
D12*
X36000000Y-102000000D03*
D11*
X41500000Y-102000000D03*
%TD*%
%TO.C,B10*%
X59500000Y-102000000D03*
D12*
X54000000Y-102000000D03*
D11*
X48500000Y-102000000D03*
%TD*%
%TO.C,B16*%
X66500000Y-102000000D03*
X77500000Y-102000000D03*
D12*
X72000000Y-102000000D03*
%TD*%
D10*
%TO.C,U1*%
X33125000Y-89320000D03*
X38875000Y-89320000D03*
X38875000Y-85570000D03*
X38875000Y-82370000D03*
X38875000Y-79170000D03*
X33125000Y-79170000D03*
D13*
X36000000Y-89170000D03*
X36000000Y-79870000D03*
%TD*%
D12*
%TO.C,B26*%
X108000000Y-136000000D03*
D11*
X113500000Y-136000000D03*
X102500000Y-136000000D03*
%TD*%
D10*
%TO.C,U2*%
X128875000Y-89320000D03*
X123125000Y-89320000D03*
X128875000Y-85570000D03*
X128875000Y-82370000D03*
X128875000Y-79170000D03*
X123125000Y-79170000D03*
D13*
X126000000Y-79870000D03*
X126000000Y-89170000D03*
%TD*%
D12*
%TO.C,B6*%
X54000000Y-153000000D03*
D11*
X48500000Y-153000000D03*
X59500000Y-153000000D03*
%TD*%
D12*
%TO.C,B23*%
X108000000Y-170000000D03*
D11*
X113500000Y-170000000D03*
X102500000Y-170000000D03*
%TD*%
%TO.C,B25*%
X84500000Y-102000000D03*
D12*
X90000000Y-102000000D03*
D11*
X95500000Y-102000000D03*
%TD*%
D12*
%TO.C,B5*%
X54000000Y-170000000D03*
D11*
X59500000Y-170000000D03*
X48500000Y-170000000D03*
%TD*%
%TO.C,B32*%
X131500000Y-136000000D03*
D12*
X126000000Y-136000000D03*
D11*
X120500000Y-136000000D03*
%TD*%
%TO.C,B15*%
X77500000Y-119000000D03*
X66500000Y-119000000D03*
D12*
X72000000Y-119000000D03*
%TD*%
%TO.C,B13*%
X72000000Y-153000000D03*
D11*
X77500000Y-153000000D03*
X66500000Y-153000000D03*
%TD*%
%TO.C,B7*%
X48500000Y-136000000D03*
X59500000Y-136000000D03*
D12*
X54000000Y-136000000D03*
%TD*%
D11*
%TO.C,B20*%
X84500000Y-153000000D03*
X95500000Y-153000000D03*
D12*
X90000000Y-153000000D03*
%TD*%
D11*
%TO.C,B24*%
X113500000Y-153000000D03*
X102500000Y-153000000D03*
D12*
X108000000Y-153000000D03*
%TD*%
%TO.C,B27*%
X108000000Y-119000000D03*
D11*
X113500000Y-119000000D03*
X102500000Y-119000000D03*
%TD*%
D14*
%TO.C,L0*%
X59080000Y-80350000D03*
X57810000Y-80350000D03*
X56540000Y-80350000D03*
X55270000Y-80350000D03*
X54000000Y-80350000D03*
X52730000Y-80350000D03*
X51460000Y-80350000D03*
X50190000Y-80350000D03*
X48920000Y-80350000D03*
X48920000Y-89650000D03*
X50190000Y-89650000D03*
X51460000Y-89650000D03*
X52730000Y-89650000D03*
X54000000Y-89650000D03*
X55270000Y-89650000D03*
X56540000Y-89650000D03*
X57810000Y-89650000D03*
X59080000Y-89650000D03*
%TD*%
D11*
%TO.C,B21*%
X95500000Y-136000000D03*
D12*
X90000000Y-136000000D03*
D11*
X84500000Y-136000000D03*
%TD*%
%TO.C,B22*%
X84500000Y-119000000D03*
D12*
X90000000Y-119000000D03*
D11*
X95500000Y-119000000D03*
%TD*%
D12*
%TO.C,B3*%
X36000000Y-153000000D03*
D11*
X41500000Y-153000000D03*
X30500000Y-153000000D03*
%TD*%
D12*
%TO.C,B2*%
X36000000Y-136000000D03*
D11*
X41500000Y-136000000D03*
X30500000Y-136000000D03*
%TD*%
%TO.C,B35*%
X131500000Y-102000000D03*
X120500000Y-102000000D03*
D12*
X126000000Y-102000000D03*
%TD*%
D11*
%TO.C,B12*%
X77500000Y-170000000D03*
X66500000Y-170000000D03*
D12*
X72000000Y-170000000D03*
%TD*%
D14*
%TO.C,L2*%
X95080000Y-80350000D03*
X93810000Y-80350000D03*
X92540000Y-80350000D03*
X91270000Y-80350000D03*
X90000000Y-80350000D03*
X88730000Y-80350000D03*
X87460000Y-80350000D03*
X86190000Y-80350000D03*
X84920000Y-80350000D03*
X84920000Y-89650000D03*
X86190000Y-89650000D03*
X87460000Y-89650000D03*
X88730000Y-89650000D03*
X90000000Y-89650000D03*
X91270000Y-89650000D03*
X92540000Y-89650000D03*
X93810000Y-89650000D03*
X95080000Y-89650000D03*
%TD*%
%TO.C,L1*%
X77080000Y-80350000D03*
X75810000Y-80350000D03*
X74540000Y-80350000D03*
X73270000Y-80350000D03*
X72000000Y-80350000D03*
X70730000Y-80350000D03*
X69460000Y-80350000D03*
X68190000Y-80350000D03*
X66920000Y-80350000D03*
X66920000Y-89650000D03*
X68190000Y-89650000D03*
X69460000Y-89650000D03*
X70730000Y-89650000D03*
X72000000Y-89650000D03*
X73270000Y-89650000D03*
X74540000Y-89650000D03*
X75810000Y-89650000D03*
X77080000Y-89650000D03*
%TD*%
D12*
%TO.C,B1*%
X36000000Y-119000000D03*
D11*
X30500000Y-119000000D03*
X41500000Y-119000000D03*
%TD*%
D12*
%TO.C,B17*%
X90000000Y-170000000D03*
D11*
X95500000Y-170000000D03*
X84500000Y-170000000D03*
%TD*%
D12*
%TO.C,B11*%
X54000000Y-119000000D03*
D11*
X48500000Y-119000000D03*
X59500000Y-119000000D03*
%TD*%
%TO.C,B31*%
X131500000Y-153000000D03*
D12*
X126000000Y-153000000D03*
D11*
X120500000Y-153000000D03*
%TD*%
D14*
%TO.C,L3*%
X113080000Y-80350000D03*
X111810000Y-80350000D03*
X110540000Y-80350000D03*
X109270000Y-80350000D03*
X108000000Y-80350000D03*
X106730000Y-80350000D03*
X105460000Y-80350000D03*
X104190000Y-80350000D03*
X102920000Y-80350000D03*
X102920000Y-89650000D03*
X104190000Y-89650000D03*
X105460000Y-89650000D03*
X106730000Y-89650000D03*
X108000000Y-89650000D03*
X109270000Y-89650000D03*
X110540000Y-89650000D03*
X111810000Y-89650000D03*
X113080000Y-89650000D03*
%TD*%
D11*
%TO.C,B33*%
X113500000Y-102000000D03*
D12*
X108000000Y-102000000D03*
D11*
X102500000Y-102000000D03*
%TD*%
%TO.C,B14*%
X66500000Y-136000000D03*
D12*
X72000000Y-136000000D03*
D11*
X77500000Y-136000000D03*
%TD*%
%TO.C,B34*%
X120500000Y-119000000D03*
D12*
X126000000Y-119000000D03*
D11*
X131500000Y-119000000D03*
%TD*%
D12*
%TO.C,B30*%
X126000000Y-170000000D03*
D11*
X120500000Y-170000000D03*
X131500000Y-170000000D03*
%TD*%
M02*
