M48
; DRILL file {KiCad (6.0.4)} date Mon Apr 25 23:47:20 2022
; FORMAT={-:-/ absolute / inch / decimal}
; #@! TF.CreationDate,2022-04-25T23:47:20+01:00
; #@! TF.GenerationSoftware,Kicad,Pcbnew,(6.0.4)
; #@! TF.FileFunction,Plated,1,2,PTH
FMAT,2
INCH
; #@! TA.AperFunction,Plated,PTH,ViaDrill
T1C0.0157
; #@! TA.AperFunction,Plated,PTH,ComponentDrill
T2C0.0394
; #@! TA.AperFunction,Plated,PTH,ComponentDrill
T3C0.0472
%
G90
G05
T1
X2.2047Y-3.3071
X2.2739Y-3.2773
X2.3228Y-3.248
X2.9134Y-3.3071
X2.9825Y-3.2773
X3.0315Y-3.248
X3.622Y-3.3071
X3.6912Y-3.2773
X3.7402Y-3.248
X4.3307Y-3.3071
X4.3999Y-3.2773
X4.4488Y-3.248
T2
X1.3041Y-3.1169
X1.3041Y-3.5165
X1.5305Y-3.1169
X1.5305Y-3.2429
X1.5305Y-3.3689
X1.5305Y-3.5165
X4.8474Y-3.1169
X4.8474Y-3.5165
X5.0738Y-3.1169
X5.0738Y-3.2429
X5.0738Y-3.3689
X5.0738Y-3.5165
T3
X1.4173Y-3.7835
X1.4173Y-4.4528
X1.4173Y-5.122
X1.4173Y-5.7913
X1.4173Y-6.4606
X1.6142Y-3.8661
X1.6142Y-4.5354
X1.6142Y-5.2047
X1.6142Y-5.874
X1.6142Y-6.5433
X2.126Y-3.7835
X2.126Y-4.4528
X2.126Y-5.122
X2.126Y-5.7913
X2.126Y-6.4606
X2.3228Y-3.8661
X2.3228Y-4.5354
X2.3228Y-5.2047
X2.3228Y-5.874
X2.3228Y-6.5433
X2.8346Y-3.7835
X2.8346Y-4.4528
X2.8346Y-5.122
X2.8346Y-5.7913
X2.8346Y-6.4606
X3.0315Y-3.8661
X3.0315Y-4.5354
X3.0315Y-5.2047
X3.0315Y-5.874
X3.0315Y-6.5433
X3.5433Y-3.7835
X3.5433Y-4.4528
X3.5433Y-5.122
X3.5433Y-5.7913
X3.5433Y-6.4606
X3.7402Y-3.8661
X3.7402Y-4.5354
X3.7402Y-5.2047
X3.7402Y-5.874
X3.7402Y-6.5433
X4.252Y-3.7835
X4.252Y-4.4528
X4.252Y-5.122
X4.252Y-5.7913
X4.252Y-6.4606
X4.4488Y-3.8661
X4.4488Y-4.5354
X4.4488Y-5.2047
X4.4488Y-5.874
X4.4488Y-6.5433
X4.9606Y-3.7835
X4.9606Y-4.4528
X4.9606Y-5.122
X4.9606Y-5.7913
X4.9606Y-6.4606
X5.1575Y-3.8661
X5.1575Y-4.5354
X5.1575Y-5.2047
X5.1575Y-5.874
X5.1575Y-6.5433
T0
M30
