M48
; DRILL file {KiCad (6.0.4)} date Mon Apr 25 23:47:20 2022
; FORMAT={-:-/ absolute / inch / decimal}
; #@! TF.CreationDate,2022-04-25T23:47:20+01:00
; #@! TF.GenerationSoftware,Kicad,Pcbnew,(6.0.4)
; #@! TF.FileFunction,NonPlated,1,2,NPTH
FMAT,2
INCH
; #@! TA.AperFunction,NonPlated,NPTH,ComponentDrill
T1C0.0591
; #@! TA.AperFunction,NonPlated,NPTH,ComponentDrill
T2C0.0748
; #@! TA.AperFunction,NonPlated,NPTH,ComponentDrill
T3C0.0787
; #@! TA.AperFunction,NonPlated,NPTH,ComponentDrill
T4C0.1358
%
G90
G05
T1
X1.4173Y-3.1445
X1.4173Y-3.5106
X4.9606Y-3.1445
X4.9606Y-3.5106
T2
X1.2008Y-4.0157
X1.2008Y-4.685
X1.2008Y-5.3543
X1.2008Y-6.0236
X1.2008Y-6.6929
X1.6339Y-4.0157
X1.6339Y-4.685
X1.6339Y-5.3543
X1.6339Y-6.0236
X1.6339Y-6.6929
X1.9094Y-4.0157
X1.9094Y-4.685
X1.9094Y-5.3543
X1.9094Y-6.0236
X1.9094Y-6.6929
X2.3425Y-4.0157
X2.3425Y-4.685
X2.3425Y-5.3543
X2.3425Y-6.0236
X2.3425Y-6.6929
X2.6181Y-4.0157
X2.6181Y-4.685
X2.6181Y-5.3543
X2.6181Y-6.0236
X2.6181Y-6.6929
X3.0512Y-4.0157
X3.0512Y-4.685
X3.0512Y-5.3543
X3.0512Y-6.0236
X3.0512Y-6.6929
X3.3268Y-4.0157
X3.3268Y-4.685
X3.3268Y-5.3543
X3.3268Y-6.0236
X3.3268Y-6.6929
X3.7598Y-4.0157
X3.7598Y-4.685
X3.7598Y-5.3543
X3.7598Y-6.0236
X3.7598Y-6.6929
X4.0354Y-4.0157
X4.0354Y-4.685
X4.0354Y-5.3543
X4.0354Y-6.0236
X4.0354Y-6.6929
X4.4685Y-4.0157
X4.4685Y-4.685
X4.4685Y-5.3543
X4.4685Y-6.0236
X4.4685Y-6.6929
X4.7441Y-4.0157
X4.7441Y-4.685
X4.7441Y-5.3543
X4.7441Y-6.0236
X4.7441Y-6.6929
X5.1772Y-4.0157
X5.1772Y-4.685
X5.1772Y-5.3543
X5.1772Y-6.0236
X5.1772Y-6.6929
T3
X1.7717Y-3.6811
X1.7717Y-5.0197
X1.7717Y-6.3583
X3.189Y-3.6811
X3.189Y-5.0197
X3.189Y-6.3583
X4.6063Y-3.6811
X4.6063Y-5.0197
X4.6063Y-6.3583
T4
X1.4173Y-4.0157
X1.4173Y-4.685
X1.4173Y-5.3543
X1.4173Y-6.0236
X1.4173Y-6.6929
X2.126Y-4.0157
X2.126Y-4.685
X2.126Y-5.3543
X2.126Y-6.0236
X2.126Y-6.6929
X2.8346Y-4.0157
X2.8346Y-4.685
X2.8346Y-5.3543
X2.8346Y-6.0236
X2.8346Y-6.6929
X3.5433Y-4.0157
X3.5433Y-4.685
X3.5433Y-5.3543
X3.5433Y-6.0236
X3.5433Y-6.6929
X4.252Y-4.0157
X4.252Y-4.685
X4.252Y-5.3543
X4.252Y-6.0236
X4.252Y-6.6929
X4.9606Y-4.0157
X4.9606Y-4.685
X4.9606Y-5.3543
X4.9606Y-6.0236
X4.9606Y-6.6929
T0
M30
