%TF.GenerationSoftware,KiCad,Pcbnew,(6.0.4)*%
%TF.CreationDate,2022-04-25T23:47:20+01:00*%
%TF.ProjectId,pcb,7063622e-6b69-4636-9164-5f7063625858,1*%
%TF.SameCoordinates,Original*%
%TF.FileFunction,Paste,Top*%
%TF.FilePolarity,Positive*%
%FSLAX46Y46*%
G04 Gerber Fmt 4.6, Leading zero omitted, Abs format (unit mm)*
G04 Created by KiCad (PCBNEW (6.0.4)) date 2022-04-25 23:47:20*
%MOMM*%
%LPD*%
G01*
G04 APERTURE LIST*
G04 Aperture macros list*
%AMRoundRect*
0 Rectangle with rounded corners*
0 $1 Rounding radius*
0 $2 $3 $4 $5 $6 $7 $8 $9 X,Y pos of 4 corners*
0 Add a 4 corners polygon primitive as box body*
4,1,4,$2,$3,$4,$5,$6,$7,$8,$9,$2,$3,0*
0 Add four circle primitives for the rounded corners*
1,1,$1+$1,$2,$3*
1,1,$1+$1,$4,$5*
1,1,$1+$1,$6,$7*
1,1,$1+$1,$8,$9*
0 Add four rect primitives between the rounded corners*
20,1,$1+$1,$2,$3,$4,$5,0*
20,1,$1+$1,$4,$5,$6,$7,0*
20,1,$1+$1,$6,$7,$8,$9,0*
20,1,$1+$1,$8,$9,$2,$3,0*%
G04 Aperture macros list end*
%ADD10RoundRect,0.150000X-0.150000X0.875000X-0.150000X-0.875000X0.150000X-0.875000X0.150000X0.875000X0*%
G04 APERTURE END LIST*
D10*
%TO.C,L0*%
X59080000Y-80350000D03*
X57810000Y-80350000D03*
X56540000Y-80350000D03*
X55270000Y-80350000D03*
X54000000Y-80350000D03*
X52730000Y-80350000D03*
X51460000Y-80350000D03*
X50190000Y-80350000D03*
X48920000Y-80350000D03*
X48920000Y-89650000D03*
X50190000Y-89650000D03*
X51460000Y-89650000D03*
X52730000Y-89650000D03*
X54000000Y-89650000D03*
X55270000Y-89650000D03*
X56540000Y-89650000D03*
X57810000Y-89650000D03*
X59080000Y-89650000D03*
%TD*%
%TO.C,L2*%
X95080000Y-80350000D03*
X93810000Y-80350000D03*
X92540000Y-80350000D03*
X91270000Y-80350000D03*
X90000000Y-80350000D03*
X88730000Y-80350000D03*
X87460000Y-80350000D03*
X86190000Y-80350000D03*
X84920000Y-80350000D03*
X84920000Y-89650000D03*
X86190000Y-89650000D03*
X87460000Y-89650000D03*
X88730000Y-89650000D03*
X90000000Y-89650000D03*
X91270000Y-89650000D03*
X92540000Y-89650000D03*
X93810000Y-89650000D03*
X95080000Y-89650000D03*
%TD*%
%TO.C,L1*%
X77080000Y-80350000D03*
X75810000Y-80350000D03*
X74540000Y-80350000D03*
X73270000Y-80350000D03*
X72000000Y-80350000D03*
X70730000Y-80350000D03*
X69460000Y-80350000D03*
X68190000Y-80350000D03*
X66920000Y-80350000D03*
X66920000Y-89650000D03*
X68190000Y-89650000D03*
X69460000Y-89650000D03*
X70730000Y-89650000D03*
X72000000Y-89650000D03*
X73270000Y-89650000D03*
X74540000Y-89650000D03*
X75810000Y-89650000D03*
X77080000Y-89650000D03*
%TD*%
%TO.C,L3*%
X113080000Y-80350000D03*
X111810000Y-80350000D03*
X110540000Y-80350000D03*
X109270000Y-80350000D03*
X108000000Y-80350000D03*
X106730000Y-80350000D03*
X105460000Y-80350000D03*
X104190000Y-80350000D03*
X102920000Y-80350000D03*
X102920000Y-89650000D03*
X104190000Y-89650000D03*
X105460000Y-89650000D03*
X106730000Y-89650000D03*
X108000000Y-89650000D03*
X109270000Y-89650000D03*
X110540000Y-89650000D03*
X111810000Y-89650000D03*
X113080000Y-89650000D03*
%TD*%
M02*
