%TF.GenerationSoftware,KiCad,Pcbnew,(6.0.4)*%
%TF.CreationDate,2022-04-25T23:47:20+01:00*%
%TF.ProjectId,pcb,7063622e-6b69-4636-9164-5f7063625858,1*%
%TF.SameCoordinates,Original*%
%TF.FileFunction,Copper,L1,Top*%
%TF.FilePolarity,Positive*%
%FSLAX46Y46*%
G04 Gerber Fmt 4.6, Leading zero omitted, Abs format (unit mm)*
G04 Created by KiCad (PCBNEW (6.0.4)) date 2022-04-25 23:47:20*
%MOMM*%
%LPD*%
G01*
G04 APERTURE LIST*
G04 Aperture macros list*
%AMRoundRect*
0 Rectangle with rounded corners*
0 $1 Rounding radius*
0 $2 $3 $4 $5 $6 $7 $8 $9 X,Y pos of 4 corners*
0 Add a 4 corners polygon primitive as box body*
4,1,4,$2,$3,$4,$5,$6,$7,$8,$9,$2,$3,0*
0 Add four circle primitives for the rounded corners*
1,1,$1+$1,$2,$3*
1,1,$1+$1,$4,$5*
1,1,$1+$1,$6,$7*
1,1,$1+$1,$8,$9*
0 Add four rect primitives between the rounded corners*
20,1,$1+$1,$2,$3,$4,$5,0*
20,1,$1+$1,$4,$5,$6,$7,0*
20,1,$1+$1,$6,$7,$8,$9,0*
20,1,$1+$1,$8,$9,$2,$3,0*%
G04 Aperture macros list end*
%TA.AperFunction,ComponentPad*%
%ADD10C,2.200000*%
%TD*%
%TA.AperFunction,ComponentPad*%
%ADD11C,2.000000*%
%TD*%
%TA.AperFunction,SMDPad,CuDef*%
%ADD12RoundRect,0.150000X-0.150000X0.875000X-0.150000X-0.875000X0.150000X-0.875000X0.150000X0.875000X0*%
%TD*%
%TA.AperFunction,ViaPad*%
%ADD13C,0.800000*%
%TD*%
%TA.AperFunction,Conductor*%
%ADD14C,0.250000*%
%TD*%
%TA.AperFunction,Conductor*%
%ADD15C,0.200000*%
%TD*%
G04 APERTURE END LIST*
D10*
%TO.P,B4,1,A*%
%TO.N,Earth*%
X36000000Y-164100000D03*
%TO.P,B4,2,B*%
%TO.N,Net-(B4-Pad2)*%
X41000000Y-166200000D03*
%TD*%
%TO.P,B0,1,A*%
%TO.N,Earth*%
X36000000Y-96100000D03*
%TO.P,B0,2,B*%
%TO.N,Net-(B0-Pad2)*%
X41000000Y-98200000D03*
%TD*%
%TO.P,B10,2,B*%
%TO.N,Net-(B10-Pad2)*%
X59000000Y-98200000D03*
%TO.P,B10,1,A*%
%TO.N,Earth*%
X54000000Y-96100000D03*
%TD*%
%TO.P,B16,2,B*%
%TO.N,Net-(B16-Pad2)*%
X77000000Y-98200000D03*
%TO.P,B16,1,A*%
%TO.N,Earth*%
X72000000Y-96100000D03*
%TD*%
D11*
%TO.P,U1,4,P4*%
%TO.N,+3V3*%
X33125000Y-89320000D03*
X38875000Y-89320000D03*
%TO.P,U1,3,P3*%
%TO.N,SDA*%
X38875000Y-85570000D03*
%TO.P,U1,2,P2*%
%TO.N,SCL*%
X38875000Y-82370000D03*
%TO.P,U1,1,P1*%
%TO.N,Earth*%
X38875000Y-79170000D03*
X33125000Y-79170000D03*
%TD*%
D10*
%TO.P,B26,1,A*%
%TO.N,Earth*%
X108000000Y-130100000D03*
%TO.P,B26,2,B*%
%TO.N,Net-(B26-Pad2)*%
X113000000Y-132200000D03*
%TD*%
D11*
%TO.P,U2,4,P4*%
%TO.N,+3V3*%
X128875000Y-89320000D03*
X123125000Y-89320000D03*
%TO.P,U2,3,P3*%
%TO.N,SDA*%
X128875000Y-85570000D03*
%TO.P,U2,2,P2*%
%TO.N,SCL*%
X128875000Y-82370000D03*
%TO.P,U2,1,P1*%
%TO.N,Earth*%
X128875000Y-79170000D03*
X123125000Y-79170000D03*
%TD*%
D10*
%TO.P,B6,1,A*%
%TO.N,Earth*%
X54000000Y-147100000D03*
%TO.P,B6,2,B*%
%TO.N,Net-(B6-Pad2)*%
X59000000Y-149200000D03*
%TD*%
%TO.P,B23,1,A*%
%TO.N,Earth*%
X108000000Y-164100000D03*
%TO.P,B23,2,B*%
%TO.N,Net-(B23-Pad2)*%
X113000000Y-166200000D03*
%TD*%
%TO.P,B25,2,B*%
%TO.N,Net-(B25-Pad2)*%
X95000000Y-98200000D03*
%TO.P,B25,1,A*%
%TO.N,Earth*%
X90000000Y-96100000D03*
%TD*%
%TO.P,B5,1,A*%
%TO.N,Earth*%
X54000000Y-164100000D03*
%TO.P,B5,2,B*%
%TO.N,Net-(B5-Pad2)*%
X59000000Y-166200000D03*
%TD*%
%TO.P,B32,1,A*%
%TO.N,Earth*%
X126000000Y-130100000D03*
%TO.P,B32,2,B*%
%TO.N,Net-(B32-Pad2)*%
X131000000Y-132200000D03*
%TD*%
%TO.P,B15,1,A*%
%TO.N,Earth*%
X72000000Y-113100000D03*
%TO.P,B15,2,B*%
%TO.N,Net-(B15-Pad2)*%
X77000000Y-115200000D03*
%TD*%
%TO.P,B13,1,A*%
%TO.N,Earth*%
X72000000Y-147100000D03*
%TO.P,B13,2,B*%
%TO.N,Net-(B13-Pad2)*%
X77000000Y-149200000D03*
%TD*%
%TO.P,B7,1,A*%
%TO.N,Earth*%
X54000000Y-130100000D03*
%TO.P,B7,2,B*%
%TO.N,Net-(B7-Pad2)*%
X59000000Y-132200000D03*
%TD*%
%TO.P,B20,1,A*%
%TO.N,Earth*%
X90000000Y-147100000D03*
%TO.P,B20,2,B*%
%TO.N,Net-(B20-Pad2)*%
X95000000Y-149200000D03*
%TD*%
%TO.P,B24,1,A*%
%TO.N,Earth*%
X108000000Y-147100000D03*
%TO.P,B24,2,B*%
%TO.N,Net-(B24-Pad2)*%
X113000000Y-149200000D03*
%TD*%
%TO.P,B27,1,A*%
%TO.N,Earth*%
X108000000Y-113100000D03*
%TO.P,B27,2,B*%
%TO.N,Net-(B27-Pad2)*%
X113000000Y-115200000D03*
%TD*%
D12*
%TO.P,L0,1,SCL*%
%TO.N,SCL*%
X59080000Y-80350000D03*
%TO.P,L0,2,SDA*%
%TO.N,SDA*%
X57810000Y-80350000D03*
%TO.P,L0,3,A2*%
%TO.N,Net-(L0-Pad3)*%
X56540000Y-80350000D03*
%TO.P,L0,4,A1*%
%TO.N,Earth*%
X55270000Y-80350000D03*
%TO.P,L0,5,A0*%
X54000000Y-80350000D03*
%TO.P,L0,6,~{RESET}*%
%TO.N,+3V3*%
X52730000Y-80350000D03*
%TO.P,L0,7,NC*%
%TO.N,unconnected-(L0-Pad7)*%
X51460000Y-80350000D03*
%TO.P,L0,8,INT*%
%TO.N,unconnected-(L0-Pad8)*%
X50190000Y-80350000D03*
%TO.P,L0,9,VSS*%
%TO.N,Earth*%
X48920000Y-80350000D03*
%TO.P,L0,10,GP0*%
%TO.N,Net-(B0-Pad2)*%
X48920000Y-89650000D03*
%TO.P,L0,11,GP1*%
%TO.N,Net-(B1-Pad2)*%
X50190000Y-89650000D03*
%TO.P,L0,12,GP2*%
%TO.N,Net-(B2-Pad2)*%
X51460000Y-89650000D03*
%TO.P,L0,13,GP3*%
%TO.N,Net-(B3-Pad2)*%
X52730000Y-89650000D03*
%TO.P,L0,14,GP4*%
%TO.N,Net-(B4-Pad2)*%
X54000000Y-89650000D03*
%TO.P,L0,15,GP5*%
%TO.N,Net-(B5-Pad2)*%
X55270000Y-89650000D03*
%TO.P,L0,16,GP6*%
%TO.N,Net-(B6-Pad2)*%
X56540000Y-89650000D03*
%TO.P,L0,17,GP7*%
%TO.N,Net-(B7-Pad2)*%
X57810000Y-89650000D03*
%TO.P,L0,18,VDD*%
%TO.N,+3V3*%
X59080000Y-89650000D03*
%TD*%
D10*
%TO.P,B21,1,A*%
%TO.N,Earth*%
X90000000Y-130100000D03*
%TO.P,B21,2,B*%
%TO.N,Net-(B21-Pad2)*%
X95000000Y-132200000D03*
%TD*%
%TO.P,B22,1,A*%
%TO.N,Earth*%
X90000000Y-113100000D03*
%TO.P,B22,2,B*%
%TO.N,Net-(B22-Pad2)*%
X95000000Y-115200000D03*
%TD*%
%TO.P,B3,1,A*%
%TO.N,Earth*%
X36000000Y-147100000D03*
%TO.P,B3,2,B*%
%TO.N,Net-(B3-Pad2)*%
X41000000Y-149200000D03*
%TD*%
%TO.P,B2,1,A*%
%TO.N,Earth*%
X36000000Y-130100000D03*
%TO.P,B2,2,B*%
%TO.N,Net-(B2-Pad2)*%
X41000000Y-132200000D03*
%TD*%
%TO.P,B35,1,A*%
%TO.N,Earth*%
X126000000Y-96100000D03*
%TO.P,B35,2,B*%
%TO.N,Net-(B35-Pad2)*%
X131000000Y-98200000D03*
%TD*%
%TO.P,B12,1,A*%
%TO.N,Earth*%
X72000000Y-164100000D03*
%TO.P,B12,2,B*%
%TO.N,Net-(B12-Pad2)*%
X77000000Y-166200000D03*
%TD*%
D12*
%TO.P,L2,1,SCL*%
%TO.N,SCL*%
X95080000Y-80350000D03*
%TO.P,L2,2,SDA*%
%TO.N,SDA*%
X93810000Y-80350000D03*
%TO.P,L2,3,A2*%
%TO.N,Net-(L0-Pad3)*%
X92540000Y-80350000D03*
%TO.P,L2,4,A1*%
%TO.N,+3V3*%
X91270000Y-80350000D03*
%TO.P,L2,5,A0*%
%TO.N,Earth*%
X90000000Y-80350000D03*
%TO.P,L2,6,~{RESET}*%
%TO.N,+3V3*%
X88730000Y-80350000D03*
%TO.P,L2,7,NC*%
%TO.N,unconnected-(L2-Pad7)*%
X87460000Y-80350000D03*
%TO.P,L2,8,INT*%
%TO.N,unconnected-(L2-Pad8)*%
X86190000Y-80350000D03*
%TO.P,L2,9,VSS*%
%TO.N,Earth*%
X84920000Y-80350000D03*
%TO.P,L2,10,GP0*%
%TO.N,Net-(B20-Pad2)*%
X84920000Y-89650000D03*
%TO.P,L2,11,GP1*%
%TO.N,Net-(B21-Pad2)*%
X86190000Y-89650000D03*
%TO.P,L2,12,GP2*%
%TO.N,Net-(B22-Pad2)*%
X87460000Y-89650000D03*
%TO.P,L2,13,GP3*%
%TO.N,Net-(B23-Pad2)*%
X88730000Y-89650000D03*
%TO.P,L2,14,GP4*%
%TO.N,Net-(B24-Pad2)*%
X90000000Y-89650000D03*
%TO.P,L2,15,GP5*%
%TO.N,Net-(B25-Pad2)*%
X91270000Y-89650000D03*
%TO.P,L2,16,GP6*%
%TO.N,Net-(B26-Pad2)*%
X92540000Y-89650000D03*
%TO.P,L2,17,GP7*%
%TO.N,Net-(B27-Pad2)*%
X93810000Y-89650000D03*
%TO.P,L2,18,VDD*%
%TO.N,+3V3*%
X95080000Y-89650000D03*
%TD*%
%TO.P,L1,1,SCL*%
%TO.N,SCL*%
X77080000Y-80350000D03*
%TO.P,L1,2,SDA*%
%TO.N,SDA*%
X75810000Y-80350000D03*
%TO.P,L1,3,A2*%
%TO.N,Net-(L0-Pad3)*%
X74540000Y-80350000D03*
%TO.P,L1,4,A1*%
%TO.N,Earth*%
X73270000Y-80350000D03*
%TO.P,L1,5,A0*%
%TO.N,+3V3*%
X72000000Y-80350000D03*
%TO.P,L1,6,~{RESET}*%
X70730000Y-80350000D03*
%TO.P,L1,7,NC*%
%TO.N,unconnected-(L1-Pad7)*%
X69460000Y-80350000D03*
%TO.P,L1,8,INT*%
%TO.N,unconnected-(L1-Pad8)*%
X68190000Y-80350000D03*
%TO.P,L1,9,VSS*%
%TO.N,Earth*%
X66920000Y-80350000D03*
%TO.P,L1,10,GP0*%
%TO.N,Net-(B10-Pad2)*%
X66920000Y-89650000D03*
%TO.P,L1,11,GP1*%
%TO.N,Net-(B11-Pad2)*%
X68190000Y-89650000D03*
%TO.P,L1,12,GP2*%
%TO.N,Net-(B12-Pad2)*%
X69460000Y-89650000D03*
%TO.P,L1,13,GP3*%
%TO.N,Net-(B13-Pad2)*%
X70730000Y-89650000D03*
%TO.P,L1,14,GP4*%
%TO.N,Net-(B14-Pad2)*%
X72000000Y-89650000D03*
%TO.P,L1,15,GP5*%
%TO.N,Net-(B15-Pad2)*%
X73270000Y-89650000D03*
%TO.P,L1,16,GP6*%
%TO.N,Net-(B16-Pad2)*%
X74540000Y-89650000D03*
%TO.P,L1,17,GP7*%
%TO.N,Net-(B17-Pad2)*%
X75810000Y-89650000D03*
%TO.P,L1,18,VDD*%
%TO.N,+3V3*%
X77080000Y-89650000D03*
%TD*%
D10*
%TO.P,B1,1,A*%
%TO.N,Earth*%
X36000000Y-113100000D03*
%TO.P,B1,2,B*%
%TO.N,Net-(B1-Pad2)*%
X41000000Y-115200000D03*
%TD*%
%TO.P,B17,1,A*%
%TO.N,Earth*%
X90000000Y-164100000D03*
%TO.P,B17,2,B*%
%TO.N,Net-(B17-Pad2)*%
X95000000Y-166200000D03*
%TD*%
%TO.P,B11,1,A*%
%TO.N,Earth*%
X54000000Y-113100000D03*
%TO.P,B11,2,B*%
%TO.N,Net-(B11-Pad2)*%
X59000000Y-115200000D03*
%TD*%
%TO.P,B31,1,A*%
%TO.N,Earth*%
X126000000Y-147100000D03*
%TO.P,B31,2,B*%
%TO.N,Net-(B31-Pad2)*%
X131000000Y-149200000D03*
%TD*%
D12*
%TO.P,L3,1,SCL*%
%TO.N,SCL*%
X113080000Y-80350000D03*
%TO.P,L3,2,SDA*%
%TO.N,SDA*%
X111810000Y-80350000D03*
%TO.P,L3,3,A2*%
%TO.N,Net-(L0-Pad3)*%
X110540000Y-80350000D03*
%TO.P,L3,4,A1*%
%TO.N,+3V3*%
X109270000Y-80350000D03*
%TO.P,L3,5,A0*%
X108000000Y-80350000D03*
%TO.P,L3,6,~{RESET}*%
X106730000Y-80350000D03*
%TO.P,L3,7,NC*%
%TO.N,unconnected-(L3-Pad7)*%
X105460000Y-80350000D03*
%TO.P,L3,8,INT*%
%TO.N,unconnected-(L3-Pad8)*%
X104190000Y-80350000D03*
%TO.P,L3,9,VSS*%
%TO.N,Earth*%
X102920000Y-80350000D03*
%TO.P,L3,10,GP0*%
%TO.N,Net-(B30-Pad2)*%
X102920000Y-89650000D03*
%TO.P,L3,11,GP1*%
%TO.N,Net-(B31-Pad2)*%
X104190000Y-89650000D03*
%TO.P,L3,12,GP2*%
%TO.N,Net-(B32-Pad2)*%
X105460000Y-89650000D03*
%TO.P,L3,13,GP3*%
%TO.N,Net-(B33-Pad2)*%
X106730000Y-89650000D03*
%TO.P,L3,14,GP4*%
%TO.N,Net-(B34-Pad2)*%
X108000000Y-89650000D03*
%TO.P,L3,15,GP5*%
%TO.N,Net-(B35-Pad2)*%
X109270000Y-89650000D03*
%TO.P,L3,16,GP6*%
%TO.N,unconnected-(L3-Pad16)*%
X110540000Y-89650000D03*
%TO.P,L3,17,GP7*%
%TO.N,unconnected-(L3-Pad17)*%
X111810000Y-89650000D03*
%TO.P,L3,18,VDD*%
%TO.N,+3V3*%
X113080000Y-89650000D03*
%TD*%
D10*
%TO.P,B33,2,B*%
%TO.N,Net-(B33-Pad2)*%
X113000000Y-98200000D03*
%TO.P,B33,1,A*%
%TO.N,Earth*%
X108000000Y-96100000D03*
%TD*%
%TO.P,B14,1,A*%
%TO.N,Earth*%
X72000000Y-130100000D03*
%TO.P,B14,2,B*%
%TO.N,Net-(B14-Pad2)*%
X77000000Y-132200000D03*
%TD*%
%TO.P,B34,1,A*%
%TO.N,Earth*%
X126000000Y-113100000D03*
%TO.P,B34,2,B*%
%TO.N,Net-(B34-Pad2)*%
X131000000Y-115200000D03*
%TD*%
%TO.P,B30,1,A*%
%TO.N,Earth*%
X126000000Y-164100000D03*
%TO.P,B30,2,B*%
%TO.N,Net-(B30-Pad2)*%
X131000000Y-166200000D03*
%TD*%
D13*
%TO.N,SCL*%
X59000000Y-82500000D03*
X95000000Y-82500000D03*
X77000000Y-82500000D03*
X113000000Y-82500000D03*
%TO.N,SDA*%
X75756725Y-83243275D03*
X93756725Y-83243275D03*
X57756725Y-83243275D03*
X111756725Y-83243275D03*
%TO.N,Net-(L0-Pad3)*%
X74000000Y-84000000D03*
X92000000Y-84000000D03*
X56000000Y-84000000D03*
X110000000Y-84000000D03*
%TD*%
D14*
%TO.N,Earth*%
X73270000Y-78511879D02*
X73258121Y-78500000D01*
X103000000Y-78500000D02*
X110500000Y-78500000D01*
X90000000Y-78500000D02*
X92500000Y-78500000D01*
X92500000Y-78500000D02*
X103000000Y-78500000D01*
X84920000Y-78580000D02*
X85000000Y-78500000D01*
X56500000Y-78500000D02*
X67000000Y-78500000D01*
X55270000Y-80350000D02*
X55270000Y-78525722D01*
X38875000Y-79170000D02*
X39500000Y-78545000D01*
X66920000Y-78580000D02*
X67000000Y-78500000D01*
X55244278Y-78500000D02*
X56500000Y-78500000D01*
X73270000Y-80350000D02*
X73270000Y-78511879D01*
X55270000Y-78525722D02*
X55244278Y-78500000D01*
X66920000Y-80350000D02*
X66920000Y-78580000D01*
X102920000Y-80350000D02*
X102920000Y-78580000D01*
X84920000Y-80350000D02*
X84920000Y-78580000D01*
X102920000Y-78580000D02*
X103000000Y-78500000D01*
X55000000Y-78500000D02*
X55244278Y-78500000D01*
X85000000Y-78500000D02*
X90000000Y-78500000D01*
X90000000Y-80350000D02*
X90000000Y-78500000D01*
X49000000Y-80270000D02*
X48920000Y-80350000D01*
X49000000Y-78500000D02*
X54000000Y-78500000D01*
X49000000Y-78500000D02*
X49000000Y-80270000D01*
X39500000Y-78545000D02*
X39500000Y-78500000D01*
X73000000Y-78500000D02*
X73258121Y-78500000D01*
X110500000Y-78500000D02*
X122455000Y-78500000D01*
X54000000Y-80350000D02*
X54000000Y-78500000D01*
X54000000Y-78500000D02*
X55000000Y-78500000D01*
X39500000Y-78500000D02*
X49000000Y-78500000D01*
X122455000Y-78500000D02*
X123125000Y-79170000D01*
X73258121Y-78500000D02*
X74500000Y-78500000D01*
X67000000Y-78500000D02*
X73000000Y-78500000D01*
X74500000Y-78500000D02*
X85000000Y-78500000D01*
%TO.N,+3V3*%
X109270000Y-84950517D02*
X109220517Y-85000000D01*
X72036249Y-85000000D02*
X77000000Y-85000000D01*
X59000000Y-89570000D02*
X59000000Y-85000000D01*
X70730000Y-84979293D02*
X70709293Y-85000000D01*
X59000000Y-85000000D02*
X70709293Y-85000000D01*
X70730000Y-80350000D02*
X70730000Y-84979293D01*
X113112923Y-85000000D02*
X118805000Y-85000000D01*
X113080000Y-89650000D02*
X113080000Y-85032923D01*
X108000000Y-84996769D02*
X107996769Y-85000000D01*
X52730000Y-84986374D02*
X52743626Y-85000000D01*
X95080000Y-89650000D02*
X95081059Y-89648941D01*
X52743626Y-85000000D02*
X59000000Y-85000000D01*
X38875000Y-89320000D02*
X38875000Y-89125000D01*
X109220517Y-85000000D02*
X113112923Y-85000000D01*
X91270000Y-84904419D02*
X91365581Y-85000000D01*
X88755900Y-85000000D02*
X91365581Y-85000000D01*
X72000000Y-80350000D02*
X72000000Y-84963751D01*
X88730000Y-80350000D02*
X88730000Y-84974100D01*
X70709293Y-85000000D02*
X72036249Y-85000000D01*
X52000000Y-85000000D02*
X52743626Y-85000000D01*
X88730000Y-84974100D02*
X88755900Y-85000000D01*
X77000000Y-85000000D02*
X88755900Y-85000000D01*
X95081059Y-85000000D02*
X106728788Y-85000000D01*
X43000000Y-85000000D02*
X52000000Y-85000000D01*
X109270000Y-80350000D02*
X109270000Y-84950517D01*
X107996769Y-85000000D02*
X109220517Y-85000000D01*
X91365581Y-85000000D02*
X95081059Y-85000000D01*
X118805000Y-85000000D02*
X123125000Y-89320000D01*
X106730000Y-80350000D02*
X106730000Y-84998788D01*
X95081059Y-89648941D02*
X95081059Y-85000000D01*
X72000000Y-84963751D02*
X72036249Y-85000000D01*
X38875000Y-89125000D02*
X43000000Y-85000000D01*
X77080000Y-85080000D02*
X77000000Y-85000000D01*
X106730000Y-84998788D02*
X106728788Y-85000000D01*
X59080000Y-89650000D02*
X59000000Y-89570000D01*
X77080000Y-89650000D02*
X77080000Y-85080000D01*
X113080000Y-85032923D02*
X113112923Y-85000000D01*
X106728788Y-85000000D02*
X107996769Y-85000000D01*
X91270000Y-80350000D02*
X91270000Y-84904419D01*
X52730000Y-80350000D02*
X52730000Y-84986374D01*
X108000000Y-80350000D02*
X108000000Y-84996769D01*
%TO.N,Net-(B0-Pad2)*%
X41000000Y-98200000D02*
X48640000Y-98200000D01*
X48640000Y-98200000D02*
X48920000Y-97920000D01*
X48920000Y-89650000D02*
X48920000Y-97920000D01*
D15*
%TO.N,Net-(B1-Pad2)*%
X50190000Y-98810000D02*
X49000000Y-100000000D01*
X50190000Y-89650000D02*
X50190000Y-98810000D01*
X40200479Y-100799521D02*
X40200479Y-114400479D01*
X49000000Y-100000000D02*
X41000000Y-100000000D01*
X41000000Y-100000000D02*
X40200479Y-100799521D01*
X40200479Y-114400479D02*
X41000000Y-115200000D01*
D14*
%TO.N,unconnected-(L3-Pad16)*%
X110540000Y-94540000D02*
X110575480Y-94575480D01*
X110540000Y-89650000D02*
X110540000Y-94540000D01*
%TO.N,unconnected-(L3-Pad17)*%
X111810000Y-89650000D02*
X111810000Y-94575480D01*
D15*
%TO.N,Net-(B2-Pad2)*%
X51460000Y-98540000D02*
X50000000Y-100000000D01*
X51460000Y-89650000D02*
X51460000Y-98540000D01*
X50000000Y-100000000D02*
X50000000Y-132000000D01*
X49800000Y-132200000D02*
X41000000Y-132200000D01*
X50000000Y-132000000D02*
X49800000Y-132200000D01*
%TO.N,Net-(B3-Pad2)*%
X51000000Y-101000000D02*
X52575489Y-99424511D01*
X51000000Y-101000000D02*
X51000000Y-149000000D01*
X50800000Y-149200000D02*
X41000000Y-149200000D01*
D14*
X52730000Y-89650000D02*
X52730000Y-94270000D01*
X52575489Y-94424511D02*
X52575489Y-99374511D01*
X52730000Y-94270000D02*
X52575489Y-94424511D01*
D15*
X51000000Y-149000000D02*
X50800000Y-149200000D01*
X52575489Y-99424511D02*
X52575489Y-99374511D01*
%TO.N,Net-(B4-Pad2)*%
X56074521Y-96074521D02*
X56074521Y-165925479D01*
X54000000Y-89650000D02*
X54000000Y-94000000D01*
X54000000Y-94000000D02*
X56074521Y-96074521D01*
X56074521Y-165925479D02*
X55800000Y-166200000D01*
X55800000Y-166200000D02*
X41000000Y-166200000D01*
D14*
%TO.N,Net-(B5-Pad2)*%
X55270000Y-89650000D02*
X55270000Y-94470000D01*
X56499040Y-95699040D02*
X56499040Y-163699040D01*
X56499040Y-163699040D02*
X59000000Y-166200000D01*
X55270000Y-94470000D02*
X56499040Y-95699040D01*
D15*
%TO.N,Net-(B10-Pad2)*%
X66920000Y-89650000D02*
X66920000Y-97920000D01*
X66920000Y-97920000D02*
X66640000Y-98200000D01*
X66640000Y-98200000D02*
X59000000Y-98200000D01*
D14*
%TO.N,Net-(B11-Pad2)*%
X66800000Y-115200000D02*
X59000000Y-115200000D01*
X67824521Y-98175479D02*
X67824521Y-114175479D01*
X67824521Y-114175479D02*
X66800000Y-115200000D01*
X68190000Y-89650000D02*
X68190000Y-97810000D01*
X68190000Y-97810000D02*
X67824521Y-98175479D01*
%TO.N,Net-(B12-Pad2)*%
X71200000Y-166200000D02*
X77000000Y-166200000D01*
X68560270Y-98633726D02*
X68560270Y-163560270D01*
X69460000Y-97733996D02*
X68560270Y-98633726D01*
X68560270Y-163560270D02*
X71200000Y-166200000D01*
X69460000Y-89650000D02*
X69460000Y-97733996D01*
%TO.N,Net-(B13-Pad2)*%
X70575489Y-94884511D02*
X70575489Y-100455339D01*
X70575489Y-100455339D02*
X69009790Y-102021038D01*
X69009790Y-102021038D02*
X69009790Y-147009790D01*
X71200000Y-149200000D02*
X77000000Y-149200000D01*
X70730000Y-89650000D02*
X70730000Y-94730000D01*
X70730000Y-94730000D02*
X70575489Y-94884511D01*
X69009790Y-147009790D02*
X71200000Y-149200000D01*
%TO.N,Net-(B14-Pad2)*%
X74099521Y-130900479D02*
X75399042Y-132200000D01*
X74099521Y-96099521D02*
X74099521Y-130900479D01*
X72000000Y-89650000D02*
X72000000Y-94000000D01*
X72000000Y-94000000D02*
X74099521Y-96099521D01*
X75399042Y-132200000D02*
X77000000Y-132200000D01*
D15*
%TO.N,Net-(B15-Pad2)*%
X75360477Y-115200000D02*
X77000000Y-115200000D01*
X73270000Y-94270000D02*
X74706217Y-95706217D01*
X74706217Y-114545740D02*
X75360477Y-115200000D01*
X73270000Y-89650000D02*
X73270000Y-94270000D01*
X74706217Y-95706217D02*
X74706217Y-114545740D01*
%TO.N,Net-(B20-Pad2)*%
X84920000Y-99080000D02*
X83000000Y-101000000D01*
X83000000Y-101000000D02*
X83000000Y-148000000D01*
X84920000Y-89650000D02*
X84920000Y-99080000D01*
X84200000Y-149200000D02*
X95000000Y-149200000D01*
X83000000Y-148000000D02*
X84200000Y-149200000D01*
%TO.N,Net-(B21-Pad2)*%
X86190000Y-89650000D02*
X86190000Y-131190000D01*
X86190000Y-131190000D02*
X87200000Y-132200000D01*
X87200000Y-132200000D02*
X95000000Y-132200000D01*
%TO.N,Net-(B22-Pad2)*%
X87000000Y-115000000D02*
X87200000Y-115200000D01*
X87460000Y-89650000D02*
X87460000Y-97540000D01*
X87000000Y-98000000D02*
X87000000Y-115000000D01*
X87460000Y-97540000D02*
X87000000Y-98000000D01*
X87200000Y-115200000D02*
X95000000Y-115200000D01*
%TO.N,Net-(B23-Pad2)*%
X88730000Y-94730000D02*
X88533091Y-94926909D01*
X88533091Y-98533091D02*
X89000000Y-99000000D01*
X97000000Y-106066183D02*
X97000000Y-166000000D01*
X89933817Y-99000000D02*
X97000000Y-106066183D01*
X88533091Y-94926909D02*
X88533091Y-98533091D01*
X88730000Y-89650000D02*
X88730000Y-94730000D01*
X97200000Y-166200000D02*
X113000000Y-166200000D01*
X97000000Y-166000000D02*
X97200000Y-166200000D01*
X89000000Y-99000000D02*
X89933817Y-99000000D01*
%TO.N,Net-(B24-Pad2)*%
X92000000Y-100337801D02*
X97399520Y-105737321D01*
X97399519Y-106231670D02*
X97399520Y-148000000D01*
X92000000Y-96000000D02*
X92000000Y-100337801D01*
X90000000Y-89650000D02*
X90000000Y-94000000D01*
X90000000Y-94000000D02*
X92000000Y-96000000D01*
X97399520Y-105737321D02*
X97399519Y-106231670D01*
X97399520Y-148000000D02*
X98599520Y-149200000D01*
X98599520Y-149200000D02*
X113000000Y-149200000D01*
%TO.N,Net-(B25-Pad2)*%
X92517497Y-95717497D02*
X95000000Y-98200000D01*
X91270000Y-94704994D02*
X92282503Y-95717497D01*
X92282503Y-95717497D02*
X92517497Y-95717497D01*
X91270000Y-89650000D02*
X91270000Y-94704994D01*
D14*
%TO.N,Net-(B30-Pad2)*%
X115000000Y-166000000D02*
X115200000Y-166200000D01*
X114550480Y-125449520D02*
X114550480Y-129550480D01*
X102920000Y-98920000D02*
X104000000Y-100000000D01*
X115200000Y-166200000D02*
X131000000Y-166200000D01*
X115000000Y-115000000D02*
X115000000Y-125000000D01*
X115000000Y-130000000D02*
X115000000Y-166000000D01*
X102920000Y-89650000D02*
X102920000Y-98920000D01*
X104000000Y-100000000D02*
X104000000Y-104000000D01*
X115000000Y-125000000D02*
X114550480Y-125449520D01*
X104000000Y-104000000D02*
X115000000Y-115000000D01*
X114550480Y-129550480D02*
X115000000Y-130000000D01*
%TO.N,Net-(B31-Pad2)*%
X104190000Y-98190000D02*
X105000000Y-99000000D01*
X104190000Y-89650000D02*
X104190000Y-98190000D01*
X115000000Y-126000000D02*
X115000000Y-129000000D01*
X117200000Y-149200000D02*
X131000000Y-149200000D01*
X115000000Y-129000000D02*
X116000000Y-130000000D01*
X116000000Y-130000000D02*
X116000000Y-148000000D01*
X105000000Y-99000000D02*
X105000000Y-103000000D01*
X116000000Y-125000000D02*
X115000000Y-126000000D01*
X116000000Y-148000000D02*
X117200000Y-149200000D01*
X116000000Y-114000000D02*
X116000000Y-125000000D01*
X105000000Y-103000000D02*
X116000000Y-114000000D01*
%TO.N,Net-(B32-Pad2)*%
X105460000Y-89650000D02*
X105460000Y-97460000D01*
X105460000Y-97460000D02*
X107900479Y-99900479D01*
X122000000Y-100000000D02*
X122000000Y-131000000D01*
X107900479Y-99900479D02*
X121900479Y-99900479D01*
X121900479Y-99900479D02*
X122000000Y-100000000D01*
X123200000Y-132200000D02*
X131000000Y-132200000D01*
X122000000Y-131000000D02*
X123200000Y-132200000D01*
%TO.N,Net-(B33-Pad2)*%
X106730000Y-89650000D02*
X106730000Y-94730000D01*
X107200000Y-98200000D02*
X113000000Y-98200000D01*
X106730000Y-94730000D02*
X106575489Y-94884511D01*
X106575489Y-97575489D02*
X107200000Y-98200000D01*
X106575489Y-94884511D02*
X106575489Y-97575489D01*
D15*
%TO.N,Net-(B34-Pad2)*%
X124200000Y-115200000D02*
X131000000Y-115200000D01*
X123000000Y-114000000D02*
X124200000Y-115200000D01*
X108000000Y-94120791D02*
X109879209Y-96000000D01*
X123000000Y-99000000D02*
X123000000Y-114000000D01*
X112779209Y-96000000D02*
X115779209Y-99000000D01*
X109879209Y-96000000D02*
X112779209Y-96000000D01*
X115779209Y-99000000D02*
X123000000Y-99000000D01*
X108000000Y-89650000D02*
X108000000Y-94120791D01*
%TO.N,Net-(B35-Pad2)*%
X109270000Y-89650000D02*
X109270000Y-94270000D01*
X115544215Y-98200000D02*
X131000000Y-98200000D01*
X110000000Y-95000000D02*
X112344215Y-95000000D01*
X109270000Y-94270000D02*
X110000000Y-95000000D01*
X112344215Y-95000000D02*
X115544215Y-98200000D01*
%TO.N,SCL*%
X77080000Y-82420000D02*
X77000000Y-82500000D01*
X95080000Y-80350000D02*
X95080000Y-82420000D01*
X59080000Y-80350000D02*
X59080000Y-82420000D01*
X59080000Y-82420000D02*
X59000000Y-82500000D01*
X95080000Y-82420000D02*
X95000000Y-82500000D01*
X113080000Y-80350000D02*
X113080000Y-82420000D01*
X77080000Y-80350000D02*
X77080000Y-82420000D01*
X113080000Y-82420000D02*
X113000000Y-82500000D01*
%TO.N,SDA*%
X75810000Y-83190000D02*
X75756725Y-83243275D01*
X57810000Y-83190000D02*
X57756725Y-83243275D01*
X111810000Y-83190000D02*
X111756725Y-83243275D01*
X93810000Y-83190000D02*
X93756725Y-83243275D01*
X93810000Y-80350000D02*
X93810000Y-83190000D01*
X57810000Y-80350000D02*
X57810000Y-83190000D01*
X111810000Y-80350000D02*
X111810000Y-83190000D01*
X75810000Y-80350000D02*
X75810000Y-83190000D01*
%TO.N,Net-(B6-Pad2)*%
X57000000Y-147200000D02*
X58717497Y-148917497D01*
X57000000Y-95000000D02*
X57000000Y-147200000D01*
X56540000Y-89650000D02*
X56540000Y-94540000D01*
X56540000Y-94540000D02*
X57000000Y-95000000D01*
D14*
%TO.N,Net-(B7-Pad2)*%
X57810000Y-89650000D02*
X57810000Y-95810000D01*
X57810000Y-95810000D02*
X57575489Y-96044511D01*
X57575489Y-96044511D02*
X57575489Y-130775489D01*
X57575489Y-130775489D02*
X59000000Y-132200000D01*
D15*
%TO.N,Net-(B16-Pad2)*%
X77000000Y-97000000D02*
X77000000Y-98200000D01*
X74540000Y-94540000D02*
X77000000Y-97000000D01*
X74540000Y-89650000D02*
X74540000Y-94540000D01*
%TO.N,Net-(B17-Pad2)*%
X80200000Y-166200000D02*
X95000000Y-166200000D01*
X79000000Y-165000000D02*
X80200000Y-166200000D01*
X75810000Y-94810000D02*
X79000000Y-98000000D01*
X79000000Y-98000000D02*
X79000000Y-165000000D01*
X75810000Y-89650000D02*
X75810000Y-94810000D01*
%TO.N,Net-(B26-Pad2)*%
X98000000Y-132000000D02*
X98200000Y-132200000D01*
X92540000Y-89650000D02*
X92540000Y-95174994D01*
X92540000Y-95174994D02*
X93365006Y-96000000D01*
X93365006Y-96000000D02*
X96000000Y-96000000D01*
X98000000Y-98000000D02*
X98000000Y-132000000D01*
X98200000Y-132200000D02*
X113000000Y-132200000D01*
X96000000Y-96000000D02*
X98000000Y-98000000D01*
%TO.N,Net-(B27-Pad2)*%
X93810000Y-89650000D02*
X93810000Y-94810000D01*
X94000000Y-95000000D02*
X95565006Y-95000000D01*
X98399519Y-114399519D02*
X99200000Y-115200000D01*
X93810000Y-94810000D02*
X94000000Y-95000000D01*
X99200000Y-115200000D02*
X113000000Y-115200000D01*
X95565006Y-95000000D02*
X98399519Y-97834513D01*
X98399519Y-97834513D02*
X98399519Y-114399519D01*
%TO.N,Net-(L0-Pad3)*%
X74540000Y-80350000D02*
X74540000Y-83460000D01*
X110540000Y-80350000D02*
X110540000Y-83460000D01*
X92540000Y-80350000D02*
X92540000Y-83460000D01*
X74540000Y-83460000D02*
X74000000Y-84000000D01*
X92540000Y-83460000D02*
X92000000Y-84000000D01*
X110540000Y-83460000D02*
X110000000Y-84000000D01*
X56540000Y-83460000D02*
X56000000Y-84000000D01*
X56540000Y-80350000D02*
X56540000Y-83460000D01*
%TD*%
M02*
