%TF.GenerationSoftware,KiCad,Pcbnew,(6.0.4)*%
%TF.CreationDate,2022-04-25T23:47:20+01:00*%
%TF.ProjectId,pcb,7063622e-6b69-4636-9164-5f7063625858,1*%
%TF.SameCoordinates,Original*%
%TF.FileFunction,Legend,Bot*%
%TF.FilePolarity,Positive*%
%FSLAX46Y46*%
G04 Gerber Fmt 4.6, Leading zero omitted, Abs format (unit mm)*
G04 Created by KiCad (PCBNEW (6.0.4)) date 2022-04-25 23:47:20*
%MOMM*%
%LPD*%
G01*
G04 APERTURE LIST*
G04 Aperture macros list*
%AMFreePoly0*
4,1,22,0.550000,-0.750000,0.000000,-0.750000,0.000000,-0.745033,-0.079941,-0.743568,-0.215256,-0.701293,-0.333266,-0.622738,-0.424486,-0.514219,-0.481581,-0.384460,-0.499164,-0.250000,-0.500000,-0.250000,-0.500000,0.250000,-0.499164,0.250000,-0.499963,0.256109,-0.478152,0.396186,-0.417904,0.524511,-0.324060,0.630769,-0.204165,0.706417,-0.067858,0.745374,0.000000,0.744959,0.000000,0.750000,
0.550000,0.750000,0.550000,-0.750000,0.550000,-0.750000,$1*%
%AMFreePoly1*
4,1,20,0.000000,0.744959,0.073905,0.744508,0.209726,0.703889,0.328688,0.626782,0.421226,0.519385,0.479903,0.390333,0.500000,0.250000,0.500000,-0.250000,0.499851,-0.262216,0.476331,-0.402017,0.414519,-0.529596,0.319384,-0.634700,0.198574,-0.708877,0.061801,-0.746166,0.000000,-0.745033,0.000000,-0.750000,-0.550000,-0.750000,-0.550000,0.750000,0.000000,0.750000,0.000000,0.744959,
0.000000,0.744959,$1*%
G04 Aperture macros list end*
%ADD10C,0.150000*%
%ADD11C,0.120000*%
%ADD12C,2.000000*%
%ADD13C,1.900000*%
%ADD14C,3.450000*%
%ADD15C,2.200000*%
%ADD16C,1.500000*%
%ADD17FreePoly0,180.000000*%
%ADD18R,1.000000X1.500000*%
%ADD19FreePoly1,180.000000*%
G04 APERTURE END LIST*
D10*
X113500000Y-81785714D02*
X114500000Y-81785714D01*
X114500000Y-83357142D02*
X114500000Y-80357142D01*
X113071428Y-80357142D01*
X111928571Y-83357142D02*
X111928571Y-81357142D01*
X111928571Y-81928571D02*
X111785714Y-81642857D01*
X111642857Y-81500000D01*
X111357142Y-81357142D01*
X111071428Y-81357142D01*
X108785714Y-83357142D02*
X108785714Y-81785714D01*
X108928571Y-81500000D01*
X109214285Y-81357142D01*
X109785714Y-81357142D01*
X110071428Y-81500000D01*
X108785714Y-83214285D02*
X109071428Y-83357142D01*
X109785714Y-83357142D01*
X110071428Y-83214285D01*
X110214285Y-82928571D01*
X110214285Y-82642857D01*
X110071428Y-82357142D01*
X109785714Y-82214285D01*
X109071428Y-82214285D01*
X108785714Y-82071428D01*
X107357142Y-81357142D02*
X107357142Y-83357142D01*
X107357142Y-81642857D02*
X107214285Y-81500000D01*
X106928571Y-81357142D01*
X106500000Y-81357142D01*
X106214285Y-81500000D01*
X106071428Y-81785714D01*
X106071428Y-83357142D01*
X103357142Y-83214285D02*
X103642857Y-83357142D01*
X104214285Y-83357142D01*
X104500000Y-83214285D01*
X104642857Y-83071428D01*
X104785714Y-82785714D01*
X104785714Y-81928571D01*
X104642857Y-81642857D01*
X104500000Y-81500000D01*
X104214285Y-81357142D01*
X103642857Y-81357142D01*
X103357142Y-81500000D01*
X103928571Y-83500000D02*
X103642857Y-83642857D01*
X103500000Y-83928571D01*
X103642857Y-84214285D01*
X103928571Y-84357142D01*
X104357142Y-84357142D01*
X101642857Y-83357142D02*
X101928571Y-83214285D01*
X102071428Y-83071428D01*
X102214285Y-82785714D01*
X102214285Y-81928571D01*
X102071428Y-81642857D01*
X101928571Y-81500000D01*
X101642857Y-81357142D01*
X101214285Y-81357142D01*
X100928571Y-81500000D01*
X100785714Y-81642857D01*
X100642857Y-81928571D01*
X100642857Y-82785714D01*
X100785714Y-83071428D01*
X100928571Y-83214285D01*
X101214285Y-83357142D01*
X101642857Y-83357142D01*
X99357142Y-83357142D02*
X99357142Y-81357142D01*
X99357142Y-80357142D02*
X99500000Y-80500000D01*
X99357142Y-80642857D01*
X99214285Y-80500000D01*
X99357142Y-80357142D01*
X99357142Y-80642857D01*
X98071428Y-83214285D02*
X97785714Y-83357142D01*
X97214285Y-83357142D01*
X96928571Y-83214285D01*
X96785714Y-82928571D01*
X96785714Y-82785714D01*
X96928571Y-82500000D01*
X97214285Y-82357142D01*
X97642857Y-82357142D01*
X97928571Y-82214285D01*
X98071428Y-81928571D01*
X98071428Y-81785714D01*
X97928571Y-81500000D01*
X97642857Y-81357142D01*
X97214285Y-81357142D01*
X96928571Y-81500000D01*
X91785714Y-83357142D02*
X93214285Y-83357142D01*
X93214285Y-80357142D01*
X89642857Y-83214285D02*
X89928571Y-83357142D01*
X90500000Y-83357142D01*
X90785714Y-83214285D01*
X90928571Y-82928571D01*
X90928571Y-81785714D01*
X90785714Y-81500000D01*
X90500000Y-81357142D01*
X89928571Y-81357142D01*
X89642857Y-81500000D01*
X89500000Y-81785714D01*
X89500000Y-82071428D01*
X90928571Y-82357142D01*
X88214285Y-83357142D02*
X88214285Y-80357142D01*
X86928571Y-83357142D02*
X86928571Y-81785714D01*
X87071428Y-81500000D01*
X87357142Y-81357142D01*
X87785714Y-81357142D01*
X88071428Y-81500000D01*
X88214285Y-81642857D01*
X84357142Y-83214285D02*
X84642857Y-83357142D01*
X85214285Y-83357142D01*
X85500000Y-83214285D01*
X85642857Y-82928571D01*
X85642857Y-81785714D01*
X85500000Y-81500000D01*
X85214285Y-81357142D01*
X84642857Y-81357142D01*
X84357142Y-81500000D01*
X84214285Y-81785714D01*
X84214285Y-82071428D01*
X85642857Y-82357142D01*
X82928571Y-83357142D02*
X82928571Y-81357142D01*
X82928571Y-81928571D02*
X82785714Y-81642857D01*
X82642857Y-81500000D01*
X82357142Y-81357142D01*
X82071428Y-81357142D01*
X81071428Y-83357142D02*
X81071428Y-81357142D01*
X81071428Y-80357142D02*
X81214285Y-80500000D01*
X81071428Y-80642857D01*
X80928571Y-80500000D01*
X81071428Y-80357142D01*
X81071428Y-80642857D01*
X78357142Y-83214285D02*
X78642857Y-83357142D01*
X79214285Y-83357142D01*
X79500000Y-83214285D01*
X79642857Y-83071428D01*
X79785714Y-82785714D01*
X79785714Y-81928571D01*
X79642857Y-81642857D01*
X79500000Y-81500000D01*
X79214285Y-81357142D01*
X78642857Y-81357142D01*
X78357142Y-81500000D01*
X75928571Y-83214285D02*
X76214285Y-83357142D01*
X76785714Y-83357142D01*
X77071428Y-83214285D01*
X77214285Y-82928571D01*
X77214285Y-81785714D01*
X77071428Y-81500000D01*
X76785714Y-81357142D01*
X76214285Y-81357142D01*
X75928571Y-81500000D01*
X75785714Y-81785714D01*
X75785714Y-82071428D01*
X77214285Y-82357142D01*
X74785714Y-81357142D02*
X74071428Y-83357142D01*
X73357142Y-81357142D02*
X74071428Y-83357142D01*
X74357142Y-84071428D01*
X74500000Y-84214285D01*
X74785714Y-84357142D01*
X72071428Y-80357142D02*
X72357142Y-80928571D01*
X70928571Y-83214285D02*
X70642857Y-83357142D01*
X70071428Y-83357142D01*
X69785714Y-83214285D01*
X69642857Y-82928571D01*
X69642857Y-82785714D01*
X69785714Y-82500000D01*
X70071428Y-82357142D01*
X70500000Y-82357142D01*
X70785714Y-82214285D01*
X70928571Y-81928571D01*
X70928571Y-81785714D01*
X70785714Y-81500000D01*
X70500000Y-81357142D01*
X70071428Y-81357142D01*
X69785714Y-81500000D01*
X66071428Y-83357142D02*
X66071428Y-80357142D01*
X65785714Y-82214285D02*
X64928571Y-83357142D01*
X64928571Y-81357142D02*
X66071428Y-82500000D01*
X62500000Y-83214285D02*
X62785714Y-83357142D01*
X63357142Y-83357142D01*
X63642857Y-83214285D01*
X63785714Y-82928571D01*
X63785714Y-81785714D01*
X63642857Y-81500000D01*
X63357142Y-81357142D01*
X62785714Y-81357142D01*
X62500000Y-81500000D01*
X62357142Y-81785714D01*
X62357142Y-82071428D01*
X63785714Y-82357142D01*
X61357142Y-81357142D02*
X60642857Y-83357142D01*
X59928571Y-81357142D02*
X60642857Y-83357142D01*
X60928571Y-84071428D01*
X61071428Y-84214285D01*
X61357142Y-84357142D01*
X58785714Y-83357142D02*
X58785714Y-80357142D01*
X58785714Y-81500000D02*
X58500000Y-81357142D01*
X57928571Y-81357142D01*
X57642857Y-81500000D01*
X57500000Y-81642857D01*
X57357142Y-81928571D01*
X57357142Y-82785714D01*
X57500000Y-83071428D01*
X57642857Y-83214285D01*
X57928571Y-83357142D01*
X58500000Y-83357142D01*
X58785714Y-83214285D01*
X55642857Y-83357142D02*
X55928571Y-83214285D01*
X56071428Y-83071428D01*
X56214285Y-82785714D01*
X56214285Y-81928571D01*
X56071428Y-81642857D01*
X55928571Y-81500000D01*
X55642857Y-81357142D01*
X55214285Y-81357142D01*
X54928571Y-81500000D01*
X54785714Y-81642857D01*
X54642857Y-81928571D01*
X54642857Y-82785714D01*
X54785714Y-83071428D01*
X54928571Y-83214285D01*
X55214285Y-83357142D01*
X55642857Y-83357142D01*
X52071428Y-83357142D02*
X52071428Y-81785714D01*
X52214285Y-81500000D01*
X52500000Y-81357142D01*
X53071428Y-81357142D01*
X53357142Y-81500000D01*
X52071428Y-83214285D02*
X52357142Y-83357142D01*
X53071428Y-83357142D01*
X53357142Y-83214285D01*
X53500000Y-82928571D01*
X53500000Y-82642857D01*
X53357142Y-82357142D01*
X53071428Y-82214285D01*
X52357142Y-82214285D01*
X52071428Y-82071428D01*
X50642857Y-83357142D02*
X50642857Y-81357142D01*
X50642857Y-81928571D02*
X50500000Y-81642857D01*
X50357142Y-81500000D01*
X50071428Y-81357142D01*
X49785714Y-81357142D01*
X47500000Y-83357142D02*
X47500000Y-80357142D01*
X47500000Y-83214285D02*
X47785714Y-83357142D01*
X48357142Y-83357142D01*
X48642857Y-83214285D01*
X48785714Y-83071428D01*
X48928571Y-82785714D01*
X48928571Y-81928571D01*
X48785714Y-81642857D01*
X48642857Y-81500000D01*
X48357142Y-81357142D01*
X47785714Y-81357142D01*
X47500000Y-81500000D01*
%TO.C,Left/right selection*%
X87714285Y-88652380D02*
X88190476Y-88652380D01*
X88190476Y-87652380D01*
X87000000Y-88604761D02*
X87095238Y-88652380D01*
X87285714Y-88652380D01*
X87380952Y-88604761D01*
X87428571Y-88509523D01*
X87428571Y-88128571D01*
X87380952Y-88033333D01*
X87285714Y-87985714D01*
X87095238Y-87985714D01*
X87000000Y-88033333D01*
X86952380Y-88128571D01*
X86952380Y-88223809D01*
X87428571Y-88319047D01*
X86666666Y-87985714D02*
X86285714Y-87985714D01*
X86523809Y-88652380D02*
X86523809Y-87795238D01*
X86476190Y-87700000D01*
X86380952Y-87652380D01*
X86285714Y-87652380D01*
X86095238Y-87985714D02*
X85714285Y-87985714D01*
X85952380Y-87652380D02*
X85952380Y-88509523D01*
X85904761Y-88604761D01*
X85809523Y-88652380D01*
X85714285Y-88652380D01*
X84666666Y-87604761D02*
X85523809Y-88890476D01*
X84333333Y-88652380D02*
X84333333Y-87985714D01*
X84333333Y-88176190D02*
X84285714Y-88080952D01*
X84238095Y-88033333D01*
X84142857Y-87985714D01*
X84047619Y-87985714D01*
X83714285Y-88652380D02*
X83714285Y-87985714D01*
X83714285Y-87652380D02*
X83761904Y-87700000D01*
X83714285Y-87747619D01*
X83666666Y-87700000D01*
X83714285Y-87652380D01*
X83714285Y-87747619D01*
X82809523Y-87985714D02*
X82809523Y-88795238D01*
X82857142Y-88890476D01*
X82904761Y-88938095D01*
X83000000Y-88985714D01*
X83142857Y-88985714D01*
X83238095Y-88938095D01*
X82809523Y-88604761D02*
X82904761Y-88652380D01*
X83095238Y-88652380D01*
X83190476Y-88604761D01*
X83238095Y-88557142D01*
X83285714Y-88461904D01*
X83285714Y-88176190D01*
X83238095Y-88080952D01*
X83190476Y-88033333D01*
X83095238Y-87985714D01*
X82904761Y-87985714D01*
X82809523Y-88033333D01*
X82333333Y-88652380D02*
X82333333Y-87652380D01*
X81904761Y-88652380D02*
X81904761Y-88128571D01*
X81952380Y-88033333D01*
X82047619Y-87985714D01*
X82190476Y-87985714D01*
X82285714Y-88033333D01*
X82333333Y-88080952D01*
X81571428Y-87985714D02*
X81190476Y-87985714D01*
X81428571Y-87652380D02*
X81428571Y-88509523D01*
X81380952Y-88604761D01*
X81285714Y-88652380D01*
X81190476Y-88652380D01*
X80142857Y-88604761D02*
X80047619Y-88652380D01*
X79857142Y-88652380D01*
X79761904Y-88604761D01*
X79714285Y-88509523D01*
X79714285Y-88461904D01*
X79761904Y-88366666D01*
X79857142Y-88319047D01*
X80000000Y-88319047D01*
X80095238Y-88271428D01*
X80142857Y-88176190D01*
X80142857Y-88128571D01*
X80095238Y-88033333D01*
X80000000Y-87985714D01*
X79857142Y-87985714D01*
X79761904Y-88033333D01*
X78904761Y-88604761D02*
X79000000Y-88652380D01*
X79190476Y-88652380D01*
X79285714Y-88604761D01*
X79333333Y-88509523D01*
X79333333Y-88128571D01*
X79285714Y-88033333D01*
X79190476Y-87985714D01*
X79000000Y-87985714D01*
X78904761Y-88033333D01*
X78857142Y-88128571D01*
X78857142Y-88223809D01*
X79333333Y-88319047D01*
X78285714Y-88652380D02*
X78380952Y-88604761D01*
X78428571Y-88509523D01*
X78428571Y-87652380D01*
X77523809Y-88604761D02*
X77619047Y-88652380D01*
X77809523Y-88652380D01*
X77904761Y-88604761D01*
X77952380Y-88509523D01*
X77952380Y-88128571D01*
X77904761Y-88033333D01*
X77809523Y-87985714D01*
X77619047Y-87985714D01*
X77523809Y-88033333D01*
X77476190Y-88128571D01*
X77476190Y-88223809D01*
X77952380Y-88319047D01*
X76619047Y-88604761D02*
X76714285Y-88652380D01*
X76904761Y-88652380D01*
X77000000Y-88604761D01*
X77047619Y-88557142D01*
X77095238Y-88461904D01*
X77095238Y-88176190D01*
X77047619Y-88080952D01*
X77000000Y-88033333D01*
X76904761Y-87985714D01*
X76714285Y-87985714D01*
X76619047Y-88033333D01*
X76333333Y-87985714D02*
X75952380Y-87985714D01*
X76190476Y-87652380D02*
X76190476Y-88509523D01*
X76142857Y-88604761D01*
X76047619Y-88652380D01*
X75952380Y-88652380D01*
X75619047Y-88652380D02*
X75619047Y-87985714D01*
X75619047Y-87652380D02*
X75666666Y-87700000D01*
X75619047Y-87747619D01*
X75571428Y-87700000D01*
X75619047Y-87652380D01*
X75619047Y-87747619D01*
X75000000Y-88652380D02*
X75095238Y-88604761D01*
X75142857Y-88557142D01*
X75190476Y-88461904D01*
X75190476Y-88176190D01*
X75142857Y-88080952D01*
X75095238Y-88033333D01*
X75000000Y-87985714D01*
X74857142Y-87985714D01*
X74761904Y-88033333D01*
X74714285Y-88080952D01*
X74666666Y-88176190D01*
X74666666Y-88461904D01*
X74714285Y-88557142D01*
X74761904Y-88604761D01*
X74857142Y-88652380D01*
X75000000Y-88652380D01*
X74238095Y-87985714D02*
X74238095Y-88652380D01*
X74238095Y-88080952D02*
X74190476Y-88033333D01*
X74095238Y-87985714D01*
X73952380Y-87985714D01*
X73857142Y-88033333D01*
X73809523Y-88128571D01*
X73809523Y-88652380D01*
D11*
X82400000Y-89000000D02*
X79600000Y-89000000D01*
X78950000Y-89700000D02*
X78950000Y-90300000D01*
X82200000Y-91200000D02*
X81900000Y-91500000D01*
X79600000Y-91000000D02*
X82400000Y-91000000D01*
X83050000Y-90300000D02*
X83050000Y-89700000D01*
X82500000Y-91500000D02*
X81900000Y-91500000D01*
X82200000Y-91200000D02*
X82500000Y-91500000D01*
X83050000Y-89700000D02*
G75*
G03*
X82350000Y-89000000I-699999J1D01*
G01*
X78950000Y-90300000D02*
G75*
G03*
X79650000Y-91000000I700000J0D01*
G01*
X82350000Y-91000000D02*
G75*
G03*
X83050000Y-90300000I1J699999D01*
G01*
X79650000Y-89000000D02*
G75*
G03*
X78950000Y-89700000I0J-700000D01*
G01*
%TD*%
%LPC*%
D12*
%TO.C,REF\u002A\u002A*%
X117000000Y-161500000D03*
%TD*%
%TO.C,REF\u002A\u002A*%
X81000000Y-161500000D03*
%TD*%
%TO.C,REF\u002A\u002A*%
X45000000Y-161500000D03*
%TD*%
%TO.C,REF\u002A\u002A*%
X45000000Y-127500000D03*
%TD*%
%TO.C,REF\u002A\u002A*%
X81000000Y-127500000D03*
%TD*%
%TO.C,REF\u002A\u002A*%
X117000000Y-127500000D03*
%TD*%
%TO.C,REF\u002A\u002A*%
X117000000Y-93500000D03*
%TD*%
%TO.C,REF\u002A\u002A*%
X81000000Y-93500000D03*
%TD*%
%TO.C,REF\u002A\u002A*%
X45000000Y-93500000D03*
%TD*%
D13*
%TO.C,B4*%
X41500000Y-170000000D03*
D14*
X36000000Y-170000000D03*
D13*
X30500000Y-170000000D03*
D15*
X36000000Y-164100000D03*
X41000000Y-166200000D03*
%TD*%
D13*
%TO.C,B0*%
X30500000Y-102000000D03*
D14*
X36000000Y-102000000D03*
D13*
X41500000Y-102000000D03*
D15*
X36000000Y-96100000D03*
X41000000Y-98200000D03*
%TD*%
%TO.C,B10*%
X59000000Y-98200000D03*
X54000000Y-96100000D03*
D13*
X59500000Y-102000000D03*
D14*
X54000000Y-102000000D03*
D13*
X48500000Y-102000000D03*
%TD*%
D15*
%TO.C,B16*%
X77000000Y-98200000D03*
X72000000Y-96100000D03*
D13*
X66500000Y-102000000D03*
X77500000Y-102000000D03*
D14*
X72000000Y-102000000D03*
%TD*%
D12*
%TO.C,U1*%
X33125000Y-89320000D03*
X38875000Y-89320000D03*
X38875000Y-85570000D03*
X38875000Y-82370000D03*
X38875000Y-79170000D03*
X33125000Y-79170000D03*
D16*
X36000000Y-89170000D03*
X36000000Y-79870000D03*
%TD*%
D14*
%TO.C,B26*%
X108000000Y-136000000D03*
D13*
X113500000Y-136000000D03*
X102500000Y-136000000D03*
D15*
X108000000Y-130100000D03*
X113000000Y-132200000D03*
%TD*%
D12*
%TO.C,U2*%
X128875000Y-89320000D03*
X123125000Y-89320000D03*
X128875000Y-85570000D03*
X128875000Y-82370000D03*
X128875000Y-79170000D03*
X123125000Y-79170000D03*
D16*
X126000000Y-79870000D03*
X126000000Y-89170000D03*
%TD*%
D14*
%TO.C,B6*%
X54000000Y-153000000D03*
D13*
X48500000Y-153000000D03*
X59500000Y-153000000D03*
D15*
X54000000Y-147100000D03*
X59000000Y-149200000D03*
%TD*%
D14*
%TO.C,B23*%
X108000000Y-170000000D03*
D13*
X113500000Y-170000000D03*
X102500000Y-170000000D03*
D15*
X108000000Y-164100000D03*
X113000000Y-166200000D03*
%TD*%
%TO.C,B25*%
X95000000Y-98200000D03*
X90000000Y-96100000D03*
D13*
X84500000Y-102000000D03*
D14*
X90000000Y-102000000D03*
D13*
X95500000Y-102000000D03*
%TD*%
D14*
%TO.C,B5*%
X54000000Y-170000000D03*
D13*
X59500000Y-170000000D03*
X48500000Y-170000000D03*
D15*
X54000000Y-164100000D03*
X59000000Y-166200000D03*
%TD*%
D13*
%TO.C,B32*%
X131500000Y-136000000D03*
D14*
X126000000Y-136000000D03*
D13*
X120500000Y-136000000D03*
D15*
X126000000Y-130100000D03*
X131000000Y-132200000D03*
%TD*%
D13*
%TO.C,B15*%
X77500000Y-119000000D03*
X66500000Y-119000000D03*
D14*
X72000000Y-119000000D03*
D15*
X72000000Y-113100000D03*
X77000000Y-115200000D03*
%TD*%
D14*
%TO.C,B13*%
X72000000Y-153000000D03*
D13*
X77500000Y-153000000D03*
X66500000Y-153000000D03*
D15*
X72000000Y-147100000D03*
X77000000Y-149200000D03*
%TD*%
D13*
%TO.C,B7*%
X48500000Y-136000000D03*
X59500000Y-136000000D03*
D14*
X54000000Y-136000000D03*
D15*
X54000000Y-130100000D03*
X59000000Y-132200000D03*
%TD*%
D13*
%TO.C,B20*%
X84500000Y-153000000D03*
X95500000Y-153000000D03*
D14*
X90000000Y-153000000D03*
D15*
X90000000Y-147100000D03*
X95000000Y-149200000D03*
%TD*%
D13*
%TO.C,B24*%
X113500000Y-153000000D03*
X102500000Y-153000000D03*
D14*
X108000000Y-153000000D03*
D15*
X108000000Y-147100000D03*
X113000000Y-149200000D03*
%TD*%
D14*
%TO.C,B27*%
X108000000Y-119000000D03*
D13*
X113500000Y-119000000D03*
X102500000Y-119000000D03*
D15*
X108000000Y-113100000D03*
X113000000Y-115200000D03*
%TD*%
D13*
%TO.C,B21*%
X95500000Y-136000000D03*
D14*
X90000000Y-136000000D03*
D13*
X84500000Y-136000000D03*
D15*
X90000000Y-130100000D03*
X95000000Y-132200000D03*
%TD*%
D13*
%TO.C,B22*%
X84500000Y-119000000D03*
D14*
X90000000Y-119000000D03*
D13*
X95500000Y-119000000D03*
D15*
X90000000Y-113100000D03*
X95000000Y-115200000D03*
%TD*%
D14*
%TO.C,B3*%
X36000000Y-153000000D03*
D13*
X41500000Y-153000000D03*
X30500000Y-153000000D03*
D15*
X36000000Y-147100000D03*
X41000000Y-149200000D03*
%TD*%
D14*
%TO.C,B2*%
X36000000Y-136000000D03*
D13*
X41500000Y-136000000D03*
X30500000Y-136000000D03*
D15*
X36000000Y-130100000D03*
X41000000Y-132200000D03*
%TD*%
D13*
%TO.C,B35*%
X131500000Y-102000000D03*
X120500000Y-102000000D03*
D14*
X126000000Y-102000000D03*
D15*
X126000000Y-96100000D03*
X131000000Y-98200000D03*
%TD*%
D13*
%TO.C,B12*%
X77500000Y-170000000D03*
X66500000Y-170000000D03*
D14*
X72000000Y-170000000D03*
D15*
X72000000Y-164100000D03*
X77000000Y-166200000D03*
%TD*%
D14*
%TO.C,B1*%
X36000000Y-119000000D03*
D13*
X30500000Y-119000000D03*
X41500000Y-119000000D03*
D15*
X36000000Y-113100000D03*
X41000000Y-115200000D03*
%TD*%
D14*
%TO.C,B17*%
X90000000Y-170000000D03*
D13*
X95500000Y-170000000D03*
X84500000Y-170000000D03*
D15*
X90000000Y-164100000D03*
X95000000Y-166200000D03*
%TD*%
D14*
%TO.C,B11*%
X54000000Y-119000000D03*
D13*
X48500000Y-119000000D03*
X59500000Y-119000000D03*
D15*
X54000000Y-113100000D03*
X59000000Y-115200000D03*
%TD*%
D13*
%TO.C,B31*%
X131500000Y-153000000D03*
D14*
X126000000Y-153000000D03*
D13*
X120500000Y-153000000D03*
D15*
X126000000Y-147100000D03*
X131000000Y-149200000D03*
%TD*%
%TO.C,B33*%
X113000000Y-98200000D03*
X108000000Y-96100000D03*
D13*
X113500000Y-102000000D03*
D14*
X108000000Y-102000000D03*
D13*
X102500000Y-102000000D03*
%TD*%
%TO.C,B14*%
X66500000Y-136000000D03*
D14*
X72000000Y-136000000D03*
D13*
X77500000Y-136000000D03*
D15*
X72000000Y-130100000D03*
X77000000Y-132200000D03*
%TD*%
D13*
%TO.C,B34*%
X120500000Y-119000000D03*
D14*
X126000000Y-119000000D03*
D13*
X131500000Y-119000000D03*
D15*
X126000000Y-113100000D03*
X131000000Y-115200000D03*
%TD*%
D14*
%TO.C,B30*%
X126000000Y-170000000D03*
D13*
X120500000Y-170000000D03*
X131500000Y-170000000D03*
D15*
X126000000Y-164100000D03*
X131000000Y-166200000D03*
%TD*%
D17*
%TO.C,Left/right selection*%
X82300000Y-90000000D03*
D18*
X81000000Y-90000000D03*
D19*
X79700000Y-90000000D03*
%TD*%
M02*
