%TF.GenerationSoftware,KiCad,Pcbnew,(6.0.4)*%
%TF.CreationDate,2022-04-25T23:47:20+01:00*%
%TF.ProjectId,pcb,7063622e-6b69-4636-9164-5f7063625858,1*%
%TF.SameCoordinates,Original*%
%TF.FileFunction,Copper,L2,Bot*%
%TF.FilePolarity,Positive*%
%FSLAX46Y46*%
G04 Gerber Fmt 4.6, Leading zero omitted, Abs format (unit mm)*
G04 Created by KiCad (PCBNEW (6.0.4)) date 2022-04-25 23:47:20*
%MOMM*%
%LPD*%
G01*
G04 APERTURE LIST*
G04 Aperture macros list*
%AMFreePoly0*
4,1,22,0.550000,-0.750000,0.000000,-0.750000,0.000000,-0.745033,-0.079941,-0.743568,-0.215256,-0.701293,-0.333266,-0.622738,-0.424486,-0.514219,-0.481581,-0.384460,-0.499164,-0.250000,-0.500000,-0.250000,-0.500000,0.250000,-0.499164,0.250000,-0.499963,0.256109,-0.478152,0.396186,-0.417904,0.524511,-0.324060,0.630769,-0.204165,0.706417,-0.067858,0.745374,0.000000,0.744959,0.000000,0.750000,
0.550000,0.750000,0.550000,-0.750000,0.550000,-0.750000,$1*%
%AMFreePoly1*
4,1,20,0.000000,0.744959,0.073905,0.744508,0.209726,0.703889,0.328688,0.626782,0.421226,0.519385,0.479903,0.390333,0.500000,0.250000,0.500000,-0.250000,0.499851,-0.262216,0.476331,-0.402017,0.414519,-0.529596,0.319384,-0.634700,0.198574,-0.708877,0.061801,-0.746166,0.000000,-0.745033,0.000000,-0.750000,-0.550000,-0.750000,-0.550000,0.750000,0.000000,0.750000,0.000000,0.744959,
0.000000,0.744959,$1*%
G04 Aperture macros list end*
%TA.AperFunction,ComponentPad*%
%ADD10C,2.200000*%
%TD*%
%TA.AperFunction,ComponentPad*%
%ADD11C,2.000000*%
%TD*%
%TA.AperFunction,SMDPad,CuDef*%
%ADD12FreePoly0,180.000000*%
%TD*%
%TA.AperFunction,SMDPad,CuDef*%
%ADD13R,1.000000X1.500000*%
%TD*%
%TA.AperFunction,SMDPad,CuDef*%
%ADD14FreePoly1,180.000000*%
%TD*%
%TA.AperFunction,ViaPad*%
%ADD15C,0.800000*%
%TD*%
%TA.AperFunction,Conductor*%
%ADD16C,0.250000*%
%TD*%
%TA.AperFunction,Conductor*%
%ADD17C,0.200000*%
%TD*%
G04 APERTURE END LIST*
D10*
%TO.P,B4,1,A*%
%TO.N,Earth*%
X36000000Y-164100000D03*
%TO.P,B4,2,B*%
%TO.N,Net-(B4-Pad2)*%
X41000000Y-166200000D03*
%TD*%
%TO.P,B0,1,A*%
%TO.N,Earth*%
X36000000Y-96100000D03*
%TO.P,B0,2,B*%
%TO.N,Net-(B0-Pad2)*%
X41000000Y-98200000D03*
%TD*%
%TO.P,B10,2,B*%
%TO.N,Net-(B10-Pad2)*%
X59000000Y-98200000D03*
%TO.P,B10,1,A*%
%TO.N,Earth*%
X54000000Y-96100000D03*
%TD*%
%TO.P,B16,2,B*%
%TO.N,Net-(B16-Pad2)*%
X77000000Y-98200000D03*
%TO.P,B16,1,A*%
%TO.N,Earth*%
X72000000Y-96100000D03*
%TD*%
D11*
%TO.P,U1,4,P4*%
%TO.N,+3V3*%
X33125000Y-89320000D03*
X38875000Y-89320000D03*
%TO.P,U1,3,P3*%
%TO.N,SDA*%
X38875000Y-85570000D03*
%TO.P,U1,2,P2*%
%TO.N,SCL*%
X38875000Y-82370000D03*
%TO.P,U1,1,P1*%
%TO.N,Earth*%
X38875000Y-79170000D03*
X33125000Y-79170000D03*
%TD*%
D10*
%TO.P,B26,1,A*%
%TO.N,Earth*%
X108000000Y-130100000D03*
%TO.P,B26,2,B*%
%TO.N,Net-(B26-Pad2)*%
X113000000Y-132200000D03*
%TD*%
D11*
%TO.P,U2,4,P4*%
%TO.N,+3V3*%
X128875000Y-89320000D03*
X123125000Y-89320000D03*
%TO.P,U2,3,P3*%
%TO.N,SDA*%
X128875000Y-85570000D03*
%TO.P,U2,2,P2*%
%TO.N,SCL*%
X128875000Y-82370000D03*
%TO.P,U2,1,P1*%
%TO.N,Earth*%
X128875000Y-79170000D03*
X123125000Y-79170000D03*
%TD*%
D10*
%TO.P,B6,1,A*%
%TO.N,Earth*%
X54000000Y-147100000D03*
%TO.P,B6,2,B*%
%TO.N,Net-(B6-Pad2)*%
X59000000Y-149200000D03*
%TD*%
%TO.P,B23,1,A*%
%TO.N,Earth*%
X108000000Y-164100000D03*
%TO.P,B23,2,B*%
%TO.N,Net-(B23-Pad2)*%
X113000000Y-166200000D03*
%TD*%
%TO.P,B25,2,B*%
%TO.N,Net-(B25-Pad2)*%
X95000000Y-98200000D03*
%TO.P,B25,1,A*%
%TO.N,Earth*%
X90000000Y-96100000D03*
%TD*%
%TO.P,B5,1,A*%
%TO.N,Earth*%
X54000000Y-164100000D03*
%TO.P,B5,2,B*%
%TO.N,Net-(B5-Pad2)*%
X59000000Y-166200000D03*
%TD*%
%TO.P,B32,1,A*%
%TO.N,Earth*%
X126000000Y-130100000D03*
%TO.P,B32,2,B*%
%TO.N,Net-(B32-Pad2)*%
X131000000Y-132200000D03*
%TD*%
%TO.P,B15,1,A*%
%TO.N,Earth*%
X72000000Y-113100000D03*
%TO.P,B15,2,B*%
%TO.N,Net-(B15-Pad2)*%
X77000000Y-115200000D03*
%TD*%
%TO.P,B13,1,A*%
%TO.N,Earth*%
X72000000Y-147100000D03*
%TO.P,B13,2,B*%
%TO.N,Net-(B13-Pad2)*%
X77000000Y-149200000D03*
%TD*%
%TO.P,B7,1,A*%
%TO.N,Earth*%
X54000000Y-130100000D03*
%TO.P,B7,2,B*%
%TO.N,Net-(B7-Pad2)*%
X59000000Y-132200000D03*
%TD*%
%TO.P,B20,1,A*%
%TO.N,Earth*%
X90000000Y-147100000D03*
%TO.P,B20,2,B*%
%TO.N,Net-(B20-Pad2)*%
X95000000Y-149200000D03*
%TD*%
%TO.P,B24,1,A*%
%TO.N,Earth*%
X108000000Y-147100000D03*
%TO.P,B24,2,B*%
%TO.N,Net-(B24-Pad2)*%
X113000000Y-149200000D03*
%TD*%
%TO.P,B27,1,A*%
%TO.N,Earth*%
X108000000Y-113100000D03*
%TO.P,B27,2,B*%
%TO.N,Net-(B27-Pad2)*%
X113000000Y-115200000D03*
%TD*%
%TO.P,B21,1,A*%
%TO.N,Earth*%
X90000000Y-130100000D03*
%TO.P,B21,2,B*%
%TO.N,Net-(B21-Pad2)*%
X95000000Y-132200000D03*
%TD*%
%TO.P,B22,1,A*%
%TO.N,Earth*%
X90000000Y-113100000D03*
%TO.P,B22,2,B*%
%TO.N,Net-(B22-Pad2)*%
X95000000Y-115200000D03*
%TD*%
%TO.P,B3,1,A*%
%TO.N,Earth*%
X36000000Y-147100000D03*
%TO.P,B3,2,B*%
%TO.N,Net-(B3-Pad2)*%
X41000000Y-149200000D03*
%TD*%
%TO.P,B2,1,A*%
%TO.N,Earth*%
X36000000Y-130100000D03*
%TO.P,B2,2,B*%
%TO.N,Net-(B2-Pad2)*%
X41000000Y-132200000D03*
%TD*%
%TO.P,B35,1,A*%
%TO.N,Earth*%
X126000000Y-96100000D03*
%TO.P,B35,2,B*%
%TO.N,Net-(B35-Pad2)*%
X131000000Y-98200000D03*
%TD*%
%TO.P,B12,1,A*%
%TO.N,Earth*%
X72000000Y-164100000D03*
%TO.P,B12,2,B*%
%TO.N,Net-(B12-Pad2)*%
X77000000Y-166200000D03*
%TD*%
%TO.P,B1,1,A*%
%TO.N,Earth*%
X36000000Y-113100000D03*
%TO.P,B1,2,B*%
%TO.N,Net-(B1-Pad2)*%
X41000000Y-115200000D03*
%TD*%
%TO.P,B17,1,A*%
%TO.N,Earth*%
X90000000Y-164100000D03*
%TO.P,B17,2,B*%
%TO.N,Net-(B17-Pad2)*%
X95000000Y-166200000D03*
%TD*%
%TO.P,B11,1,A*%
%TO.N,Earth*%
X54000000Y-113100000D03*
%TO.P,B11,2,B*%
%TO.N,Net-(B11-Pad2)*%
X59000000Y-115200000D03*
%TD*%
%TO.P,B31,1,A*%
%TO.N,Earth*%
X126000000Y-147100000D03*
%TO.P,B31,2,B*%
%TO.N,Net-(B31-Pad2)*%
X131000000Y-149200000D03*
%TD*%
%TO.P,B33,2,B*%
%TO.N,Net-(B33-Pad2)*%
X113000000Y-98200000D03*
%TO.P,B33,1,A*%
%TO.N,Earth*%
X108000000Y-96100000D03*
%TD*%
%TO.P,B14,1,A*%
%TO.N,Earth*%
X72000000Y-130100000D03*
%TO.P,B14,2,B*%
%TO.N,Net-(B14-Pad2)*%
X77000000Y-132200000D03*
%TD*%
%TO.P,B34,1,A*%
%TO.N,Earth*%
X126000000Y-113100000D03*
%TO.P,B34,2,B*%
%TO.N,Net-(B34-Pad2)*%
X131000000Y-115200000D03*
%TD*%
%TO.P,B30,1,A*%
%TO.N,Earth*%
X126000000Y-164100000D03*
%TO.P,B30,2,B*%
%TO.N,Net-(B30-Pad2)*%
X131000000Y-166200000D03*
%TD*%
D12*
%TO.P,Left/right selection,1,A*%
%TO.N,+3V3*%
X82300000Y-90000000D03*
D13*
%TO.P,Left/right selection,2,C*%
%TO.N,Net-(L0-Pad3)*%
X81000000Y-90000000D03*
D14*
%TO.P,Left/right selection,3,B*%
%TO.N,Earth*%
X79700000Y-90000000D03*
%TD*%
D15*
%TO.N,SCL*%
X59000000Y-82500000D03*
X95000000Y-82500000D03*
X77000000Y-82500000D03*
X113000000Y-82500000D03*
%TO.N,SDA*%
X75756725Y-83243275D03*
X93756725Y-83243275D03*
X57756725Y-83243275D03*
X111756725Y-83243275D03*
%TO.N,Net-(L0-Pad3)*%
X74000000Y-84000000D03*
X92000000Y-84000000D03*
X56000000Y-84000000D03*
X110000000Y-84000000D03*
%TD*%
D16*
%TO.N,Earth*%
X79377542Y-96069455D02*
X79408087Y-96100000D01*
X36000000Y-147100000D02*
X33100000Y-147100000D01*
D17*
X72000000Y-96100000D02*
X54000000Y-96100000D01*
X54000000Y-164100000D02*
X72000000Y-164100000D01*
D16*
X33100000Y-147100000D02*
X33000000Y-147000000D01*
X33100000Y-130100000D02*
X33000000Y-130000000D01*
D17*
X108000000Y-113100000D02*
X90000000Y-113100000D01*
X108000000Y-96100000D02*
X90000000Y-96100000D01*
X72000000Y-130100000D02*
X90000000Y-130100000D01*
X33886999Y-78408001D02*
X38113001Y-78408001D01*
X90000000Y-130100000D02*
X108000000Y-130100000D01*
X90000000Y-164100000D02*
X108000000Y-164100000D01*
X33125000Y-79170000D02*
X31795000Y-80500000D01*
D16*
X36000000Y-164100000D02*
X54000000Y-164100000D01*
D17*
X31500000Y-80500000D02*
X31000000Y-81000000D01*
X33000000Y-147000000D02*
X33000000Y-164000000D01*
D16*
X33100000Y-164100000D02*
X33000000Y-164000000D01*
D17*
X54000000Y-96100000D02*
X36000000Y-96100000D01*
X126000000Y-96100000D02*
X108000000Y-96100000D01*
X31000000Y-93000000D02*
X31000000Y-94000000D01*
D16*
X79377542Y-90322458D02*
X79377542Y-96069455D01*
D17*
X33000000Y-130000000D02*
X33000000Y-147000000D01*
X126000000Y-164100000D02*
X108000000Y-164100000D01*
X36000000Y-96100000D02*
X33100000Y-96100000D01*
D16*
X36000000Y-164100000D02*
X33100000Y-164100000D01*
D17*
X108000000Y-147100000D02*
X90000000Y-147100000D01*
D16*
X123125000Y-79170000D02*
X123886999Y-78408001D01*
X123886999Y-78408001D02*
X128113001Y-78408001D01*
D17*
X79408087Y-96100000D02*
X72000000Y-96100000D01*
X33125000Y-79170000D02*
X33886999Y-78408001D01*
X72000000Y-164100000D02*
X90000000Y-164100000D01*
X90000000Y-96100000D02*
X79408087Y-96100000D01*
X72000000Y-147100000D02*
X54000000Y-147100000D01*
D16*
X36000000Y-113100000D02*
X54000000Y-113100000D01*
D17*
X54000000Y-130100000D02*
X72000000Y-130100000D01*
X31000000Y-81000000D02*
X31000000Y-93000000D01*
X38113001Y-78408001D02*
X38875000Y-79170000D01*
X126000000Y-130100000D02*
X108000000Y-130100000D01*
X33100000Y-96100000D02*
X33000000Y-96000000D01*
X31795000Y-80500000D02*
X31500000Y-80500000D01*
X31000000Y-94000000D02*
X33000000Y-96000000D01*
D16*
X36000000Y-113100000D02*
X33100000Y-113100000D01*
X36000000Y-130100000D02*
X33100000Y-130100000D01*
X128113001Y-78408001D02*
X128875000Y-79170000D01*
D17*
X33000000Y-96000000D02*
X33000000Y-113000000D01*
D16*
X33100000Y-113100000D02*
X33000000Y-113000000D01*
D17*
X126000000Y-147100000D02*
X108000000Y-147100000D01*
X33000000Y-113000000D02*
X33000000Y-130000000D01*
X90000000Y-113100000D02*
X72000000Y-113100000D01*
X108000000Y-113100000D02*
X126000000Y-113100000D01*
D16*
X36000000Y-147100000D02*
X54000000Y-147100000D01*
D17*
X90000000Y-147100000D02*
X72000000Y-147100000D01*
X72000000Y-113100000D02*
X54000000Y-113100000D01*
D16*
X79700000Y-90000000D02*
X79377542Y-90322458D01*
X36000000Y-130100000D02*
X54000000Y-130100000D01*
%TO.N,+3V3*%
X82300000Y-90000000D02*
X82980000Y-89320000D01*
D17*
X33125000Y-89320000D02*
X34074521Y-90269521D01*
X128875000Y-89320000D02*
X127925479Y-90269521D01*
D16*
X82980000Y-89320000D02*
X123125000Y-89320000D01*
D17*
X34074521Y-90269521D02*
X37925479Y-90269521D01*
X37925479Y-90269521D02*
X38875000Y-89320000D01*
X124074521Y-90269521D02*
X123125000Y-89320000D01*
X127925479Y-90269521D02*
X124074521Y-90269521D01*
%TO.N,SCL*%
X95000000Y-82500000D02*
X113000000Y-82500000D01*
X113000000Y-82500000D02*
X128745000Y-82500000D01*
X38875000Y-82370000D02*
X39005000Y-82500000D01*
X128745000Y-82500000D02*
X128875000Y-82370000D01*
X77000000Y-82500000D02*
X95000000Y-82500000D01*
X59000000Y-82500000D02*
X77000000Y-82500000D01*
X39005000Y-82500000D02*
X59000000Y-82500000D01*
%TO.N,SDA*%
X126548275Y-83243275D02*
X128875000Y-85570000D01*
X75756725Y-83243275D02*
X93756725Y-83243275D01*
X93756725Y-83243275D02*
X111756725Y-83243275D01*
X41201725Y-83243275D02*
X57756725Y-83243275D01*
X38875000Y-85570000D02*
X41201725Y-83243275D01*
X111756725Y-83243275D02*
X126548275Y-83243275D01*
X57756725Y-83243275D02*
X75756725Y-83243275D01*
%TO.N,Net-(L0-Pad3)*%
X81000000Y-84000000D02*
X74000000Y-84000000D01*
X92000000Y-84000000D02*
X110000000Y-84000000D01*
X81000000Y-90000000D02*
X81000000Y-84000000D01*
X81000000Y-84000000D02*
X92000000Y-84000000D01*
X74000000Y-84000000D02*
X56000000Y-84000000D01*
%TD*%
M02*
