%TF.GenerationSoftware,KiCad,Pcbnew,(6.0.4)*%
%TF.CreationDate,2022-04-25T23:47:20+01:00*%
%TF.ProjectId,pcb,7063622e-6b69-4636-9164-5f7063625858,1*%
%TF.SameCoordinates,Original*%
%TF.FileFunction,Soldermask,Bot*%
%TF.FilePolarity,Negative*%
%FSLAX46Y46*%
G04 Gerber Fmt 4.6, Leading zero omitted, Abs format (unit mm)*
G04 Created by KiCad (PCBNEW (6.0.4)) date 2022-04-25 23:47:20*
%MOMM*%
%LPD*%
G01*
G04 APERTURE LIST*
G04 Aperture macros list*
%AMFreePoly0*
4,1,22,0.550000,-0.750000,0.000000,-0.750000,0.000000,-0.745033,-0.079941,-0.743568,-0.215256,-0.701293,-0.333266,-0.622738,-0.424486,-0.514219,-0.481581,-0.384460,-0.499164,-0.250000,-0.500000,-0.250000,-0.500000,0.250000,-0.499164,0.250000,-0.499963,0.256109,-0.478152,0.396186,-0.417904,0.524511,-0.324060,0.630769,-0.204165,0.706417,-0.067858,0.745374,0.000000,0.744959,0.000000,0.750000,
0.550000,0.750000,0.550000,-0.750000,0.550000,-0.750000,$1*%
%AMFreePoly1*
4,1,20,0.000000,0.744959,0.073905,0.744508,0.209726,0.703889,0.328688,0.626782,0.421226,0.519385,0.479903,0.390333,0.500000,0.250000,0.500000,-0.250000,0.499851,-0.262216,0.476331,-0.402017,0.414519,-0.529596,0.319384,-0.634700,0.198574,-0.708877,0.061801,-0.746166,0.000000,-0.745033,0.000000,-0.750000,-0.550000,-0.750000,-0.550000,0.750000,0.000000,0.750000,0.000000,0.744959,
0.000000,0.744959,$1*%
G04 Aperture macros list end*
%ADD10C,2.000000*%
%ADD11C,1.900000*%
%ADD12C,3.450000*%
%ADD13C,2.200000*%
%ADD14C,1.500000*%
%ADD15FreePoly0,180.000000*%
%ADD16R,1.000000X1.500000*%
%ADD17FreePoly1,180.000000*%
G04 APERTURE END LIST*
D10*
%TO.C,REF\u002A\u002A*%
X117000000Y-161500000D03*
%TD*%
%TO.C,REF\u002A\u002A*%
X81000000Y-161500000D03*
%TD*%
%TO.C,REF\u002A\u002A*%
X45000000Y-161500000D03*
%TD*%
%TO.C,REF\u002A\u002A*%
X45000000Y-127500000D03*
%TD*%
%TO.C,REF\u002A\u002A*%
X81000000Y-127500000D03*
%TD*%
%TO.C,REF\u002A\u002A*%
X117000000Y-127500000D03*
%TD*%
%TO.C,REF\u002A\u002A*%
X117000000Y-93500000D03*
%TD*%
%TO.C,REF\u002A\u002A*%
X81000000Y-93500000D03*
%TD*%
%TO.C,REF\u002A\u002A*%
X45000000Y-93500000D03*
%TD*%
D11*
%TO.C,B4*%
X41500000Y-170000000D03*
D12*
X36000000Y-170000000D03*
D11*
X30500000Y-170000000D03*
D13*
X36000000Y-164100000D03*
X41000000Y-166200000D03*
%TD*%
D11*
%TO.C,B0*%
X30500000Y-102000000D03*
D12*
X36000000Y-102000000D03*
D11*
X41500000Y-102000000D03*
D13*
X36000000Y-96100000D03*
X41000000Y-98200000D03*
%TD*%
%TO.C,B10*%
X59000000Y-98200000D03*
X54000000Y-96100000D03*
D11*
X59500000Y-102000000D03*
D12*
X54000000Y-102000000D03*
D11*
X48500000Y-102000000D03*
%TD*%
D13*
%TO.C,B16*%
X77000000Y-98200000D03*
X72000000Y-96100000D03*
D11*
X66500000Y-102000000D03*
X77500000Y-102000000D03*
D12*
X72000000Y-102000000D03*
%TD*%
D10*
%TO.C,U1*%
X33125000Y-89320000D03*
X38875000Y-89320000D03*
X38875000Y-85570000D03*
X38875000Y-82370000D03*
X38875000Y-79170000D03*
X33125000Y-79170000D03*
D14*
X36000000Y-89170000D03*
X36000000Y-79870000D03*
%TD*%
D12*
%TO.C,B26*%
X108000000Y-136000000D03*
D11*
X113500000Y-136000000D03*
X102500000Y-136000000D03*
D13*
X108000000Y-130100000D03*
X113000000Y-132200000D03*
%TD*%
D10*
%TO.C,U2*%
X128875000Y-89320000D03*
X123125000Y-89320000D03*
X128875000Y-85570000D03*
X128875000Y-82370000D03*
X128875000Y-79170000D03*
X123125000Y-79170000D03*
D14*
X126000000Y-79870000D03*
X126000000Y-89170000D03*
%TD*%
D12*
%TO.C,B6*%
X54000000Y-153000000D03*
D11*
X48500000Y-153000000D03*
X59500000Y-153000000D03*
D13*
X54000000Y-147100000D03*
X59000000Y-149200000D03*
%TD*%
D12*
%TO.C,B23*%
X108000000Y-170000000D03*
D11*
X113500000Y-170000000D03*
X102500000Y-170000000D03*
D13*
X108000000Y-164100000D03*
X113000000Y-166200000D03*
%TD*%
%TO.C,B25*%
X95000000Y-98200000D03*
X90000000Y-96100000D03*
D11*
X84500000Y-102000000D03*
D12*
X90000000Y-102000000D03*
D11*
X95500000Y-102000000D03*
%TD*%
D12*
%TO.C,B5*%
X54000000Y-170000000D03*
D11*
X59500000Y-170000000D03*
X48500000Y-170000000D03*
D13*
X54000000Y-164100000D03*
X59000000Y-166200000D03*
%TD*%
D11*
%TO.C,B32*%
X131500000Y-136000000D03*
D12*
X126000000Y-136000000D03*
D11*
X120500000Y-136000000D03*
D13*
X126000000Y-130100000D03*
X131000000Y-132200000D03*
%TD*%
D11*
%TO.C,B15*%
X77500000Y-119000000D03*
X66500000Y-119000000D03*
D12*
X72000000Y-119000000D03*
D13*
X72000000Y-113100000D03*
X77000000Y-115200000D03*
%TD*%
D12*
%TO.C,B13*%
X72000000Y-153000000D03*
D11*
X77500000Y-153000000D03*
X66500000Y-153000000D03*
D13*
X72000000Y-147100000D03*
X77000000Y-149200000D03*
%TD*%
D11*
%TO.C,B7*%
X48500000Y-136000000D03*
X59500000Y-136000000D03*
D12*
X54000000Y-136000000D03*
D13*
X54000000Y-130100000D03*
X59000000Y-132200000D03*
%TD*%
D11*
%TO.C,B20*%
X84500000Y-153000000D03*
X95500000Y-153000000D03*
D12*
X90000000Y-153000000D03*
D13*
X90000000Y-147100000D03*
X95000000Y-149200000D03*
%TD*%
D11*
%TO.C,B24*%
X113500000Y-153000000D03*
X102500000Y-153000000D03*
D12*
X108000000Y-153000000D03*
D13*
X108000000Y-147100000D03*
X113000000Y-149200000D03*
%TD*%
D12*
%TO.C,B27*%
X108000000Y-119000000D03*
D11*
X113500000Y-119000000D03*
X102500000Y-119000000D03*
D13*
X108000000Y-113100000D03*
X113000000Y-115200000D03*
%TD*%
D11*
%TO.C,B21*%
X95500000Y-136000000D03*
D12*
X90000000Y-136000000D03*
D11*
X84500000Y-136000000D03*
D13*
X90000000Y-130100000D03*
X95000000Y-132200000D03*
%TD*%
D11*
%TO.C,B22*%
X84500000Y-119000000D03*
D12*
X90000000Y-119000000D03*
D11*
X95500000Y-119000000D03*
D13*
X90000000Y-113100000D03*
X95000000Y-115200000D03*
%TD*%
D12*
%TO.C,B3*%
X36000000Y-153000000D03*
D11*
X41500000Y-153000000D03*
X30500000Y-153000000D03*
D13*
X36000000Y-147100000D03*
X41000000Y-149200000D03*
%TD*%
D12*
%TO.C,B2*%
X36000000Y-136000000D03*
D11*
X41500000Y-136000000D03*
X30500000Y-136000000D03*
D13*
X36000000Y-130100000D03*
X41000000Y-132200000D03*
%TD*%
D11*
%TO.C,B35*%
X131500000Y-102000000D03*
X120500000Y-102000000D03*
D12*
X126000000Y-102000000D03*
D13*
X126000000Y-96100000D03*
X131000000Y-98200000D03*
%TD*%
D11*
%TO.C,B12*%
X77500000Y-170000000D03*
X66500000Y-170000000D03*
D12*
X72000000Y-170000000D03*
D13*
X72000000Y-164100000D03*
X77000000Y-166200000D03*
%TD*%
D12*
%TO.C,B1*%
X36000000Y-119000000D03*
D11*
X30500000Y-119000000D03*
X41500000Y-119000000D03*
D13*
X36000000Y-113100000D03*
X41000000Y-115200000D03*
%TD*%
D12*
%TO.C,B17*%
X90000000Y-170000000D03*
D11*
X95500000Y-170000000D03*
X84500000Y-170000000D03*
D13*
X90000000Y-164100000D03*
X95000000Y-166200000D03*
%TD*%
D12*
%TO.C,B11*%
X54000000Y-119000000D03*
D11*
X48500000Y-119000000D03*
X59500000Y-119000000D03*
D13*
X54000000Y-113100000D03*
X59000000Y-115200000D03*
%TD*%
D11*
%TO.C,B31*%
X131500000Y-153000000D03*
D12*
X126000000Y-153000000D03*
D11*
X120500000Y-153000000D03*
D13*
X126000000Y-147100000D03*
X131000000Y-149200000D03*
%TD*%
%TO.C,B33*%
X113000000Y-98200000D03*
X108000000Y-96100000D03*
D11*
X113500000Y-102000000D03*
D12*
X108000000Y-102000000D03*
D11*
X102500000Y-102000000D03*
%TD*%
%TO.C,B14*%
X66500000Y-136000000D03*
D12*
X72000000Y-136000000D03*
D11*
X77500000Y-136000000D03*
D13*
X72000000Y-130100000D03*
X77000000Y-132200000D03*
%TD*%
D11*
%TO.C,B34*%
X120500000Y-119000000D03*
D12*
X126000000Y-119000000D03*
D11*
X131500000Y-119000000D03*
D13*
X126000000Y-113100000D03*
X131000000Y-115200000D03*
%TD*%
D12*
%TO.C,B30*%
X126000000Y-170000000D03*
D11*
X120500000Y-170000000D03*
X131500000Y-170000000D03*
D13*
X126000000Y-164100000D03*
X131000000Y-166200000D03*
%TD*%
D15*
%TO.C,Left/right selection*%
X82300000Y-90000000D03*
D16*
X81000000Y-90000000D03*
D17*
X79700000Y-90000000D03*
%TD*%
M02*
