M48
; DRILL file {KiCad (6.0.4)} date Tue Nov 15 21:46:54 2022
; FORMAT={-:-/ absolute / inch / decimal}
; #@! TF.CreationDate,2022-11-15T21:46:54+00:00
; #@! TF.GenerationSoftware,Kicad,Pcbnew,(6.0.4)
; #@! TF.FileFunction,Plated,1,2,PTH
FMAT,2
INCH
; #@! TA.AperFunction,Plated,PTH,ComponentDrill
T1C0.0315
; #@! TA.AperFunction,Plated,PTH,ComponentDrill
T2C0.0354
; #@! TA.AperFunction,Plated,PTH,ComponentDrill
T3C0.0402
%
G90
G05
T1
X3.4646Y-3.9307
X3.4646Y-4.3307
X4.8819Y-3.8976
X4.8819Y-4.2976
T3
X3.8167Y-2.947
X3.8167Y-3.047
X3.8167Y-3.147
X3.8167Y-3.247
X3.8167Y-3.347
X3.8167Y-3.447
X3.8167Y-3.547
X3.8167Y-3.647
X3.8167Y-3.747
X3.8167Y-3.847
X3.8167Y-3.947
X3.8167Y-4.047
X3.8167Y-4.147
X3.8167Y-4.247
X3.8167Y-4.347
X3.8167Y-4.447
X3.8167Y-4.547
X3.8167Y-4.647
X3.8167Y-4.747
X3.8167Y-4.847
X4.0667Y-4.838
X4.1667Y-4.838
X4.2667Y-4.838
X4.5167Y-2.947
X4.5167Y-3.047
X4.5167Y-3.147
X4.5167Y-3.247
X4.5167Y-3.347
X4.5167Y-3.447
X4.5167Y-3.547
X4.5167Y-3.647
X4.5167Y-3.747
X4.5167Y-3.847
X4.5167Y-3.947
X4.5167Y-4.047
X4.5167Y-4.147
X4.5167Y-4.247
X4.5167Y-4.347
X4.5167Y-4.447
X4.5167Y-4.547
X4.5167Y-4.647
X4.5167Y-4.747
X4.5167Y-4.847
T2
G00X3.374Y-4.5866
M15
G01X3.374Y-4.5709
M16
G05
G00X3.374Y-4.5866
M15
G01X3.374Y-4.5709
M16
G05
G00X3.374Y-4.7441
M15
G01X3.374Y-4.7283
M16
G05
G00X3.374Y-4.7441
M15
G01X3.374Y-4.7283
M16
G05
G00X3.374Y-4.8622
M15
G01X3.374Y-4.8465
M16
G05
G00X3.374Y-4.8622
M15
G01X3.374Y-4.8465
M16
G05
G00X3.5551Y-4.5433
M15
G01X3.5551Y-4.5276
M16
G05
G00X3.5551Y-4.5433
M15
G01X3.5551Y-4.5276
M16
G05
G00X4.7913Y-4.5866
M15
G01X4.7913Y-4.5709
M16
G05
G00X4.7913Y-4.5866
M15
G01X4.7913Y-4.5709
M16
G05
G00X4.7913Y-4.7441
M15
G01X4.7913Y-4.7283
M16
G05
G00X4.7913Y-4.7441
M15
G01X4.7913Y-4.7283
M16
G05
G00X4.7913Y-4.8622
M15
G01X4.7913Y-4.8465
M16
G05
G00X4.7913Y-4.8622
M15
G01X4.7913Y-4.8465
M16
G05
G00X4.9724Y-4.5433
M15
G01X4.9724Y-4.5276
M16
G05
G00X4.9724Y-4.5433
M15
G01X4.9724Y-4.5276
M16
G05
T0
M30
