%TF.GenerationSoftware,KiCad,Pcbnew,(6.0.4)*%
%TF.CreationDate,2022-11-15T21:42:47+00:00*%
%TF.ProjectId,pcb_host,7063625f-686f-4737-942e-6b696361645f,rev?*%
%TF.SameCoordinates,Original*%
%TF.FileFunction,Copper,L1,Top*%
%TF.FilePolarity,Positive*%
%FSLAX46Y46*%
G04 Gerber Fmt 4.6, Leading zero omitted, Abs format (unit mm)*
G04 Created by KiCad (PCBNEW (6.0.4)) date 2022-11-15 21:42:47*
%MOMM*%
%LPD*%
G01*
G04 APERTURE LIST*
%TA.AperFunction,SMDPad,CuDef*%
%ADD10R,1.700000X3.500000*%
%TD*%
%TA.AperFunction,ComponentPad*%
%ADD11O,1.700000X1.700000*%
%TD*%
%TA.AperFunction,ComponentPad*%
%ADD12R,1.700000X1.700000*%
%TD*%
%TA.AperFunction,SMDPad,CuDef*%
%ADD13R,3.500000X1.700000*%
%TD*%
%TA.AperFunction,ComponentPad*%
%ADD14O,1.600000X1.600000*%
%TD*%
%TA.AperFunction,ComponentPad*%
%ADD15C,1.600000*%
%TD*%
%TA.AperFunction,ComponentPad*%
%ADD16O,1.000000X1.400000*%
%TD*%
%TA.AperFunction,ComponentPad*%
%ADD17O,1.600000X2.000000*%
%TD*%
%TA.AperFunction,Conductor*%
%ADD18C,0.250000*%
%TD*%
G04 APERTURE END LIST*
D10*
%TO.P,U1,43,SWDIO*%
%TO.N,unconnected-(U1-Pad43)*%
X108375000Y-123785000D03*
D11*
X108375000Y-122885000D03*
D10*
%TO.P,U1,42,GND*%
%TO.N,unconnected-(U1-Pad42)*%
X105835000Y-123785000D03*
D12*
X105835000Y-122885000D03*
D11*
%TO.P,U1,41,SWCLK*%
%TO.N,unconnected-(U1-Pad41)*%
X103295000Y-122885000D03*
D10*
X103295000Y-123785000D03*
D13*
%TO.P,U1,40,VBUS*%
%TO.N,unconnected-(U1-Pad40)*%
X115625000Y-74855000D03*
D11*
X114725000Y-74855000D03*
%TO.P,U1,39,VSYS*%
%TO.N,unconnected-(U1-Pad39)*%
X114725000Y-77395000D03*
D13*
X115625000Y-77395000D03*
D12*
%TO.P,U1,38,GND*%
%TO.N,unconnected-(U1-Pad38)*%
X114725000Y-79935000D03*
D13*
X115625000Y-79935000D03*
D11*
%TO.P,U1,37,3V3_EN*%
%TO.N,unconnected-(U1-Pad37)*%
X114725000Y-82475000D03*
D13*
X115625000Y-82475000D03*
%TO.P,U1,36,3V3*%
%TO.N,Net-(J2-PadT)*%
X115625000Y-85015000D03*
D11*
X114725000Y-85015000D03*
%TO.P,U1,35,ADC_VREF*%
%TO.N,unconnected-(U1-Pad35)*%
X114725000Y-87555000D03*
D13*
X115625000Y-87555000D03*
D11*
%TO.P,U1,34,GPIO28_ADC2*%
%TO.N,unconnected-(U1-Pad34)*%
X114725000Y-90095000D03*
D13*
X115625000Y-90095000D03*
D12*
%TO.P,U1,33,AGND*%
%TO.N,unconnected-(U1-Pad33)*%
X114725000Y-92635000D03*
D13*
X115625000Y-92635000D03*
%TO.P,U1,32,GPIO27_ADC1*%
%TO.N,unconnected-(U1-Pad32)*%
X115625000Y-95175000D03*
D11*
X114725000Y-95175000D03*
D13*
%TO.P,U1,31,GPIO26_ADC0*%
%TO.N,unconnected-(U1-Pad31)*%
X115625000Y-97715000D03*
D11*
X114725000Y-97715000D03*
%TO.P,U1,30,RUN*%
%TO.N,unconnected-(U1-Pad30)*%
X114725000Y-100255000D03*
D13*
X115625000Y-100255000D03*
%TO.P,U1,29,GPIO22*%
%TO.N,unconnected-(U1-Pad29)*%
X115625000Y-102795000D03*
D11*
X114725000Y-102795000D03*
D13*
%TO.P,U1,28,GND*%
%TO.N,unconnected-(U1-Pad28)*%
X115625000Y-105335000D03*
D12*
X114725000Y-105335000D03*
D13*
%TO.P,U1,27,GPIO21*%
%TO.N,unconnected-(U1-Pad27)*%
X115625000Y-107875000D03*
D11*
X114725000Y-107875000D03*
%TO.P,U1,26,GPIO20*%
%TO.N,unconnected-(U1-Pad26)*%
X114725000Y-110415000D03*
D13*
X115625000Y-110415000D03*
D11*
%TO.P,U1,25,GPIO19*%
%TO.N,unconnected-(U1-Pad25)*%
X114725000Y-112955000D03*
D13*
X115625000Y-112955000D03*
%TO.P,U1,24,GPIO18*%
%TO.N,unconnected-(U1-Pad24)*%
X115625000Y-115495000D03*
D11*
X114725000Y-115495000D03*
D12*
%TO.P,U1,23,GND*%
%TO.N,Net-(J2-PadS)*%
X114725000Y-118035000D03*
D13*
X115625000Y-118035000D03*
D11*
%TO.P,U1,22,GPIO17*%
%TO.N,unconnected-(U1-Pad22)*%
X114725000Y-120575000D03*
D13*
X115625000Y-120575000D03*
D11*
%TO.P,U1,21,GPIO16*%
%TO.N,unconnected-(U1-Pad21)*%
X114725000Y-123115000D03*
D13*
X115625000Y-123115000D03*
D11*
%TO.P,U1,20,GPIO15*%
%TO.N,unconnected-(U1-Pad20)*%
X96945000Y-123115000D03*
D13*
X96045000Y-123115000D03*
%TO.P,U1,19,GPIO14*%
%TO.N,unconnected-(U1-Pad19)*%
X96045000Y-120575000D03*
D11*
X96945000Y-120575000D03*
D12*
%TO.P,U1,18,GND*%
%TO.N,Net-(U1-Pad18)*%
X96945000Y-118035000D03*
D13*
X96045000Y-118035000D03*
D11*
%TO.P,U1,17,GPIO13*%
%TO.N,unconnected-(U1-Pad17)*%
X96945000Y-115495000D03*
D13*
X96045000Y-115495000D03*
D11*
%TO.P,U1,16,GPIO12*%
%TO.N,unconnected-(U1-Pad16)*%
X96945000Y-112955000D03*
D13*
X96045000Y-112955000D03*
%TO.P,U1,15,GPIO11*%
%TO.N,unconnected-(U1-Pad15)*%
X96045000Y-110415000D03*
D11*
X96945000Y-110415000D03*
%TO.P,U1,14,GPIO10*%
%TO.N,unconnected-(U1-Pad14)*%
X96945000Y-107875000D03*
D13*
X96045000Y-107875000D03*
%TO.P,U1,13,GND*%
%TO.N,unconnected-(U1-Pad13)*%
X96045000Y-105335000D03*
D12*
X96945000Y-105335000D03*
D13*
%TO.P,U1,12,GPIO9*%
%TO.N,SCL*%
X96045000Y-102795000D03*
D11*
X96945000Y-102795000D03*
%TO.P,U1,11,GPIO8*%
%TO.N,SDA*%
X96945000Y-100255000D03*
D13*
X96045000Y-100255000D03*
%TO.P,U1,10,GPIO7*%
%TO.N,unconnected-(U1-Pad10)*%
X96045000Y-97715000D03*
D11*
X96945000Y-97715000D03*
%TO.P,U1,9,GPIO6*%
%TO.N,unconnected-(U1-Pad9)*%
X96945000Y-95175000D03*
D13*
X96045000Y-95175000D03*
%TO.P,U1,8,GND*%
%TO.N,unconnected-(U1-Pad8)*%
X96045000Y-92635000D03*
D12*
X96945000Y-92635000D03*
D11*
%TO.P,U1,7,GPIO5*%
%TO.N,unconnected-(U1-Pad7)*%
X96945000Y-90095000D03*
D13*
X96045000Y-90095000D03*
%TO.P,U1,6,GPIO4*%
%TO.N,unconnected-(U1-Pad6)*%
X96045000Y-87555000D03*
D11*
X96945000Y-87555000D03*
D13*
%TO.P,U1,5,GPIO3*%
%TO.N,unconnected-(U1-Pad5)*%
X96045000Y-85015000D03*
D11*
X96945000Y-85015000D03*
D13*
%TO.P,U1,4,GPIO2*%
%TO.N,unconnected-(U1-Pad4)*%
X96045000Y-82475000D03*
D11*
X96945000Y-82475000D03*
D12*
%TO.P,U1,3,GND*%
%TO.N,unconnected-(U1-Pad3)*%
X96945000Y-79935000D03*
D13*
X96045000Y-79935000D03*
%TO.P,U1,2,GPIO1*%
%TO.N,unconnected-(U1-Pad2)*%
X96045000Y-77395000D03*
D11*
X96945000Y-77395000D03*
D13*
%TO.P,U1,1,GPIO0*%
%TO.N,unconnected-(U1-Pad1)*%
X96045000Y-74855000D03*
D11*
X96945000Y-74855000D03*
%TD*%
D14*
%TO.P,R2,2*%
%TO.N,SDA*%
X124000000Y-109160000D03*
D15*
%TO.P,R2,1*%
%TO.N,Net-(J2-PadT)*%
X124000000Y-99000000D03*
%TD*%
D14*
%TO.P,R1,2*%
%TO.N,SCL*%
X88000000Y-99840000D03*
D15*
%TO.P,R1,1*%
%TO.N,Net-(J2-PadT)*%
X88000000Y-110000000D03*
%TD*%
D16*
%TO.P,J2,R1*%
%TO.N,SDA*%
X121700000Y-120300000D03*
D17*
X121700000Y-120300000D03*
%TO.P,J2,R2*%
%TO.N,SCL*%
X121700000Y-123300000D03*
D16*
X121700000Y-123300000D03*
D17*
%TO.P,J2,S*%
%TO.N,Net-(J2-PadS)*%
X126300000Y-115200000D03*
D16*
X126300000Y-115200000D03*
D17*
%TO.P,J2,T*%
%TO.N,Net-(J2-PadT)*%
X121700000Y-116300000D03*
D16*
X121700000Y-116300000D03*
%TD*%
%TO.P,J1,R1*%
%TO.N,SDA*%
X85700000Y-120300000D03*
D17*
X85700000Y-120300000D03*
%TO.P,J1,R2*%
%TO.N,SCL*%
X85700000Y-123300000D03*
D16*
X85700000Y-123300000D03*
D17*
%TO.P,J1,S*%
%TO.N,Net-(U1-Pad18)*%
X90300000Y-115200000D03*
D16*
X90300000Y-115200000D03*
D17*
%TO.P,J1,T*%
%TO.N,Net-(J2-PadT)*%
X85700000Y-116300000D03*
D16*
X85700000Y-116300000D03*
%TD*%
D18*
%TO.N,Net-(J2-PadT)*%
X85700000Y-112300000D02*
X88000000Y-110000000D01*
X85700000Y-116300000D02*
X85700000Y-112300000D01*
%TO.N,SDA*%
X87225479Y-113774521D02*
X87225479Y-118774521D01*
X90000000Y-103000000D02*
X90000000Y-111000000D01*
X92745000Y-100255000D02*
X90000000Y-103000000D01*
X87225479Y-118774521D02*
X85700000Y-120300000D01*
X96945000Y-100255000D02*
X92745000Y-100255000D01*
X90000000Y-111000000D02*
X87225479Y-113774521D01*
%TO.N,SCL*%
X89175480Y-119824520D02*
X85700000Y-123300000D01*
X89175480Y-113824520D02*
X89175480Y-119824520D01*
X91000000Y-112000000D02*
X89175480Y-113824520D01*
X91000000Y-104500000D02*
X91000000Y-112000000D01*
X92705000Y-102795000D02*
X91000000Y-104500000D01*
X96945000Y-102795000D02*
X92705000Y-102795000D01*
%TO.N,Net-(J2-PadS)*%
X124945156Y-115200000D02*
X126300000Y-115200000D01*
X122110156Y-118035000D02*
X124945156Y-115200000D01*
X114725000Y-118035000D02*
X122110156Y-118035000D01*
%TO.N,Net-(U1-Pad18)*%
X92035000Y-118035000D02*
X96945000Y-118035000D01*
X90300000Y-115200000D02*
X90300000Y-116300000D01*
X90300000Y-116300000D02*
X92035000Y-118035000D01*
%TD*%
M02*
