%TF.GenerationSoftware,KiCad,Pcbnew,(6.0.4)*%
%TF.CreationDate,2022-11-15T21:42:47+00:00*%
%TF.ProjectId,pcb_host,7063625f-686f-4737-942e-6b696361645f,rev?*%
%TF.SameCoordinates,Original*%
%TF.FileFunction,Soldermask,Top*%
%TF.FilePolarity,Negative*%
%FSLAX46Y46*%
G04 Gerber Fmt 4.6, Leading zero omitted, Abs format (unit mm)*
G04 Created by KiCad (PCBNEW (6.0.4)) date 2022-11-15 21:42:47*
%MOMM*%
%LPD*%
G01*
G04 APERTURE LIST*
%ADD10R,1.700000X3.500000*%
%ADD11O,1.700000X1.700000*%
%ADD12R,1.700000X1.700000*%
%ADD13R,3.500000X1.700000*%
%ADD14O,1.500000X1.500000*%
%ADD15O,1.800000X1.800000*%
%ADD16O,1.600000X1.600000*%
%ADD17C,1.600000*%
%ADD18C,0.800000*%
%ADD19O,1.000000X1.400000*%
G04 APERTURE END LIST*
D10*
%TO.C,U1*%
X108375000Y-123785000D03*
D11*
X108375000Y-122885000D03*
D10*
X105835000Y-123785000D03*
D12*
X105835000Y-122885000D03*
D11*
X103295000Y-122885000D03*
D10*
X103295000Y-123785000D03*
D13*
X115625000Y-74855000D03*
D11*
X114725000Y-74855000D03*
X114725000Y-77395000D03*
D13*
X115625000Y-77395000D03*
D12*
X114725000Y-79935000D03*
D13*
X115625000Y-79935000D03*
D11*
X114725000Y-82475000D03*
D13*
X115625000Y-82475000D03*
X115625000Y-85015000D03*
D11*
X114725000Y-85015000D03*
X114725000Y-87555000D03*
D13*
X115625000Y-87555000D03*
D11*
X114725000Y-90095000D03*
D13*
X115625000Y-90095000D03*
D12*
X114725000Y-92635000D03*
D13*
X115625000Y-92635000D03*
X115625000Y-95175000D03*
D11*
X114725000Y-95175000D03*
D13*
X115625000Y-97715000D03*
D11*
X114725000Y-97715000D03*
X114725000Y-100255000D03*
D13*
X115625000Y-100255000D03*
X115625000Y-102795000D03*
D11*
X114725000Y-102795000D03*
D13*
X115625000Y-105335000D03*
D12*
X114725000Y-105335000D03*
D13*
X115625000Y-107875000D03*
D11*
X114725000Y-107875000D03*
X114725000Y-110415000D03*
D13*
X115625000Y-110415000D03*
D11*
X114725000Y-112955000D03*
D13*
X115625000Y-112955000D03*
X115625000Y-115495000D03*
D11*
X114725000Y-115495000D03*
D12*
X114725000Y-118035000D03*
D13*
X115625000Y-118035000D03*
D11*
X114725000Y-120575000D03*
D13*
X115625000Y-120575000D03*
D11*
X114725000Y-123115000D03*
D13*
X115625000Y-123115000D03*
D11*
X96945000Y-123115000D03*
D13*
X96045000Y-123115000D03*
X96045000Y-120575000D03*
D11*
X96945000Y-120575000D03*
D12*
X96945000Y-118035000D03*
D13*
X96045000Y-118035000D03*
D11*
X96945000Y-115495000D03*
D13*
X96045000Y-115495000D03*
D11*
X96945000Y-112955000D03*
D13*
X96045000Y-112955000D03*
X96045000Y-110415000D03*
D11*
X96945000Y-110415000D03*
X96945000Y-107875000D03*
D13*
X96045000Y-107875000D03*
X96045000Y-105335000D03*
D12*
X96945000Y-105335000D03*
D13*
X96045000Y-102795000D03*
D11*
X96945000Y-102795000D03*
X96945000Y-100255000D03*
D13*
X96045000Y-100255000D03*
X96045000Y-97715000D03*
D11*
X96945000Y-97715000D03*
X96945000Y-95175000D03*
D13*
X96045000Y-95175000D03*
X96045000Y-92635000D03*
D12*
X96945000Y-92635000D03*
D11*
X96945000Y-90095000D03*
D13*
X96045000Y-90095000D03*
X96045000Y-87555000D03*
D11*
X96945000Y-87555000D03*
D13*
X96045000Y-85015000D03*
D11*
X96945000Y-85015000D03*
D13*
X96045000Y-82475000D03*
D11*
X96945000Y-82475000D03*
D12*
X96945000Y-79935000D03*
D13*
X96045000Y-79935000D03*
X96045000Y-77395000D03*
D11*
X96945000Y-77395000D03*
D13*
X96045000Y-74855000D03*
D11*
X96945000Y-74855000D03*
D14*
X108260000Y-78015000D03*
X103410000Y-78015000D03*
D15*
X103110000Y-74985000D03*
X108560000Y-74985000D03*
%TD*%
D16*
%TO.C,R2*%
X124000000Y-109160000D03*
D17*
X124000000Y-99000000D03*
%TD*%
D16*
%TO.C,R1*%
X88000000Y-99840000D03*
D17*
X88000000Y-110000000D03*
%TD*%
D18*
%TO.C,J2*%
X124000000Y-117900000D03*
X124000000Y-124900000D03*
D19*
X121700000Y-120300000D03*
X121700000Y-123300000D03*
X126300000Y-115200000D03*
X121700000Y-116300000D03*
%TD*%
D18*
%TO.C,J1*%
X88000000Y-117900000D03*
X88000000Y-124900000D03*
D19*
X85700000Y-120300000D03*
X85700000Y-123300000D03*
X90300000Y-115200000D03*
X85700000Y-116300000D03*
%TD*%
M02*
