M48
; DRILL file {KiCad (6.0.4)} date Tue Nov 15 19:41:09 2022
; FORMAT={-:-/ absolute / inch / decimal}
; #@! TF.CreationDate,2022-11-15T19:41:09+00:00
; #@! TF.GenerationSoftware,Kicad,Pcbnew,(6.0.4)
; #@! TF.FileFunction,NonPlated,1,2,NPTH
FMAT,2
INCH
; #@! TA.AperFunction,NonPlated,NPTH,ComponentDrill
T1C0.0315
; #@! TA.AperFunction,NonPlated,NPTH,ComponentDrill
T2C0.0670
; #@! TA.AperFunction,NonPlated,NPTH,ComponentDrill
T3C0.1350
%
G90
G05
T1
X4.2918Y-2.6181
X4.5674Y-2.6181
T2
X1.3976Y-5.0984
X1.8307Y-5.0984
X2.1063Y-3.0906
X2.1063Y-3.7598
X2.1063Y-4.4291
X2.1063Y-5.0984
X2.5394Y-3.0906
X2.5394Y-3.7598
X2.5394Y-4.4291
X2.5394Y-5.0984
X2.815Y-3.0906
X2.815Y-3.7598
X2.815Y-4.4291
X2.815Y-5.0984
X3.248Y-3.0906
X3.248Y-3.7598
X3.248Y-4.4291
X3.248Y-5.0984
X3.5236Y-2.7559
X3.5236Y-3.4252
X3.5236Y-4.0945
X3.9567Y-2.7559
X3.9567Y-3.4252
X3.9567Y-4.0945
X4.2323Y-3.0906
X4.2323Y-3.7598
X4.2323Y-4.4291
X4.6654Y-3.0906
X4.6654Y-3.7598
X4.6654Y-4.4291
X4.9409Y-3.4252
X4.9409Y-4.0945
X4.9409Y-4.7638
X5.374Y-3.4252
X5.374Y-4.0945
X5.374Y-4.7638
T3
X1.6142Y-5.0984
X2.3228Y-3.0906
X2.3228Y-3.7598
X2.3228Y-4.4291
X2.3228Y-5.0984
X3.0315Y-3.0906
X3.0315Y-3.7598
X3.0315Y-4.4291
X3.0315Y-5.0984
X3.7402Y-2.7559
X3.7402Y-3.4252
X3.7402Y-4.0945
X4.4488Y-3.0906
X4.4488Y-3.7598
X4.4488Y-4.4291
X5.1575Y-3.4252
X5.1575Y-4.0945
X5.1575Y-4.7638
T0
M30
