%TF.GenerationSoftware,KiCad,Pcbnew,(6.0.4)*%
%TF.CreationDate,2022-11-15T19:41:09+00:00*%
%TF.ProjectId,pcb_v2,7063625f-7632-42e6-9b69-6361645f7063,rev?*%
%TF.SameCoordinates,Original*%
%TF.FileFunction,Copper,L1,Top*%
%TF.FilePolarity,Positive*%
%FSLAX46Y46*%
G04 Gerber Fmt 4.6, Leading zero omitted, Abs format (unit mm)*
G04 Created by KiCad (PCBNEW (6.0.4)) date 2022-11-15 19:41:09*
%MOMM*%
%LPD*%
G01*
G04 APERTURE LIST*
G04 Aperture macros list*
%AMRoundRect*
0 Rectangle with rounded corners*
0 $1 Rounding radius*
0 $2 $3 $4 $5 $6 $7 $8 $9 X,Y pos of 4 corners*
0 Add a 4 corners polygon primitive as box body*
4,1,4,$2,$3,$4,$5,$6,$7,$8,$9,$2,$3,0*
0 Add four circle primitives for the rounded corners*
1,1,$1+$1,$2,$3*
1,1,$1+$1,$4,$5*
1,1,$1+$1,$6,$7*
1,1,$1+$1,$8,$9*
0 Add four rect primitives between the rounded corners*
20,1,$1+$1,$2,$3,$4,$5,0*
20,1,$1+$1,$4,$5,$6,$7,0*
20,1,$1+$1,$6,$7,$8,$9,0*
20,1,$1+$1,$8,$9,$2,$3,0*%
G04 Aperture macros list end*
%TA.AperFunction,ComponentPad*%
%ADD10C,2.032000*%
%TD*%
%TA.AperFunction,SMDPad,CuDef*%
%ADD11R,1.000000X1.500000*%
%TD*%
%TA.AperFunction,SMDPad,CuDef*%
%ADD12RoundRect,0.125000X-0.825000X-0.125000X0.825000X-0.125000X0.825000X0.125000X-0.825000X0.125000X0*%
%TD*%
%TA.AperFunction,ComponentPad*%
%ADD13O,1.400000X1.000000*%
%TD*%
%TA.AperFunction,ComponentPad*%
%ADD14O,2.000000X1.600000*%
%TD*%
%TA.AperFunction,ComponentPad*%
%ADD15O,3.100000X1.600000*%
%TD*%
%TA.AperFunction,ComponentPad*%
%ADD16O,2.500000X1.000000*%
%TD*%
%TA.AperFunction,ViaPad*%
%ADD17C,0.800000*%
%TD*%
%TA.AperFunction,Conductor*%
%ADD18C,0.250000*%
%TD*%
%TA.AperFunction,Conductor*%
%ADD19C,0.200000*%
%TD*%
G04 APERTURE END LIST*
D10*
%TO.P,KEY_B_4,1,A*%
%TO.N,Earth*%
X77000000Y-84400000D03*
%TO.P,KEY_B_4,2,B*%
%TO.N,Net-(KEY_B_4-Pad2)*%
X72000000Y-82300000D03*
X82000000Y-82300000D03*
%TD*%
%TO.P,KEY_B_2,1,A*%
%TO.N,Earth*%
X95000000Y-92900000D03*
%TO.P,KEY_B_2,2,B*%
%TO.N,Net-(KEY_B_2-Pad2)*%
X90000000Y-90800000D03*
X100000000Y-90800000D03*
%TD*%
%TO.P,KEY_C_1,1,A*%
%TO.N,Earth*%
X131000000Y-126900000D03*
%TO.P,KEY_C_1,2,B*%
%TO.N,Net-(KEY_C_1-Pad2)*%
X126000000Y-124800000D03*
X136000000Y-124800000D03*
%TD*%
%TO.P,KEY_A_0,1,A*%
%TO.N,Earth*%
X77000000Y-135400000D03*
%TO.P,KEY_A_0,2,B*%
%TO.N,Net-(KEY_A_0-Pad2)*%
X72000000Y-133300000D03*
X82000000Y-133300000D03*
%TD*%
D11*
%TO.P,JP_SELECT1,1,A*%
%TO.N,+3V3*%
X114300000Y-73000000D03*
%TO.P,JP_SELECT1,2,C*%
%TO.N,SEL*%
X113000000Y-73000000D03*
%TO.P,JP_SELECT1,3,B*%
%TO.N,Earth*%
X111700000Y-73000000D03*
%TD*%
D10*
%TO.P,KEY_C_3,1,A*%
%TO.N,Earth*%
X131000000Y-92900000D03*
%TO.P,KEY_C_3,2,B*%
%TO.N,Net-(KEY_C_3-Pad2)*%
X136000000Y-90800000D03*
X126000000Y-90800000D03*
%TD*%
%TO.P,KEY_C_0,1,A*%
%TO.N,Earth*%
X113000000Y-118400000D03*
%TO.P,KEY_C_0,2,B*%
%TO.N,Net-(KEY_C_0-Pad2)*%
X108000000Y-116300000D03*
X118000000Y-116300000D03*
%TD*%
D12*
%TO.P,MCP_C1,1,SCL*%
%TO.N,SCL*%
X109490417Y-103698017D03*
%TO.P,MCP_C1,2,SDA*%
%TO.N,SDA*%
X109490417Y-104348017D03*
%TO.P,MCP_C1,3,A2*%
%TO.N,SEL*%
X109490417Y-104998017D03*
%TO.P,MCP_C1,4,A1*%
%TO.N,+3V3*%
X109490417Y-105648017D03*
%TO.P,MCP_C1,5,A0*%
%TO.N,Earth*%
X109490417Y-106298017D03*
%TO.P,MCP_C1,6,~{RESET}*%
%TO.N,+3V3*%
X109490417Y-106948017D03*
%TO.P,MCP_C1,7,NC*%
%TO.N,unconnected-(MCP_C1-Pad7)*%
X109490417Y-107598017D03*
%TO.P,MCP_C1,8,INT*%
%TO.N,unconnected-(MCP_C1-Pad8)*%
X109490417Y-108248017D03*
%TO.P,MCP_C1,9,VSS*%
%TO.N,Earth*%
X109490417Y-108898017D03*
%TO.P,MCP_C1,10,NC*%
%TO.N,unconnected-(MCP_C1-Pad10)*%
X109490417Y-109548017D03*
%TO.P,MCP_C1,11,NC*%
%TO.N,unconnected-(MCP_C1-Pad11)*%
X116490417Y-109548017D03*
%TO.P,MCP_C1,12,GP0*%
%TO.N,Net-(KEY_C_0-Pad2)*%
X116490417Y-108898017D03*
%TO.P,MCP_C1,13,GP1*%
%TO.N,Net-(KEY_C_1-Pad2)*%
X116490417Y-108248017D03*
%TO.P,MCP_C1,14,GP2*%
%TO.N,Net-(KEY_C_2-Pad2)*%
X116490417Y-107598017D03*
%TO.P,MCP_C1,15,GP3*%
%TO.N,Net-(KEY_C_3-Pad2)*%
X116490417Y-106948017D03*
%TO.P,MCP_C1,16,GP4*%
%TO.N,Net-(KEY_C_4-Pad2)*%
X116490417Y-106298017D03*
%TO.P,MCP_C1,17,GP5*%
%TO.N,Net-(KEY_C_5-Pad2)*%
X116490417Y-105648017D03*
%TO.P,MCP_C1,18,GP6*%
%TO.N,unconnected-(MCP_C1-Pad18)*%
X116490417Y-104998017D03*
%TO.P,MCP_C1,19,GP7*%
%TO.N,unconnected-(MCP_C1-Pad19)*%
X116490417Y-104348017D03*
%TO.P,MCP_C1,20,VDD*%
%TO.N,+3V3*%
X116490417Y-103698017D03*
%TD*%
D10*
%TO.P,KEY_C_2,1,A*%
%TO.N,Earth*%
X131000000Y-109900000D03*
%TO.P,KEY_C_2,2,B*%
%TO.N,Net-(KEY_C_2-Pad2)*%
X126000000Y-107800000D03*
X136000000Y-107800000D03*
%TD*%
%TO.P,KEY_A_5,1,A*%
%TO.N,Earth*%
X59000000Y-101400000D03*
%TO.P,KEY_A_5,2,B*%
%TO.N,Net-(KEY_A_5-Pad2)*%
X64000000Y-99300000D03*
X54000000Y-99300000D03*
%TD*%
%TO.P,KEY_B_1,1,A*%
%TO.N,Earth*%
X95000000Y-109900000D03*
%TO.P,KEY_B_1,2,B*%
%TO.N,Net-(KEY_B_1-Pad2)*%
X90000000Y-107800000D03*
X100000000Y-107800000D03*
%TD*%
%TO.P,KEY_C_5,1,A*%
%TO.N,Earth*%
X113000000Y-101400000D03*
%TO.P,KEY_C_5,2,B*%
%TO.N,Net-(KEY_C_5-Pad2)*%
X108000000Y-99300000D03*
X118000000Y-99300000D03*
%TD*%
D13*
%TO.P,JACK1,R1*%
%TO.N,SDA*%
X111412500Y-68800000D03*
D14*
X111412500Y-68800000D03*
X111412500Y-64200000D03*
D13*
%TO.P,JACK1,R2*%
%TO.N,SCL*%
X114412500Y-68800000D03*
D14*
X114412500Y-68800000D03*
X114412500Y-64200000D03*
D15*
%TO.P,JACK1,S*%
%TO.N,Net-(JACK1-PadS)*%
X106862500Y-64200000D03*
D16*
X106862500Y-64200000D03*
D15*
%TO.P,JACK1,T*%
%TO.N,Net-(JACK1-PadT)*%
X106862500Y-68800000D03*
D16*
X106862500Y-68800000D03*
%TD*%
D10*
%TO.P,KEY_B_0,1,A*%
%TO.N,Earth*%
X77000000Y-101400000D03*
%TO.P,KEY_B_0,2,B*%
%TO.N,Net-(KEY_B_0-Pad2)*%
X72000000Y-99300000D03*
X82000000Y-99300000D03*
%TD*%
D12*
%TO.P,MCP_A1,1,SCL*%
%TO.N,SCL*%
X64500000Y-121075000D03*
%TO.P,MCP_A1,2,SDA*%
%TO.N,SDA*%
X64500000Y-121725000D03*
%TO.P,MCP_A1,3,A2*%
%TO.N,SEL*%
X64500000Y-122375000D03*
%TO.P,MCP_A1,4,A1*%
%TO.N,Earth*%
X64500000Y-123025000D03*
%TO.P,MCP_A1,5,A0*%
X64500000Y-123675000D03*
%TO.P,MCP_A1,6,~{RESET}*%
%TO.N,+3V3*%
X64500000Y-124325000D03*
%TO.P,MCP_A1,7,NC*%
%TO.N,unconnected-(MCP_A1-Pad7)*%
X64500000Y-124975000D03*
%TO.P,MCP_A1,8,INT*%
%TO.N,unconnected-(MCP_A1-Pad8)*%
X64500000Y-125625000D03*
%TO.P,MCP_A1,9,VSS*%
%TO.N,Earth*%
X64500000Y-126275000D03*
%TO.P,MCP_A1,10,NC*%
%TO.N,unconnected-(MCP_A1-Pad10)*%
X64500000Y-126925000D03*
%TO.P,MCP_A1,11,NC*%
%TO.N,unconnected-(MCP_A1-Pad11)*%
X71500000Y-126925000D03*
%TO.P,MCP_A1,12,GP0*%
%TO.N,Net-(KEY_A_0-Pad2)*%
X71500000Y-126275000D03*
%TO.P,MCP_A1,13,GP1*%
%TO.N,Net-(KEY_A_1-Pad2)*%
X71500000Y-125625000D03*
%TO.P,MCP_A1,14,GP2*%
%TO.N,Net-(KEY_A_2-Pad2)*%
X71500000Y-124975000D03*
%TO.P,MCP_A1,15,GP3*%
%TO.N,Net-(KEY_A_3-Pad2)*%
X71500000Y-124325000D03*
%TO.P,MCP_A1,16,GP4*%
%TO.N,Net-(KEY_A_4-Pad2)*%
X71500000Y-123675000D03*
%TO.P,MCP_A1,17,GP5*%
%TO.N,Net-(KEY_A_5-Pad2)*%
X71500000Y-123025000D03*
%TO.P,MCP_A1,18,GP6*%
%TO.N,unconnected-(MCP_A1-Pad18)*%
X71500000Y-122375000D03*
%TO.P,MCP_A1,19,GP7*%
%TO.N,unconnected-(MCP_A1-Pad19)*%
X71500000Y-121725000D03*
%TO.P,MCP_A1,20,VDD*%
%TO.N,+3V3*%
X71500000Y-121075000D03*
%TD*%
D10*
%TO.P,KEY_A_3,1,A*%
%TO.N,Earth*%
X77000000Y-118400000D03*
%TO.P,KEY_A_3,2,B*%
%TO.N,Net-(KEY_A_3-Pad2)*%
X82000000Y-116300000D03*
X72000000Y-116300000D03*
%TD*%
%TO.P,KEY_A_1,1,A*%
%TO.N,Earth*%
X59000000Y-135400000D03*
%TO.P,KEY_A_1,2,B*%
%TO.N,Net-(KEY_A_1-Pad2)*%
X54000000Y-133300000D03*
X64000000Y-133300000D03*
%TD*%
%TO.P,KEY_A_2,1,A*%
%TO.N,Earth*%
X41000000Y-135400000D03*
%TO.P,KEY_A_2,2,B*%
%TO.N,Net-(KEY_A_2-Pad2)*%
X36000000Y-133300000D03*
X46000000Y-133300000D03*
%TD*%
D11*
%TO.P,JP_5V_FRONT1,1,A*%
%TO.N,Net-(JACK1-PadS)*%
X94350000Y-65500000D03*
%TO.P,JP_5V_FRONT1,2,B*%
%TO.N,+3V3*%
X95650000Y-65500000D03*
%TD*%
D12*
%TO.P,MCP_B1,1,SCL*%
%TO.N,SCL*%
X64500000Y-86750000D03*
%TO.P,MCP_B1,2,SDA*%
%TO.N,SDA*%
X64500000Y-87400000D03*
%TO.P,MCP_B1,3,A2*%
%TO.N,SEL*%
X64500000Y-88050000D03*
%TO.P,MCP_B1,4,A1*%
%TO.N,Earth*%
X64500000Y-88700000D03*
%TO.P,MCP_B1,5,A0*%
%TO.N,+3V3*%
X64500000Y-89350000D03*
%TO.P,MCP_B1,6,~{RESET}*%
X64500000Y-90000000D03*
%TO.P,MCP_B1,7,NC*%
%TO.N,unconnected-(MCP_B1-Pad7)*%
X64500000Y-90650000D03*
%TO.P,MCP_B1,8,INT*%
%TO.N,unconnected-(MCP_B1-Pad8)*%
X64500000Y-91300000D03*
%TO.P,MCP_B1,9,VSS*%
%TO.N,Earth*%
X64500000Y-91950000D03*
%TO.P,MCP_B1,10,NC*%
%TO.N,unconnected-(MCP_B1-Pad10)*%
X64500000Y-92600000D03*
%TO.P,MCP_B1,11,NC*%
%TO.N,unconnected-(MCP_B1-Pad11)*%
X71500000Y-92600000D03*
%TO.P,MCP_B1,12,GP0*%
%TO.N,Net-(KEY_B_0-Pad2)*%
X71500000Y-91950000D03*
%TO.P,MCP_B1,13,GP1*%
%TO.N,Net-(KEY_B_1-Pad2)*%
X71500000Y-91300000D03*
%TO.P,MCP_B1,14,GP2*%
%TO.N,Net-(KEY_B_2-Pad2)*%
X71500000Y-90650000D03*
%TO.P,MCP_B1,15,GP3*%
%TO.N,Net-(KEY_B_3-Pad2)*%
X71500000Y-90000000D03*
%TO.P,MCP_B1,16,GP4*%
%TO.N,Net-(KEY_B_4-Pad2)*%
X71500000Y-89350000D03*
%TO.P,MCP_B1,17,GP5*%
%TO.N,Net-(KEY_B_5-Pad2)*%
X71500000Y-88700000D03*
%TO.P,MCP_B1,18,GP6*%
%TO.N,unconnected-(MCP_B1-Pad18)*%
X71500000Y-88050000D03*
%TO.P,MCP_B1,19,GP7*%
%TO.N,unconnected-(MCP_B1-Pad19)*%
X71500000Y-87400000D03*
%TO.P,MCP_B1,20,VDD*%
%TO.N,+3V3*%
X71500000Y-86750000D03*
%TD*%
D11*
%TO.P,JP_GND_FRONT1,1,A*%
%TO.N,Net-(JACK1-PadT)*%
X95650000Y-82500000D03*
%TO.P,JP_GND_FRONT1,2,B*%
%TO.N,Earth*%
X94350000Y-82500000D03*
%TD*%
D10*
%TO.P,KEY_B_5,1,A*%
%TO.N,Earth*%
X59000000Y-84400000D03*
%TO.P,KEY_B_5,2,B*%
%TO.N,Net-(KEY_B_5-Pad2)*%
X64000000Y-82300000D03*
X54000000Y-82300000D03*
%TD*%
%TO.P,KEY_B_3,1,A*%
%TO.N,Earth*%
X95000000Y-75900000D03*
%TO.P,KEY_B_3,2,B*%
%TO.N,Net-(KEY_B_3-Pad2)*%
X100000000Y-73800000D03*
X90000000Y-73800000D03*
%TD*%
%TO.P,KEY_C_4,1,A*%
%TO.N,Earth*%
X113000000Y-84400000D03*
%TO.P,KEY_C_4,2,B*%
%TO.N,Net-(KEY_C_4-Pad2)*%
X108000000Y-82300000D03*
X118000000Y-82300000D03*
%TD*%
%TO.P,KEY_A_4,1,A*%
%TO.N,Earth*%
X59000000Y-118400000D03*
%TO.P,KEY_A_4,2,B*%
%TO.N,Net-(KEY_A_4-Pad2)*%
X54000000Y-116300000D03*
X64000000Y-116300000D03*
%TD*%
D17*
%TO.N,Net-(KEY_A_0-Pad2)*%
X68995142Y-127500000D03*
%TO.N,Net-(KEY_A_1-Pad2)*%
X68000000Y-126825500D03*
%TO.N,Net-(KEY_A_2-Pad2)*%
X68500000Y-126000000D03*
%TO.N,Net-(KEY_A_3-Pad2)*%
X68000000Y-125000000D03*
%TO.N,Net-(KEY_A_4-Pad2)*%
X68500000Y-124000000D03*
%TO.N,Net-(KEY_A_5-Pad2)*%
X68000000Y-123000000D03*
%TO.N,Net-(KEY_B_0-Pad2)*%
X67674500Y-93000000D03*
%TO.N,Net-(KEY_B_1-Pad2)*%
X68500000Y-92325500D03*
%TO.N,Net-(KEY_B_2-Pad2)*%
X67674500Y-91478273D03*
%TO.N,Net-(KEY_B_3-Pad2)*%
X68403303Y-90803773D03*
%TO.N,Net-(KEY_B_4-Pad2)*%
X67813707Y-89859819D03*
%TO.N,Net-(KEY_B_5-Pad2)*%
X68344618Y-89072616D03*
%TO.N,Net-(KEY_C_0-Pad2)*%
X113500000Y-110000000D03*
%TO.N,Net-(KEY_C_1-Pad2)*%
X112512295Y-109275500D03*
%TO.N,Net-(KEY_C_2-Pad2)*%
X113419842Y-108419842D03*
%TO.N,Net-(KEY_C_3-Pad2)*%
X112512299Y-107487701D03*
%TO.N,Net-(KEY_C_4-Pad2)*%
X113500000Y-106500000D03*
%TO.N,Net-(KEY_C_5-Pad2)*%
X112500000Y-105500000D03*
%TO.N,SCL*%
X114724500Y-102500000D03*
X62000000Y-86000000D03*
X67500000Y-118000000D03*
%TO.N,SDA*%
X112000000Y-104000000D03*
X61325500Y-87000000D03*
X67500000Y-119500000D03*
X68000000Y-85953288D03*
%TO.N,SEL*%
X106224500Y-103987701D03*
X113000000Y-75500000D03*
X113077069Y-104683914D03*
X68000000Y-86952791D03*
X60500000Y-87975500D03*
X67500000Y-120500000D03*
X80500000Y-86500000D03*
%TO.N,+3V3*%
X74987701Y-86512299D03*
X74500000Y-122500000D03*
X61012299Y-124487701D03*
X103000000Y-74500000D03*
X109500000Y-97500000D03*
%TD*%
D18*
%TO.N,Net-(KEY_A_0-Pad2)*%
X68995142Y-127500000D02*
X69000000Y-127500000D01*
X74000000Y-126500000D02*
X74000000Y-131300000D01*
X69000000Y-127500000D02*
X70225000Y-126275000D01*
X72000000Y-133300000D02*
X82000000Y-133300000D01*
X73775000Y-126275000D02*
X74000000Y-126500000D01*
X70225000Y-126275000D02*
X71500000Y-126275000D01*
X71500000Y-126275000D02*
X73775000Y-126275000D01*
X74000000Y-131300000D02*
X72000000Y-133300000D01*
%TO.N,Earth*%
X110898017Y-108898017D02*
X111000000Y-109000000D01*
X69000000Y-101500000D02*
X69100000Y-101400000D01*
X108766992Y-75500000D02*
X111500000Y-75500000D01*
X106500000Y-115500000D02*
X106500000Y-117500000D01*
X59000000Y-123500000D02*
X59000000Y-123000000D01*
X69100000Y-101400000D02*
X77000000Y-101400000D01*
X71000000Y-84000000D02*
X74500000Y-84000000D01*
X60410979Y-97589021D02*
X60500000Y-97500000D01*
X64500000Y-88700000D02*
X57021958Y-88700000D01*
X56950000Y-91950000D02*
X56910979Y-91910979D01*
X109490417Y-106298017D02*
X110426134Y-106298017D01*
X113000000Y-84400000D02*
X105900000Y-84400000D01*
X107400000Y-118400000D02*
X113000000Y-118400000D01*
X52500000Y-84000000D02*
X52500000Y-80500000D01*
X99795770Y-109900000D02*
X101725421Y-107970349D01*
X101725421Y-99625421D02*
X101725421Y-90212891D01*
X77000000Y-101400000D02*
X85500000Y-109900000D01*
X59000000Y-123000000D02*
X64500000Y-123025000D01*
X111000000Y-109000000D02*
X111000000Y-111000000D01*
X65000000Y-97500000D02*
X69000000Y-101500000D01*
D19*
X94350000Y-82500000D02*
X94350000Y-76550000D01*
D18*
X52589021Y-80589021D02*
X67589021Y-80589021D01*
X74900000Y-84400000D02*
X77000000Y-84400000D01*
X52500000Y-80500000D02*
X52589021Y-80589021D01*
X101725421Y-90212891D02*
X96500000Y-84987470D01*
X110426134Y-106298017D02*
X111000000Y-106871883D01*
X94350000Y-83850000D02*
X94350000Y-82500000D01*
X106500000Y-117500000D02*
X107400000Y-118400000D01*
X111000000Y-106871883D02*
X111000000Y-108500000D01*
X57021958Y-88700000D02*
X56910979Y-88589021D01*
X56910979Y-86489021D02*
X56910979Y-90089021D01*
X61775000Y-126275000D02*
X64500000Y-126275000D01*
D19*
X64500000Y-123675000D02*
X59175000Y-123675000D01*
D18*
X102883496Y-81383496D02*
X108766992Y-75500000D01*
X56910979Y-96410979D02*
X58089021Y-97589021D01*
X101725421Y-99625421D02*
X95000000Y-92900000D01*
X96500000Y-84987470D02*
X99279522Y-84987470D01*
X74500000Y-84000000D02*
X74900000Y-84400000D01*
X109490417Y-108898017D02*
X110898017Y-108898017D01*
X59000000Y-123500000D02*
X59000000Y-118400000D01*
X105900000Y-84400000D02*
X102883496Y-81383496D01*
X56910979Y-86489021D02*
X56910979Y-88589021D01*
X111700000Y-75300000D02*
X111700000Y-73000000D01*
X99279522Y-84987470D02*
X102883496Y-81383496D01*
D19*
X94350000Y-76550000D02*
X95000000Y-75900000D01*
D18*
X96500000Y-84987470D02*
X96012530Y-84500000D01*
X85500000Y-109900000D02*
X95000000Y-109900000D01*
X67589021Y-80589021D02*
X71000000Y-84000000D01*
X52900000Y-84400000D02*
X52500000Y-84000000D01*
X64500000Y-91950000D02*
X56950000Y-91950000D01*
X58089021Y-97589021D02*
X60410979Y-97589021D01*
X101725421Y-107970349D02*
X101725421Y-99625421D01*
X60500000Y-97500000D02*
X65000000Y-97500000D01*
X111000000Y-108324151D02*
X111000000Y-109000000D01*
X96012530Y-84500000D02*
X95000000Y-84500000D01*
X56910979Y-88589021D02*
X56910979Y-91910979D01*
X111500000Y-75500000D02*
X111700000Y-75300000D01*
X56910979Y-91910979D02*
X56910979Y-96410979D01*
X59000000Y-84400000D02*
X52900000Y-84400000D01*
X59000000Y-84400000D02*
X56910979Y-86489021D01*
X59000000Y-123500000D02*
X61775000Y-126275000D01*
X95000000Y-109900000D02*
X99795770Y-109900000D01*
X111000000Y-111000000D02*
X106500000Y-115500000D01*
D19*
X59175000Y-123675000D02*
X59000000Y-123500000D01*
D18*
X95000000Y-84500000D02*
X94350000Y-83850000D01*
%TO.N,Net-(KEY_A_1-Pad2)*%
X69875000Y-125625000D02*
X71500000Y-125625000D01*
X65725421Y-131574579D02*
X64000000Y-133300000D01*
X67649886Y-126825500D02*
X65725421Y-128749965D01*
X65725421Y-128749965D02*
X65725421Y-131574579D01*
X68000000Y-126825500D02*
X67649886Y-126825500D01*
X68674500Y-126825500D02*
X69875000Y-125625000D01*
X68000000Y-126825500D02*
X68674500Y-126825500D01*
X54000000Y-133300000D02*
X64000000Y-133300000D01*
%TO.N,Net-(KEY_A_2-Pad2)*%
X63725421Y-128274579D02*
X60000000Y-132000000D01*
X68500000Y-126000000D02*
X69525000Y-124975000D01*
X56000000Y-132000000D02*
X55500000Y-131500000D01*
X55500000Y-131500000D02*
X48300000Y-131500000D01*
X65200807Y-128274579D02*
X63725421Y-128274579D01*
X60000000Y-132000000D02*
X56000000Y-132000000D01*
X68500000Y-126000000D02*
X67475386Y-126000000D01*
X46500000Y-133300000D02*
X36500000Y-133300000D01*
X69525000Y-124975000D02*
X71500000Y-124975000D01*
X67475386Y-126000000D02*
X65200807Y-128274579D01*
X48300000Y-131500000D02*
X46500000Y-133300000D01*
%TO.N,Net-(KEY_A_3-Pad2)*%
X76000000Y-124000000D02*
X75675000Y-124325000D01*
X72000000Y-116300000D02*
X75224511Y-119524511D01*
X72000000Y-116300000D02*
X82000000Y-116300000D01*
X76000000Y-120500000D02*
X76000000Y-124000000D01*
X75224511Y-119524511D02*
X75224511Y-119724511D01*
X68934994Y-125000000D02*
X69609994Y-124325000D01*
X75675000Y-124325000D02*
X71500000Y-124325000D01*
X75224511Y-119724511D02*
X76000000Y-120500000D01*
X68000000Y-125000000D02*
X68934994Y-125000000D01*
X69609994Y-124325000D02*
X71500000Y-124325000D01*
%TO.N,Net-(KEY_A_4-Pad2)*%
X68825000Y-123675000D02*
X71500000Y-123675000D01*
X68500000Y-116500000D02*
X68300000Y-116300000D01*
X67164244Y-122335756D02*
X68500000Y-121000000D01*
X68500000Y-124000000D02*
X68000000Y-124000000D01*
X68300000Y-116300000D02*
X64000000Y-116300000D01*
X68500000Y-124000000D02*
X68825000Y-123675000D01*
X68000000Y-124000000D02*
X67164244Y-123164244D01*
X68500000Y-121000000D02*
X68500000Y-116500000D01*
X67164244Y-123164244D02*
X67164244Y-122335756D01*
X54000000Y-116300000D02*
X64000000Y-116300000D01*
%TO.N,Net-(KEY_A_5-Pad2)*%
X69500000Y-121500000D02*
X69500000Y-104800000D01*
X69500000Y-104800000D02*
X64000000Y-99300000D01*
X68000000Y-123000000D02*
X68025000Y-123025000D01*
X68025000Y-123025000D02*
X71500000Y-123025000D01*
X68000000Y-123000000D02*
X69500000Y-121500000D01*
X54000000Y-99300000D02*
X64000000Y-99300000D01*
%TO.N,Net-(KEY_B_0-Pad2)*%
X74000000Y-97300000D02*
X74000000Y-92250000D01*
X72000000Y-99300000D02*
X74000000Y-97300000D01*
X67674500Y-93000000D02*
X69000000Y-93000000D01*
X70050000Y-91950000D02*
X71500000Y-91950000D01*
X72000000Y-99300000D02*
X82000000Y-99300000D01*
X73700000Y-91950000D02*
X71500000Y-91950000D01*
X74000000Y-92250000D02*
X73700000Y-91950000D01*
X69000000Y-93000000D02*
X70050000Y-91950000D01*
%TO.N,Net-(KEY_B_1-Pad2)*%
X90000000Y-107800000D02*
X100000000Y-107800000D01*
X68500000Y-92325500D02*
X69525500Y-91300000D01*
X80033008Y-91300000D02*
X71500000Y-91300000D01*
X90000000Y-107800000D02*
X84000000Y-101800000D01*
X84000000Y-95266992D02*
X80033008Y-91300000D01*
X69525500Y-91300000D02*
X71500000Y-91300000D01*
X84000000Y-101800000D02*
X84000000Y-95266992D01*
%TO.N,Net-(KEY_B_2-Pad2)*%
X67674500Y-91478273D02*
X68782221Y-91478273D01*
X90000000Y-90800000D02*
X100000000Y-90800000D01*
X90000000Y-90800000D02*
X89850000Y-90650000D01*
X69610494Y-90650000D02*
X71500000Y-90650000D01*
X89850000Y-90650000D02*
X71500000Y-90650000D01*
X68782221Y-91478273D02*
X69610494Y-90650000D01*
%TO.N,Net-(KEY_B_3-Pad2)*%
X90000000Y-82000000D02*
X82000000Y-90000000D01*
X90000000Y-73800000D02*
X90000000Y-82000000D01*
X90000000Y-73800000D02*
X100000000Y-73800000D01*
X69207076Y-90000000D02*
X71500000Y-90000000D01*
X82000000Y-90000000D02*
X71500000Y-90000000D01*
X68403303Y-90803773D02*
X69207076Y-90000000D01*
%TO.N,Net-(KEY_B_4-Pad2)*%
X69150000Y-89350000D02*
X71500000Y-89350000D01*
X82000000Y-82300000D02*
X82000000Y-87500000D01*
X80150000Y-89350000D02*
X71500000Y-89350000D01*
X72000000Y-82300000D02*
X82000000Y-82300000D01*
X67813707Y-89859819D02*
X68640181Y-89859819D01*
X68640181Y-89859819D02*
X69150000Y-89350000D01*
X82000000Y-87500000D02*
X80150000Y-89350000D01*
%TO.N,Net-(KEY_B_5-Pad2)*%
X68717234Y-88700000D02*
X71500000Y-88700000D01*
X68344618Y-89072616D02*
X68717234Y-88700000D01*
X54000000Y-82300000D02*
X64000000Y-82300000D01*
%TO.N,Net-(KEY_C_0-Pad2)*%
X118000000Y-114545677D02*
X118000000Y-116300000D01*
X113500000Y-110000000D02*
X113500000Y-110045677D01*
X113500000Y-110000000D02*
X114601983Y-108898017D01*
X114601983Y-108898017D02*
X116490417Y-108898017D01*
X113500000Y-110045677D02*
X118000000Y-114545677D01*
X108000000Y-116300000D02*
X118000000Y-116300000D01*
%TO.N,Net-(KEY_C_1-Pad2)*%
X116490417Y-108248017D02*
X119748017Y-108248017D01*
X126000000Y-124800000D02*
X136000000Y-124800000D01*
X126725421Y-124074579D02*
X126000000Y-124800000D01*
X126725421Y-115225421D02*
X126725421Y-124074579D01*
X112512295Y-109275500D02*
X113588782Y-109275500D01*
X114616265Y-108248017D02*
X116490417Y-108248017D01*
X119748017Y-108248017D02*
X126725421Y-115225421D01*
X113588782Y-109275500D02*
X114616265Y-108248017D01*
%TO.N,Net-(KEY_C_2-Pad2)*%
X125298017Y-107598017D02*
X116490417Y-107598017D01*
X113419842Y-108419842D02*
X114241667Y-107598017D01*
X125500000Y-107800000D02*
X125298017Y-107598017D01*
X114241667Y-107598017D02*
X116490417Y-107598017D01*
X135500000Y-107800000D02*
X125500000Y-107800000D01*
%TO.N,Net-(KEY_C_3-Pad2)*%
X126725421Y-91525421D02*
X126000000Y-90800000D01*
X113716265Y-107487701D02*
X114255949Y-106948017D01*
X114255949Y-106948017D02*
X116490417Y-106948017D01*
X116490417Y-106948017D02*
X124551983Y-106948017D01*
X126725421Y-104774579D02*
X126725421Y-91525421D01*
X124551983Y-106948017D02*
X126725421Y-104774579D01*
X126000000Y-90800000D02*
X136000000Y-90800000D01*
X112512299Y-107487701D02*
X113716265Y-107487701D01*
%TO.N,Net-(KEY_C_4-Pad2)*%
X119725421Y-105774579D02*
X119725421Y-84025421D01*
X108000000Y-82300000D02*
X118000000Y-82300000D01*
X119201983Y-106298017D02*
X119725421Y-105774579D01*
X116490417Y-106298017D02*
X119201983Y-106298017D01*
X119725421Y-84025421D02*
X118000000Y-82300000D01*
X113701983Y-106298017D02*
X116490417Y-106298017D01*
X113500000Y-106500000D02*
X113701983Y-106298017D01*
%TO.N,Net-(KEY_C_5-Pad2)*%
X118351983Y-105648017D02*
X118500000Y-105500000D01*
X113572817Y-105500000D02*
X113720834Y-105648017D01*
X118500000Y-99800000D02*
X118000000Y-99300000D01*
X116490417Y-105648017D02*
X118351983Y-105648017D01*
X118500000Y-105500000D02*
X118500000Y-99800000D01*
X113720834Y-105648017D02*
X116490417Y-105648017D01*
X112500000Y-105500000D02*
X113572817Y-105500000D01*
%TO.N,SCL*%
X110188434Y-103000000D02*
X109490417Y-103698017D01*
X64500000Y-121000000D02*
X64500000Y-121075000D01*
X114724500Y-102500000D02*
X114224500Y-103000000D01*
X67500000Y-118000000D02*
X64500000Y-121000000D01*
X62750000Y-86750000D02*
X64500000Y-86750000D01*
X114224500Y-103000000D02*
X110188434Y-103000000D01*
X62000000Y-86000000D02*
X62750000Y-86750000D01*
%TO.N,SDA*%
X65724520Y-121365486D02*
X65365006Y-121725000D01*
X64575480Y-87324520D02*
X64500000Y-87400000D01*
X112000000Y-104000000D02*
X111651983Y-104348017D01*
X67275489Y-86677799D02*
X66628768Y-87324520D01*
X61725500Y-87400000D02*
X64500000Y-87400000D01*
X67275489Y-86652688D02*
X67275489Y-86677799D01*
D19*
X111412500Y-64200000D02*
X111412500Y-68800000D01*
D18*
X65724520Y-120775480D02*
X65724520Y-121365486D01*
X67725008Y-86228280D02*
X67699897Y-86228280D01*
X111651983Y-104348017D02*
X109490417Y-104348017D01*
X61325500Y-87000000D02*
X61725500Y-87400000D01*
X68000000Y-85953288D02*
X67725008Y-86228280D01*
X67500000Y-119500000D02*
X67000000Y-119500000D01*
X65365006Y-121725000D02*
X64500000Y-121725000D01*
X67699897Y-86228280D02*
X67275489Y-86652688D01*
X66628768Y-87324520D02*
X64575480Y-87324520D01*
X67000000Y-119500000D02*
X65724520Y-120775480D01*
%TO.N,SEL*%
X68047209Y-86952791D02*
X69000000Y-86000000D01*
X66877680Y-88050000D02*
X67974889Y-86952791D01*
X107234816Y-104998017D02*
X109490417Y-104998017D01*
X112291472Y-104683914D02*
X113077069Y-104683914D01*
X65625000Y-122375000D02*
X64500000Y-122375000D01*
X61974614Y-88050000D02*
X64500000Y-88050000D01*
X64500000Y-88050000D02*
X66877680Y-88050000D01*
X67500000Y-120500000D02*
X65625000Y-122375000D01*
X106224500Y-103987701D02*
X107234816Y-104998017D01*
X76500000Y-86500000D02*
X80500000Y-86500000D01*
X60500000Y-87975500D02*
X60749011Y-88224511D01*
X111977369Y-104998017D02*
X112291472Y-104683914D01*
X60749011Y-88224511D02*
X61800103Y-88224511D01*
X72000000Y-85000000D02*
X75000000Y-85000000D01*
X75000000Y-85000000D02*
X75500000Y-85500000D01*
X70000000Y-85000000D02*
X72000000Y-85000000D01*
X69000000Y-86000000D02*
X70000000Y-85000000D01*
X75500000Y-85500000D02*
X76500000Y-86500000D01*
X67974889Y-86952791D02*
X68000000Y-86952791D01*
X113000000Y-73000000D02*
X113000000Y-75500000D01*
X68000000Y-86952791D02*
X68047209Y-86952791D01*
X61800103Y-88224511D02*
X61974614Y-88050000D01*
X109490417Y-104998017D02*
X111977369Y-104998017D01*
%TO.N,+3V3*%
X105500000Y-97500000D02*
X109500000Y-97500000D01*
X116490417Y-101990417D02*
X116490417Y-103698017D01*
D19*
X114300000Y-70800000D02*
X114300000Y-73000000D01*
D18*
X61175000Y-124325000D02*
X64500000Y-124325000D01*
X107448017Y-106948017D02*
X106500000Y-106000000D01*
D19*
X96935979Y-67935979D02*
X103064021Y-67935979D01*
D18*
X109500000Y-97500000D02*
X112000000Y-97500000D01*
D19*
X64500000Y-89350000D02*
X66150000Y-89350000D01*
X66000000Y-90000000D02*
X66150000Y-89850000D01*
X109500000Y-68000000D02*
X109500000Y-70000000D01*
X109500000Y-70000000D02*
X110000000Y-70500000D01*
X64500000Y-90000000D02*
X66000000Y-90000000D01*
D18*
X74500000Y-122000000D02*
X73575000Y-121075000D01*
D19*
X68897698Y-87602302D02*
X69750000Y-86750000D01*
X66150000Y-89850000D02*
X66150000Y-89350000D01*
D18*
X74500000Y-122500000D02*
X74500000Y-122000000D01*
X112000000Y-97500000D02*
X116490417Y-101990417D01*
X74987701Y-86512299D02*
X74750000Y-86750000D01*
D19*
X67897698Y-87602302D02*
X68897698Y-87602302D01*
X110000000Y-70500000D02*
X114000000Y-70500000D01*
X95650000Y-65500000D02*
X95650000Y-66650000D01*
D18*
X74750000Y-86750000D02*
X71500000Y-86750000D01*
D19*
X95650000Y-66650000D02*
X96935979Y-67935979D01*
D18*
X73575000Y-121075000D02*
X71500000Y-121075000D01*
X105500000Y-104500000D02*
X105500000Y-97500000D01*
X61012299Y-124487701D02*
X61175000Y-124325000D01*
D19*
X104750479Y-67249521D02*
X108749521Y-67249521D01*
D18*
X109490417Y-106948017D02*
X107448017Y-106948017D01*
D19*
X108749521Y-67249521D02*
X109500000Y-68000000D01*
X103064021Y-67935979D02*
X104064021Y-67935979D01*
X114000000Y-70500000D02*
X114300000Y-70800000D01*
D18*
X103000000Y-74500000D02*
X103000000Y-68000000D01*
X106500000Y-105500000D02*
X105500000Y-104500000D01*
X106500000Y-106000000D02*
X106500000Y-105500000D01*
D19*
X69750000Y-86750000D02*
X71500000Y-86750000D01*
D18*
X103000000Y-68000000D02*
X103064021Y-67935979D01*
X106500000Y-105648017D02*
X109490417Y-105648017D01*
D19*
X104064021Y-67935979D02*
X104750479Y-67249521D01*
X66150000Y-89350000D02*
X67897698Y-87602302D01*
%TO.N,Net-(JACK1-PadS)*%
X94350000Y-65500000D02*
X94350000Y-63650000D01*
X103500000Y-63500000D02*
X104200000Y-64200000D01*
X104200000Y-64200000D02*
X106862500Y-64200000D01*
X94350000Y-63650000D02*
X94500000Y-63500000D01*
X94500000Y-63500000D02*
X103500000Y-63500000D01*
%TO.N,Net-(JACK1-PadT)*%
X100000000Y-82500000D02*
X106862500Y-75637500D01*
X95650000Y-82500000D02*
X100000000Y-82500000D01*
X106862500Y-75637500D02*
X106862500Y-68800000D01*
%TD*%
M02*
