%TF.GenerationSoftware,KiCad,Pcbnew,(6.0.4)*%
%TF.CreationDate,2022-11-15T19:41:09+00:00*%
%TF.ProjectId,pcb_v2,7063625f-7632-42e6-9b69-6361645f7063,rev?*%
%TF.SameCoordinates,Original*%
%TF.FileFunction,Legend,Top*%
%TF.FilePolarity,Positive*%
%FSLAX46Y46*%
G04 Gerber Fmt 4.6, Leading zero omitted, Abs format (unit mm)*
G04 Created by KiCad (PCBNEW (6.0.4)) date 2022-11-15 19:41:09*
%MOMM*%
%LPD*%
G01*
G04 APERTURE LIST*
G04 Aperture macros list*
%AMRoundRect*
0 Rectangle with rounded corners*
0 $1 Rounding radius*
0 $2 $3 $4 $5 $6 $7 $8 $9 X,Y pos of 4 corners*
0 Add a 4 corners polygon primitive as box body*
4,1,4,$2,$3,$4,$5,$6,$7,$8,$9,$2,$3,0*
0 Add four circle primitives for the rounded corners*
1,1,$1+$1,$2,$3*
1,1,$1+$1,$4,$5*
1,1,$1+$1,$6,$7*
1,1,$1+$1,$8,$9*
0 Add four rect primitives between the rounded corners*
20,1,$1+$1,$2,$3,$4,$5,0*
20,1,$1+$1,$4,$5,$6,$7,0*
20,1,$1+$1,$6,$7,$8,$9,0*
20,1,$1+$1,$8,$9,$2,$3,0*%
G04 Aperture macros list end*
%ADD10C,0.150000*%
%ADD11C,0.120000*%
%ADD12C,3.429000*%
%ADD13C,1.701800*%
%ADD14C,2.032000*%
%ADD15R,1.000000X1.500000*%
%ADD16RoundRect,0.125000X-0.825000X-0.125000X0.825000X-0.125000X0.825000X0.125000X-0.825000X0.125000X0*%
%ADD17C,0.800000*%
%ADD18O,1.400000X1.000000*%
%ADD19O,2.500000X1.000000*%
G04 APERTURE END LIST*
D10*
X126380952Y-115952380D02*
X126380952Y-116666666D01*
X126333333Y-116809523D01*
X126238095Y-116904761D01*
X126095238Y-116952380D01*
X126000000Y-116952380D01*
X127333333Y-116952380D02*
X126857142Y-116952380D01*
X126857142Y-115952380D01*
X128238095Y-116857142D02*
X128190476Y-116904761D01*
X128047619Y-116952380D01*
X127952380Y-116952380D01*
X127809523Y-116904761D01*
X127714285Y-116809523D01*
X127666666Y-116714285D01*
X127619047Y-116523809D01*
X127619047Y-116380952D01*
X127666666Y-116190476D01*
X127714285Y-116095238D01*
X127809523Y-116000000D01*
X127952380Y-115952380D01*
X128047619Y-115952380D01*
X128190476Y-116000000D01*
X128238095Y-116047619D01*
X128952380Y-115952380D02*
X128952380Y-116666666D01*
X128904761Y-116809523D01*
X128809523Y-116904761D01*
X128666666Y-116952380D01*
X128571428Y-116952380D01*
X129904761Y-116952380D02*
X129428571Y-116952380D01*
X129428571Y-115952380D01*
X130809523Y-116857142D02*
X130761904Y-116904761D01*
X130619047Y-116952380D01*
X130523809Y-116952380D01*
X130380952Y-116904761D01*
X130285714Y-116809523D01*
X130238095Y-116714285D01*
X130190476Y-116523809D01*
X130190476Y-116380952D01*
X130238095Y-116190476D01*
X130285714Y-116095238D01*
X130380952Y-116000000D01*
X130523809Y-115952380D01*
X130619047Y-115952380D01*
X130761904Y-116000000D01*
X130809523Y-116047619D01*
X131523809Y-115952380D02*
X131523809Y-116666666D01*
X131476190Y-116809523D01*
X131380952Y-116904761D01*
X131238095Y-116952380D01*
X131142857Y-116952380D01*
X132476190Y-116952380D02*
X132000000Y-116952380D01*
X132000000Y-115952380D01*
X133380952Y-116857142D02*
X133333333Y-116904761D01*
X133190476Y-116952380D01*
X133095238Y-116952380D01*
X132952380Y-116904761D01*
X132857142Y-116809523D01*
X132809523Y-116714285D01*
X132761904Y-116523809D01*
X132761904Y-116380952D01*
X132809523Y-116190476D01*
X132857142Y-116095238D01*
X132952380Y-116000000D01*
X133095238Y-115952380D01*
X133190476Y-115952380D01*
X133333333Y-116000000D01*
X133380952Y-116047619D01*
X134095238Y-115952380D02*
X134095238Y-116666666D01*
X134047619Y-116809523D01*
X133952380Y-116904761D01*
X133809523Y-116952380D01*
X133714285Y-116952380D01*
X135047619Y-116952380D02*
X134571428Y-116952380D01*
X134571428Y-115952380D01*
X135952380Y-116857142D02*
X135904761Y-116904761D01*
X135761904Y-116952380D01*
X135666666Y-116952380D01*
X135523809Y-116904761D01*
X135428571Y-116809523D01*
X135380952Y-116714285D01*
X135333333Y-116523809D01*
X135333333Y-116380952D01*
X135380952Y-116190476D01*
X135428571Y-116095238D01*
X135523809Y-116000000D01*
X135666666Y-115952380D01*
X135761904Y-115952380D01*
X135904761Y-116000000D01*
X135952380Y-116047619D01*
X71552380Y-69417857D02*
X71169047Y-69417857D01*
X71169047Y-70020238D02*
X71169047Y-68870238D01*
X71716666Y-68870238D01*
X72154761Y-70020238D02*
X72154761Y-69253571D01*
X72154761Y-69472619D02*
X72209523Y-69363095D01*
X72264285Y-69308333D01*
X72373809Y-69253571D01*
X72483333Y-69253571D01*
X73359523Y-70020238D02*
X73359523Y-69417857D01*
X73304761Y-69308333D01*
X73195238Y-69253571D01*
X72976190Y-69253571D01*
X72866666Y-69308333D01*
X73359523Y-69965476D02*
X73250000Y-70020238D01*
X72976190Y-70020238D01*
X72866666Y-69965476D01*
X72811904Y-69855952D01*
X72811904Y-69746428D01*
X72866666Y-69636904D01*
X72976190Y-69582142D01*
X73250000Y-69582142D01*
X73359523Y-69527380D01*
X73907142Y-69253571D02*
X73907142Y-70020238D01*
X73907142Y-69363095D02*
X73961904Y-69308333D01*
X74071428Y-69253571D01*
X74235714Y-69253571D01*
X74345238Y-69308333D01*
X74400000Y-69417857D01*
X74400000Y-70020238D01*
X75440476Y-69965476D02*
X75330952Y-70020238D01*
X75111904Y-70020238D01*
X75002380Y-69965476D01*
X74947619Y-69910714D01*
X74892857Y-69801190D01*
X74892857Y-69472619D01*
X74947619Y-69363095D01*
X75002380Y-69308333D01*
X75111904Y-69253571D01*
X75330952Y-69253571D01*
X75440476Y-69308333D01*
X75221428Y-70075000D02*
X75330952Y-70129761D01*
X75385714Y-70239285D01*
X75330952Y-70348809D01*
X75221428Y-70403571D01*
X75057142Y-70403571D01*
X76097619Y-70020238D02*
X75988095Y-69965476D01*
X75933333Y-69910714D01*
X75878571Y-69801190D01*
X75878571Y-69472619D01*
X75933333Y-69363095D01*
X75988095Y-69308333D01*
X76097619Y-69253571D01*
X76261904Y-69253571D01*
X76371428Y-69308333D01*
X76426190Y-69363095D01*
X76480952Y-69472619D01*
X76480952Y-69801190D01*
X76426190Y-69910714D01*
X76371428Y-69965476D01*
X76261904Y-70020238D01*
X76097619Y-70020238D01*
X76973809Y-70020238D02*
X76973809Y-69253571D01*
X76973809Y-68870238D02*
X76919047Y-68925000D01*
X76973809Y-68979761D01*
X77028571Y-68925000D01*
X76973809Y-68870238D01*
X76973809Y-68979761D01*
X77466666Y-69965476D02*
X77576190Y-70020238D01*
X77795238Y-70020238D01*
X77904761Y-69965476D01*
X77959523Y-69855952D01*
X77959523Y-69801190D01*
X77904761Y-69691666D01*
X77795238Y-69636904D01*
X77630952Y-69636904D01*
X77521428Y-69582142D01*
X77466666Y-69472619D01*
X77466666Y-69417857D01*
X77521428Y-69308333D01*
X77630952Y-69253571D01*
X77795238Y-69253571D01*
X77904761Y-69308333D01*
X79876190Y-70020238D02*
X79328571Y-70020238D01*
X79328571Y-68870238D01*
X80697619Y-69965476D02*
X80588095Y-70020238D01*
X80369047Y-70020238D01*
X80259523Y-69965476D01*
X80204761Y-69855952D01*
X80204761Y-69417857D01*
X80259523Y-69308333D01*
X80369047Y-69253571D01*
X80588095Y-69253571D01*
X80697619Y-69308333D01*
X80752380Y-69417857D01*
X80752380Y-69527380D01*
X80204761Y-69636904D01*
X81245238Y-70020238D02*
X81245238Y-68870238D01*
X81738095Y-70020238D02*
X81738095Y-69417857D01*
X81683333Y-69308333D01*
X81573809Y-69253571D01*
X81409523Y-69253571D01*
X81300000Y-69308333D01*
X81245238Y-69363095D01*
X82723809Y-69965476D02*
X82614285Y-70020238D01*
X82395238Y-70020238D01*
X82285714Y-69965476D01*
X82230952Y-69855952D01*
X82230952Y-69417857D01*
X82285714Y-69308333D01*
X82395238Y-69253571D01*
X82614285Y-69253571D01*
X82723809Y-69308333D01*
X82778571Y-69417857D01*
X82778571Y-69527380D01*
X82230952Y-69636904D01*
X83271428Y-70020238D02*
X83271428Y-69253571D01*
X83271428Y-69472619D02*
X83326190Y-69363095D01*
X83380952Y-69308333D01*
X83490476Y-69253571D01*
X83599999Y-69253571D01*
X83983333Y-70020238D02*
X83983333Y-69253571D01*
X83983333Y-68870238D02*
X83928571Y-68925000D01*
X83983333Y-68979761D01*
X84038095Y-68925000D01*
X83983333Y-68870238D01*
X83983333Y-68979761D01*
X85023809Y-69965476D02*
X84914285Y-70020238D01*
X84695238Y-70020238D01*
X84585714Y-69965476D01*
X84530952Y-69910714D01*
X84476190Y-69801190D01*
X84476190Y-69472619D01*
X84530952Y-69363095D01*
X84585714Y-69308333D01*
X84695238Y-69253571D01*
X84914285Y-69253571D01*
X85023809Y-69308333D01*
X85954761Y-69965476D02*
X85845238Y-70020238D01*
X85626190Y-70020238D01*
X85516666Y-69965476D01*
X85461904Y-69855952D01*
X85461904Y-69417857D01*
X85516666Y-69308333D01*
X85626190Y-69253571D01*
X85845238Y-69253571D01*
X85954761Y-69308333D01*
X86009523Y-69417857D01*
X86009523Y-69527380D01*
X85461904Y-69636904D01*
X86392857Y-69253571D02*
X86666666Y-70020238D01*
X86940476Y-69253571D02*
X86666666Y-70020238D01*
X86557142Y-70294047D01*
X86502380Y-70348809D01*
X86392857Y-70403571D01*
%TO.C,JP_SELECT1*%
X109119047Y-74252380D02*
X109119047Y-74966666D01*
X109071428Y-75109523D01*
X108976190Y-75204761D01*
X108833333Y-75252380D01*
X108738095Y-75252380D01*
X109595238Y-75252380D02*
X109595238Y-74252380D01*
X109976190Y-74252380D01*
X110071428Y-74300000D01*
X110119047Y-74347619D01*
X110166666Y-74442857D01*
X110166666Y-74585714D01*
X110119047Y-74680952D01*
X110071428Y-74728571D01*
X109976190Y-74776190D01*
X109595238Y-74776190D01*
X110357142Y-75347619D02*
X111119047Y-75347619D01*
X111309523Y-75204761D02*
X111452380Y-75252380D01*
X111690476Y-75252380D01*
X111785714Y-75204761D01*
X111833333Y-75157142D01*
X111880952Y-75061904D01*
X111880952Y-74966666D01*
X111833333Y-74871428D01*
X111785714Y-74823809D01*
X111690476Y-74776190D01*
X111500000Y-74728571D01*
X111404761Y-74680952D01*
X111357142Y-74633333D01*
X111309523Y-74538095D01*
X111309523Y-74442857D01*
X111357142Y-74347619D01*
X111404761Y-74300000D01*
X111500000Y-74252380D01*
X111738095Y-74252380D01*
X111880952Y-74300000D01*
X112309523Y-74728571D02*
X112642857Y-74728571D01*
X112785714Y-75252380D02*
X112309523Y-75252380D01*
X112309523Y-74252380D01*
X112785714Y-74252380D01*
X113690476Y-75252380D02*
X113214285Y-75252380D01*
X113214285Y-74252380D01*
X114023809Y-74728571D02*
X114357142Y-74728571D01*
X114500000Y-75252380D02*
X114023809Y-75252380D01*
X114023809Y-74252380D01*
X114500000Y-74252380D01*
X115500000Y-75157142D02*
X115452380Y-75204761D01*
X115309523Y-75252380D01*
X115214285Y-75252380D01*
X115071428Y-75204761D01*
X114976190Y-75109523D01*
X114928571Y-75014285D01*
X114880952Y-74823809D01*
X114880952Y-74680952D01*
X114928571Y-74490476D01*
X114976190Y-74395238D01*
X115071428Y-74300000D01*
X115214285Y-74252380D01*
X115309523Y-74252380D01*
X115452380Y-74300000D01*
X115500000Y-74347619D01*
X115785714Y-74252380D02*
X116357142Y-74252380D01*
X116071428Y-75252380D02*
X116071428Y-74252380D01*
X117214285Y-75252380D02*
X116642857Y-75252380D01*
X116928571Y-75252380D02*
X116928571Y-74252380D01*
X116833333Y-74395238D01*
X116738095Y-74490476D01*
X116642857Y-74538095D01*
%TO.C,MCP_C1*%
X111952380Y-110190476D02*
X110952380Y-110190476D01*
X111666666Y-109857142D01*
X110952380Y-109523809D01*
X111952380Y-109523809D01*
X111857142Y-108476190D02*
X111904761Y-108523809D01*
X111952380Y-108666666D01*
X111952380Y-108761904D01*
X111904761Y-108904761D01*
X111809523Y-109000000D01*
X111714285Y-109047619D01*
X111523809Y-109095238D01*
X111380952Y-109095238D01*
X111190476Y-109047619D01*
X111095238Y-109000000D01*
X111000000Y-108904761D01*
X110952380Y-108761904D01*
X110952380Y-108666666D01*
X111000000Y-108523809D01*
X111047619Y-108476190D01*
X111952380Y-108047619D02*
X110952380Y-108047619D01*
X110952380Y-107666666D01*
X111000000Y-107571428D01*
X111047619Y-107523809D01*
X111142857Y-107476190D01*
X111285714Y-107476190D01*
X111380952Y-107523809D01*
X111428571Y-107571428D01*
X111476190Y-107666666D01*
X111476190Y-108047619D01*
X112047619Y-107285714D02*
X112047619Y-106523809D01*
X111857142Y-105714285D02*
X111904761Y-105761904D01*
X111952380Y-105904761D01*
X111952380Y-106000000D01*
X111904761Y-106142857D01*
X111809523Y-106238095D01*
X111714285Y-106285714D01*
X111523809Y-106333333D01*
X111380952Y-106333333D01*
X111190476Y-106285714D01*
X111095238Y-106238095D01*
X111000000Y-106142857D01*
X110952380Y-106000000D01*
X110952380Y-105904761D01*
X111000000Y-105761904D01*
X111047619Y-105714285D01*
X111952380Y-104761904D02*
X111952380Y-105333333D01*
X111952380Y-105047619D02*
X110952380Y-105047619D01*
X111095238Y-105142857D01*
X111190476Y-105238095D01*
X111238095Y-105333333D01*
%TO.C,MCP_A1*%
X66952380Y-127119047D02*
X65952380Y-127119047D01*
X66666666Y-126785714D01*
X65952380Y-126452380D01*
X66952380Y-126452380D01*
X66857142Y-125404761D02*
X66904761Y-125452380D01*
X66952380Y-125595238D01*
X66952380Y-125690476D01*
X66904761Y-125833333D01*
X66809523Y-125928571D01*
X66714285Y-125976190D01*
X66523809Y-126023809D01*
X66380952Y-126023809D01*
X66190476Y-125976190D01*
X66095238Y-125928571D01*
X66000000Y-125833333D01*
X65952380Y-125690476D01*
X65952380Y-125595238D01*
X66000000Y-125452380D01*
X66047619Y-125404761D01*
X66952380Y-124976190D02*
X65952380Y-124976190D01*
X65952380Y-124595238D01*
X66000000Y-124500000D01*
X66047619Y-124452380D01*
X66142857Y-124404761D01*
X66285714Y-124404761D01*
X66380952Y-124452380D01*
X66428571Y-124500000D01*
X66476190Y-124595238D01*
X66476190Y-124976190D01*
X67047619Y-124214285D02*
X67047619Y-123452380D01*
X66666666Y-123261904D02*
X66666666Y-122785714D01*
X66952380Y-123357142D02*
X65952380Y-123023809D01*
X66952380Y-122690476D01*
X66952380Y-121833333D02*
X66952380Y-122404761D01*
X66952380Y-122119047D02*
X65952380Y-122119047D01*
X66095238Y-122214285D01*
X66190476Y-122309523D01*
X66238095Y-122404761D01*
%TO.C,JP_5V_FRONT1*%
X90142857Y-63152380D02*
X90142857Y-63866666D01*
X90095238Y-64009523D01*
X90000000Y-64104761D01*
X89857142Y-64152380D01*
X89761904Y-64152380D01*
X90619047Y-64152380D02*
X90619047Y-63152380D01*
X91000000Y-63152380D01*
X91095238Y-63200000D01*
X91142857Y-63247619D01*
X91190476Y-63342857D01*
X91190476Y-63485714D01*
X91142857Y-63580952D01*
X91095238Y-63628571D01*
X91000000Y-63676190D01*
X90619047Y-63676190D01*
X91380952Y-64247619D02*
X92142857Y-64247619D01*
X92857142Y-63152380D02*
X92380952Y-63152380D01*
X92333333Y-63628571D01*
X92380952Y-63580952D01*
X92476190Y-63533333D01*
X92714285Y-63533333D01*
X92809523Y-63580952D01*
X92857142Y-63628571D01*
X92904761Y-63723809D01*
X92904761Y-63961904D01*
X92857142Y-64057142D01*
X92809523Y-64104761D01*
X92714285Y-64152380D01*
X92476190Y-64152380D01*
X92380952Y-64104761D01*
X92333333Y-64057142D01*
X93190476Y-63152380D02*
X93523809Y-64152380D01*
X93857142Y-63152380D01*
X93952380Y-64247619D02*
X94714285Y-64247619D01*
X95285714Y-63628571D02*
X94952380Y-63628571D01*
X94952380Y-64152380D02*
X94952380Y-63152380D01*
X95428571Y-63152380D01*
X96380952Y-64152380D02*
X96047619Y-63676190D01*
X95809523Y-64152380D02*
X95809523Y-63152380D01*
X96190476Y-63152380D01*
X96285714Y-63200000D01*
X96333333Y-63247619D01*
X96380952Y-63342857D01*
X96380952Y-63485714D01*
X96333333Y-63580952D01*
X96285714Y-63628571D01*
X96190476Y-63676190D01*
X95809523Y-63676190D01*
X97000000Y-63152380D02*
X97190476Y-63152380D01*
X97285714Y-63200000D01*
X97380952Y-63295238D01*
X97428571Y-63485714D01*
X97428571Y-63819047D01*
X97380952Y-64009523D01*
X97285714Y-64104761D01*
X97190476Y-64152380D01*
X97000000Y-64152380D01*
X96904761Y-64104761D01*
X96809523Y-64009523D01*
X96761904Y-63819047D01*
X96761904Y-63485714D01*
X96809523Y-63295238D01*
X96904761Y-63200000D01*
X97000000Y-63152380D01*
X97857142Y-64152380D02*
X97857142Y-63152380D01*
X98428571Y-64152380D01*
X98428571Y-63152380D01*
X98761904Y-63152380D02*
X99333333Y-63152380D01*
X99047619Y-64152380D02*
X99047619Y-63152380D01*
X100190476Y-64152380D02*
X99619047Y-64152380D01*
X99904761Y-64152380D02*
X99904761Y-63152380D01*
X99809523Y-63295238D01*
X99714285Y-63390476D01*
X99619047Y-63438095D01*
%TO.C,MCP_B1*%
X66952380Y-93190476D02*
X65952380Y-93190476D01*
X66666666Y-92857142D01*
X65952380Y-92523809D01*
X66952380Y-92523809D01*
X66857142Y-91476190D02*
X66904761Y-91523809D01*
X66952380Y-91666666D01*
X66952380Y-91761904D01*
X66904761Y-91904761D01*
X66809523Y-92000000D01*
X66714285Y-92047619D01*
X66523809Y-92095238D01*
X66380952Y-92095238D01*
X66190476Y-92047619D01*
X66095238Y-92000000D01*
X66000000Y-91904761D01*
X65952380Y-91761904D01*
X65952380Y-91666666D01*
X66000000Y-91523809D01*
X66047619Y-91476190D01*
X66952380Y-91047619D02*
X65952380Y-91047619D01*
X65952380Y-90666666D01*
X66000000Y-90571428D01*
X66047619Y-90523809D01*
X66142857Y-90476190D01*
X66285714Y-90476190D01*
X66380952Y-90523809D01*
X66428571Y-90571428D01*
X66476190Y-90666666D01*
X66476190Y-91047619D01*
X67047619Y-90285714D02*
X67047619Y-89523809D01*
X66428571Y-88952380D02*
X66476190Y-88809523D01*
X66523809Y-88761904D01*
X66619047Y-88714285D01*
X66761904Y-88714285D01*
X66857142Y-88761904D01*
X66904761Y-88809523D01*
X66952380Y-88904761D01*
X66952380Y-89285714D01*
X65952380Y-89285714D01*
X65952380Y-88952380D01*
X66000000Y-88857142D01*
X66047619Y-88809523D01*
X66142857Y-88761904D01*
X66238095Y-88761904D01*
X66333333Y-88809523D01*
X66380952Y-88857142D01*
X66428571Y-88952380D01*
X66428571Y-89285714D01*
X66952380Y-87761904D02*
X66952380Y-88333333D01*
X66952380Y-88047619D02*
X65952380Y-88047619D01*
X66095238Y-88142857D01*
X66190476Y-88238095D01*
X66238095Y-88333333D01*
%TO.C,JP_GND_FRONT1*%
X89523809Y-79952380D02*
X89523809Y-80666666D01*
X89476190Y-80809523D01*
X89380952Y-80904761D01*
X89238095Y-80952380D01*
X89142857Y-80952380D01*
X90000000Y-80952380D02*
X90000000Y-79952380D01*
X90380952Y-79952380D01*
X90476190Y-80000000D01*
X90523809Y-80047619D01*
X90571428Y-80142857D01*
X90571428Y-80285714D01*
X90523809Y-80380952D01*
X90476190Y-80428571D01*
X90380952Y-80476190D01*
X90000000Y-80476190D01*
X90761904Y-81047619D02*
X91523809Y-81047619D01*
X92285714Y-80000000D02*
X92190476Y-79952380D01*
X92047619Y-79952380D01*
X91904761Y-80000000D01*
X91809523Y-80095238D01*
X91761904Y-80190476D01*
X91714285Y-80380952D01*
X91714285Y-80523809D01*
X91761904Y-80714285D01*
X91809523Y-80809523D01*
X91904761Y-80904761D01*
X92047619Y-80952380D01*
X92142857Y-80952380D01*
X92285714Y-80904761D01*
X92333333Y-80857142D01*
X92333333Y-80523809D01*
X92142857Y-80523809D01*
X92761904Y-80952380D02*
X92761904Y-79952380D01*
X93333333Y-80952380D01*
X93333333Y-79952380D01*
X93809523Y-80952380D02*
X93809523Y-79952380D01*
X94047619Y-79952380D01*
X94190476Y-80000000D01*
X94285714Y-80095238D01*
X94333333Y-80190476D01*
X94380952Y-80380952D01*
X94380952Y-80523809D01*
X94333333Y-80714285D01*
X94285714Y-80809523D01*
X94190476Y-80904761D01*
X94047619Y-80952380D01*
X93809523Y-80952380D01*
X94571428Y-81047619D02*
X95333333Y-81047619D01*
X95904761Y-80428571D02*
X95571428Y-80428571D01*
X95571428Y-80952380D02*
X95571428Y-79952380D01*
X96047619Y-79952380D01*
X97000000Y-80952380D02*
X96666666Y-80476190D01*
X96428571Y-80952380D02*
X96428571Y-79952380D01*
X96809523Y-79952380D01*
X96904761Y-80000000D01*
X96952380Y-80047619D01*
X97000000Y-80142857D01*
X97000000Y-80285714D01*
X96952380Y-80380952D01*
X96904761Y-80428571D01*
X96809523Y-80476190D01*
X96428571Y-80476190D01*
X97619047Y-79952380D02*
X97809523Y-79952380D01*
X97904761Y-80000000D01*
X98000000Y-80095238D01*
X98047619Y-80285714D01*
X98047619Y-80619047D01*
X98000000Y-80809523D01*
X97904761Y-80904761D01*
X97809523Y-80952380D01*
X97619047Y-80952380D01*
X97523809Y-80904761D01*
X97428571Y-80809523D01*
X97380952Y-80619047D01*
X97380952Y-80285714D01*
X97428571Y-80095238D01*
X97523809Y-80000000D01*
X97619047Y-79952380D01*
X98476190Y-80952380D02*
X98476190Y-79952380D01*
X99047619Y-80952380D01*
X99047619Y-79952380D01*
X99380952Y-79952380D02*
X99952380Y-79952380D01*
X99666666Y-80952380D02*
X99666666Y-79952380D01*
X100809523Y-80952380D02*
X100238095Y-80952380D01*
X100523809Y-80952380D02*
X100523809Y-79952380D01*
X100428571Y-80095238D01*
X100333333Y-80190476D01*
X100238095Y-80238095D01*
%TO.C,KEY_B_4*%
X71000000Y-85500000D02*
X70000000Y-85500000D01*
X70000000Y-71500000D02*
X71000000Y-71500000D01*
X84000000Y-71500000D02*
X84000000Y-72500000D01*
X83000000Y-71500000D02*
X84000000Y-71500000D01*
X70000000Y-85500000D02*
X70000000Y-84500000D01*
X70000000Y-72500000D02*
X70000000Y-71500000D01*
X84000000Y-85500000D02*
X83000000Y-85500000D01*
X84000000Y-84500000D02*
X84000000Y-85500000D01*
%TO.C,KEY_B_2*%
X88000000Y-94000000D02*
X88000000Y-93000000D01*
X88000000Y-81000000D02*
X88000000Y-80000000D01*
X102000000Y-80000000D02*
X102000000Y-81000000D01*
X102000000Y-93000000D02*
X102000000Y-94000000D01*
X101000000Y-80000000D02*
X102000000Y-80000000D01*
X102000000Y-94000000D02*
X101000000Y-94000000D01*
X88000000Y-80000000D02*
X89000000Y-80000000D01*
X89000000Y-94000000D02*
X88000000Y-94000000D01*
%TO.C,KEY_C_1*%
X124000000Y-115000000D02*
X124000000Y-114000000D01*
X137000000Y-114000000D02*
X138000000Y-114000000D01*
X124000000Y-128000000D02*
X124000000Y-127000000D01*
X138000000Y-127000000D02*
X138000000Y-128000000D01*
X125000000Y-128000000D02*
X124000000Y-128000000D01*
X138000000Y-128000000D02*
X137000000Y-128000000D01*
X124000000Y-114000000D02*
X125000000Y-114000000D01*
X138000000Y-114000000D02*
X138000000Y-115000000D01*
%TO.C,KEY_A_0*%
X70000000Y-136500000D02*
X70000000Y-135500000D01*
X83000000Y-122500000D02*
X84000000Y-122500000D01*
X84000000Y-136500000D02*
X83000000Y-136500000D01*
X71000000Y-136500000D02*
X70000000Y-136500000D01*
X84000000Y-135500000D02*
X84000000Y-136500000D01*
X84000000Y-122500000D02*
X84000000Y-123500000D01*
D11*
%TO.C,JP_SELECT1*%
X115050000Y-72000000D02*
X115050000Y-74000000D01*
X114300000Y-71800000D02*
X114600000Y-71500000D01*
X114300000Y-71800000D02*
X114000000Y-71500000D01*
X110950000Y-72000000D02*
X115050000Y-72000000D01*
X114600000Y-71500000D02*
X114000000Y-71500000D01*
X115050000Y-74000000D02*
X110950000Y-74000000D01*
X110950000Y-74000000D02*
X110950000Y-72000000D01*
D10*
%TO.C,KEY_C_3*%
X125000000Y-94000000D02*
X124000000Y-94000000D01*
X138000000Y-94000000D02*
X137000000Y-94000000D01*
X124000000Y-81000000D02*
X124000000Y-80000000D01*
X137000000Y-80000000D02*
X138000000Y-80000000D01*
X124000000Y-94000000D02*
X124000000Y-93000000D01*
X138000000Y-80000000D02*
X138000000Y-81000000D01*
X138000000Y-93000000D02*
X138000000Y-94000000D01*
X124000000Y-80000000D02*
X125000000Y-80000000D01*
%TO.C,KEY_C_0*%
X106000000Y-119500000D02*
X106000000Y-118500000D01*
X106000000Y-106500000D02*
X106000000Y-105500000D01*
X120000000Y-118500000D02*
X120000000Y-119500000D01*
X120000000Y-105500000D02*
X120000000Y-106500000D01*
X120000000Y-119500000D02*
X119000000Y-119500000D01*
X106000000Y-105500000D02*
X107000000Y-105500000D01*
X119000000Y-105500000D02*
X120000000Y-105500000D01*
X107000000Y-119500000D02*
X106000000Y-119500000D01*
D11*
%TO.C,MCP_C1*%
X115750417Y-102913017D02*
X115750417Y-103188017D01*
X110230417Y-102913017D02*
X110230417Y-103188017D01*
X112990417Y-102913017D02*
X110230417Y-102913017D01*
X112990417Y-110333017D02*
X110230417Y-110333017D01*
X110230417Y-103188017D02*
X108540417Y-103188017D01*
X112990417Y-102913017D02*
X115750417Y-102913017D01*
X110230417Y-110333017D02*
X110230417Y-110058017D01*
X115750417Y-110333017D02*
X115750417Y-110058017D01*
X112990417Y-110333017D02*
X115750417Y-110333017D01*
D10*
%TO.C,KEY_C_2*%
X125000000Y-111000000D02*
X124000000Y-111000000D01*
X124000000Y-98000000D02*
X124000000Y-97000000D01*
X124000000Y-111000000D02*
X124000000Y-110000000D01*
X137000000Y-97000000D02*
X138000000Y-97000000D01*
X138000000Y-97000000D02*
X138000000Y-98000000D01*
X138000000Y-111000000D02*
X137000000Y-111000000D01*
X138000000Y-110000000D02*
X138000000Y-111000000D01*
X124000000Y-97000000D02*
X125000000Y-97000000D01*
%TO.C,KEY_A_5*%
X52000000Y-88500000D02*
X53000000Y-88500000D01*
X53000000Y-102500000D02*
X52000000Y-102500000D01*
X66000000Y-102500000D02*
X65000000Y-102500000D01*
X66000000Y-101500000D02*
X66000000Y-102500000D01*
X52000000Y-89500000D02*
X52000000Y-88500000D01*
X52000000Y-102500000D02*
X52000000Y-101500000D01*
%TO.C,KEY_B_1*%
X102000000Y-97000000D02*
X102000000Y-98000000D01*
X88000000Y-111000000D02*
X88000000Y-110000000D01*
X102000000Y-110000000D02*
X102000000Y-111000000D01*
X102000000Y-111000000D02*
X101000000Y-111000000D01*
X101000000Y-97000000D02*
X102000000Y-97000000D01*
X88000000Y-98000000D02*
X88000000Y-97000000D01*
X88000000Y-97000000D02*
X89000000Y-97000000D01*
X89000000Y-111000000D02*
X88000000Y-111000000D01*
%TO.C,KEY_C_5*%
X120000000Y-88500000D02*
X120000000Y-89500000D01*
X106000000Y-102500000D02*
X106000000Y-101500000D01*
X120000000Y-101500000D02*
X120000000Y-102500000D01*
X107000000Y-102500000D02*
X106000000Y-102500000D01*
X106000000Y-89500000D02*
X106000000Y-88500000D01*
X106000000Y-88500000D02*
X107000000Y-88500000D01*
X120000000Y-102500000D02*
X119000000Y-102500000D01*
X119000000Y-88500000D02*
X120000000Y-88500000D01*
%TO.C,KEY_B_0*%
X83000000Y-88500000D02*
X84000000Y-88500000D01*
X70000000Y-102500000D02*
X70000000Y-101500000D01*
X84000000Y-88500000D02*
X84000000Y-89500000D01*
X84000000Y-101500000D02*
X84000000Y-102500000D01*
X84000000Y-102500000D02*
X83000000Y-102500000D01*
X71000000Y-102500000D02*
X70000000Y-102500000D01*
D11*
%TO.C,MCP_A1*%
X68000000Y-120290000D02*
X65240000Y-120290000D01*
X68000000Y-127710000D02*
X70760000Y-127710000D01*
X65240000Y-120290000D02*
X65240000Y-120565000D01*
X68000000Y-127710000D02*
X65240000Y-127710000D01*
X70760000Y-127710000D02*
X70760000Y-127435000D01*
X70760000Y-120290000D02*
X70760000Y-120565000D01*
X68000000Y-120290000D02*
X70760000Y-120290000D01*
X65240000Y-120565000D02*
X63550000Y-120565000D01*
X65240000Y-127710000D02*
X65240000Y-127435000D01*
D10*
%TO.C,KEY_A_3*%
X84000000Y-118500000D02*
X84000000Y-119500000D01*
X84000000Y-105500000D02*
X84000000Y-106500000D01*
X70000000Y-119500000D02*
X70000000Y-118500000D01*
X84000000Y-119500000D02*
X83000000Y-119500000D01*
X83000000Y-105500000D02*
X84000000Y-105500000D01*
X71000000Y-119500000D02*
X70000000Y-119500000D01*
X70000000Y-106500000D02*
X70000000Y-105500000D01*
X70000000Y-105500000D02*
X71000000Y-105500000D01*
%TO.C,KEY_A_1*%
X52000000Y-136500000D02*
X52000000Y-135500000D01*
X52000000Y-123500000D02*
X52000000Y-122500000D01*
X66000000Y-136500000D02*
X65000000Y-136500000D01*
X66000000Y-135500000D02*
X66000000Y-136500000D01*
X53000000Y-136500000D02*
X52000000Y-136500000D01*
X52000000Y-122500000D02*
X53000000Y-122500000D01*
%TO.C,KEY_A_2*%
X48000000Y-136500000D02*
X47000000Y-136500000D01*
X47000000Y-122500000D02*
X48000000Y-122500000D01*
X48000000Y-122500000D02*
X48000000Y-123500000D01*
X34000000Y-136500000D02*
X34000000Y-135500000D01*
X34000000Y-122500000D02*
X35000000Y-122500000D01*
X48000000Y-135500000D02*
X48000000Y-136500000D01*
X34000000Y-123500000D02*
X34000000Y-122500000D01*
X35000000Y-136500000D02*
X34000000Y-136500000D01*
D11*
%TO.C,JP_5V_FRONT1*%
X93600000Y-66500000D02*
X93600000Y-64500000D01*
X96400000Y-66500000D02*
X93600000Y-66500000D01*
X93600000Y-64500000D02*
X96400000Y-64500000D01*
X96400000Y-64500000D02*
X96400000Y-66500000D01*
%TO.C,MCP_B1*%
X70760000Y-93385000D02*
X70760000Y-93110000D01*
X68000000Y-93385000D02*
X70760000Y-93385000D01*
X65240000Y-86240000D02*
X63550000Y-86240000D01*
X65240000Y-93385000D02*
X65240000Y-93110000D01*
X70760000Y-85965000D02*
X70760000Y-86240000D01*
X68000000Y-93385000D02*
X65240000Y-93385000D01*
X68000000Y-85965000D02*
X70760000Y-85965000D01*
X65240000Y-85965000D02*
X65240000Y-86240000D01*
X68000000Y-85965000D02*
X65240000Y-85965000D01*
%TO.C,JP_GND_FRONT1*%
X96400000Y-83500000D02*
X93600000Y-83500000D01*
X96400000Y-81500000D02*
X96400000Y-83500000D01*
X93600000Y-81500000D02*
X96400000Y-81500000D01*
X93600000Y-83500000D02*
X93600000Y-81500000D01*
D10*
%TO.C,KEY_B_5*%
X65000000Y-71500000D02*
X66000000Y-71500000D01*
X66000000Y-84500000D02*
X66000000Y-85500000D01*
X53000000Y-85500000D02*
X52000000Y-85500000D01*
X52000000Y-71500000D02*
X53000000Y-71500000D01*
X66000000Y-85500000D02*
X65000000Y-85500000D01*
X66000000Y-71500000D02*
X66000000Y-72500000D01*
X52000000Y-85500000D02*
X52000000Y-84500000D01*
X52000000Y-72500000D02*
X52000000Y-71500000D01*
%TO.C,KEY_B_3*%
X102000000Y-63000000D02*
X102000000Y-64000000D01*
X102000000Y-76000000D02*
X102000000Y-77000000D01*
X88000000Y-64000000D02*
X88000000Y-63000000D01*
X102000000Y-77000000D02*
X101000000Y-77000000D01*
X88000000Y-77000000D02*
X88000000Y-76000000D01*
X101000000Y-63000000D02*
X102000000Y-63000000D01*
X89000000Y-77000000D02*
X88000000Y-77000000D01*
X88000000Y-63000000D02*
X89000000Y-63000000D01*
%TO.C,KEY_C_4*%
X119000000Y-71500000D02*
X120000000Y-71500000D01*
X107000000Y-85500000D02*
X106000000Y-85500000D01*
X106000000Y-71500000D02*
X107000000Y-71500000D01*
X120000000Y-85500000D02*
X119000000Y-85500000D01*
X120000000Y-71500000D02*
X120000000Y-72500000D01*
X106000000Y-72500000D02*
X106000000Y-71500000D01*
X120000000Y-84500000D02*
X120000000Y-85500000D01*
X106000000Y-85500000D02*
X106000000Y-84500000D01*
%TO.C,KEY_A_4*%
X66000000Y-119500000D02*
X65000000Y-119500000D01*
X52000000Y-119500000D02*
X52000000Y-118500000D01*
X66000000Y-118500000D02*
X66000000Y-119500000D01*
X53000000Y-119500000D02*
X52000000Y-119500000D01*
X66000000Y-105500000D02*
X66000000Y-106500000D01*
X52000000Y-106500000D02*
X52000000Y-105500000D01*
X65000000Y-105500000D02*
X66000000Y-105500000D01*
X52000000Y-105500000D02*
X53000000Y-105500000D01*
%TD*%
%LPC*%
D12*
%TO.C,KEY_B_4*%
X77000000Y-78500000D03*
D13*
X82500000Y-78500000D03*
X71500000Y-78500000D03*
D14*
X77000000Y-84400000D03*
X72000000Y-82300000D03*
X82000000Y-82300000D03*
%TD*%
D12*
%TO.C,KEY_B_2*%
X95000000Y-87000000D03*
D13*
X100500000Y-87000000D03*
X89500000Y-87000000D03*
D14*
X95000000Y-92900000D03*
X90000000Y-90800000D03*
X100000000Y-90800000D03*
%TD*%
D12*
%TO.C,KEY_C_1*%
X131000000Y-121000000D03*
D13*
X136500000Y-121000000D03*
X125500000Y-121000000D03*
D14*
X131000000Y-126900000D03*
X126000000Y-124800000D03*
X136000000Y-124800000D03*
%TD*%
D13*
%TO.C,KEY_A_0*%
X82500000Y-129500000D03*
X71500000Y-129500000D03*
D12*
X77000000Y-129500000D03*
D14*
X77000000Y-135400000D03*
X72000000Y-133300000D03*
X82000000Y-133300000D03*
%TD*%
D15*
%TO.C,JP_SELECT1*%
X114300000Y-73000000D03*
X113000000Y-73000000D03*
X111700000Y-73000000D03*
%TD*%
D13*
%TO.C,KEY_C_3*%
X125500000Y-87000000D03*
D12*
X131000000Y-87000000D03*
D13*
X136500000Y-87000000D03*
D14*
X131000000Y-92900000D03*
X136000000Y-90800000D03*
X126000000Y-90800000D03*
%TD*%
D13*
%TO.C,KEY_C_0*%
X118500000Y-112500000D03*
D12*
X113000000Y-112500000D03*
D13*
X107500000Y-112500000D03*
D14*
X113000000Y-118400000D03*
X108000000Y-116300000D03*
X118000000Y-116300000D03*
%TD*%
D16*
%TO.C,MCP_C1*%
X109490417Y-103698017D03*
X109490417Y-104348017D03*
X109490417Y-104998017D03*
X109490417Y-105648017D03*
X109490417Y-106298017D03*
X109490417Y-106948017D03*
X109490417Y-107598017D03*
X109490417Y-108248017D03*
X109490417Y-108898017D03*
X109490417Y-109548017D03*
X116490417Y-109548017D03*
X116490417Y-108898017D03*
X116490417Y-108248017D03*
X116490417Y-107598017D03*
X116490417Y-106948017D03*
X116490417Y-106298017D03*
X116490417Y-105648017D03*
X116490417Y-104998017D03*
X116490417Y-104348017D03*
X116490417Y-103698017D03*
%TD*%
D13*
%TO.C,KEY_C_2*%
X125500000Y-104000000D03*
X136500000Y-104000000D03*
D12*
X131000000Y-104000000D03*
D14*
X131000000Y-109900000D03*
X126000000Y-107800000D03*
X136000000Y-107800000D03*
%TD*%
D13*
%TO.C,KEY_A_5*%
X64500000Y-95500000D03*
D12*
X59000000Y-95500000D03*
D13*
X53500000Y-95500000D03*
D14*
X59000000Y-101400000D03*
X64000000Y-99300000D03*
X54000000Y-99300000D03*
%TD*%
D13*
%TO.C,KEY_B_1*%
X89500000Y-104000000D03*
X100500000Y-104000000D03*
D12*
X95000000Y-104000000D03*
D14*
X95000000Y-109900000D03*
X90000000Y-107800000D03*
X100000000Y-107800000D03*
%TD*%
D13*
%TO.C,KEY_C_5*%
X107500000Y-95500000D03*
D12*
X113000000Y-95500000D03*
D13*
X118500000Y-95500000D03*
D14*
X113000000Y-101400000D03*
X108000000Y-99300000D03*
X118000000Y-99300000D03*
%TD*%
D17*
%TO.C,JACK1*%
X109012500Y-66500000D03*
X116012500Y-66500000D03*
D18*
X111412500Y-68800000D03*
X114412500Y-68800000D03*
D19*
X106862500Y-64200000D03*
X106862500Y-68800000D03*
%TD*%
D13*
%TO.C,KEY_B_0*%
X82500000Y-95500000D03*
X71500000Y-95500000D03*
D12*
X77000000Y-95500000D03*
D14*
X77000000Y-101400000D03*
X72000000Y-99300000D03*
X82000000Y-99300000D03*
%TD*%
D16*
%TO.C,MCP_A1*%
X64500000Y-121075000D03*
X64500000Y-121725000D03*
X64500000Y-122375000D03*
X64500000Y-123025000D03*
X64500000Y-123675000D03*
X64500000Y-124325000D03*
X64500000Y-124975000D03*
X64500000Y-125625000D03*
X64500000Y-126275000D03*
X64500000Y-126925000D03*
X71500000Y-126925000D03*
X71500000Y-126275000D03*
X71500000Y-125625000D03*
X71500000Y-124975000D03*
X71500000Y-124325000D03*
X71500000Y-123675000D03*
X71500000Y-123025000D03*
X71500000Y-122375000D03*
X71500000Y-121725000D03*
X71500000Y-121075000D03*
%TD*%
D12*
%TO.C,KEY_A_3*%
X77000000Y-112500000D03*
D13*
X82500000Y-112500000D03*
X71500000Y-112500000D03*
D14*
X77000000Y-118400000D03*
X82000000Y-116300000D03*
X72000000Y-116300000D03*
%TD*%
D13*
%TO.C,KEY_A_1*%
X53500000Y-129500000D03*
X64500000Y-129500000D03*
D12*
X59000000Y-129500000D03*
D14*
X59000000Y-135400000D03*
X54000000Y-133300000D03*
X64000000Y-133300000D03*
%TD*%
D12*
%TO.C,KEY_A_2*%
X41000000Y-129500000D03*
D13*
X35500000Y-129500000D03*
X46500000Y-129500000D03*
D14*
X41000000Y-135400000D03*
X36000000Y-133300000D03*
X46000000Y-133300000D03*
%TD*%
D15*
%TO.C,JP_5V_FRONT1*%
X94350000Y-65500000D03*
X95650000Y-65500000D03*
%TD*%
D16*
%TO.C,MCP_B1*%
X64500000Y-86750000D03*
X64500000Y-87400000D03*
X64500000Y-88050000D03*
X64500000Y-88700000D03*
X64500000Y-89350000D03*
X64500000Y-90000000D03*
X64500000Y-90650000D03*
X64500000Y-91300000D03*
X64500000Y-91950000D03*
X64500000Y-92600000D03*
X71500000Y-92600000D03*
X71500000Y-91950000D03*
X71500000Y-91300000D03*
X71500000Y-90650000D03*
X71500000Y-90000000D03*
X71500000Y-89350000D03*
X71500000Y-88700000D03*
X71500000Y-88050000D03*
X71500000Y-87400000D03*
X71500000Y-86750000D03*
%TD*%
D15*
%TO.C,JP_GND_FRONT1*%
X95650000Y-82500000D03*
X94350000Y-82500000D03*
%TD*%
D13*
%TO.C,KEY_B_5*%
X53500000Y-78500000D03*
D12*
X59000000Y-78500000D03*
D13*
X64500000Y-78500000D03*
D14*
X59000000Y-84400000D03*
X64000000Y-82300000D03*
X54000000Y-82300000D03*
%TD*%
D12*
%TO.C,KEY_B_3*%
X95000000Y-70000000D03*
D13*
X100500000Y-70000000D03*
X89500000Y-70000000D03*
D14*
X95000000Y-75900000D03*
X100000000Y-73800000D03*
X90000000Y-73800000D03*
%TD*%
D12*
%TO.C,KEY_C_4*%
X113000000Y-78500000D03*
D13*
X107500000Y-78500000D03*
X118500000Y-78500000D03*
D14*
X113000000Y-84400000D03*
X108000000Y-82300000D03*
X118000000Y-82300000D03*
%TD*%
D13*
%TO.C,KEY_A_4*%
X64500000Y-112500000D03*
D12*
X59000000Y-112500000D03*
D13*
X53500000Y-112500000D03*
D14*
X59000000Y-118400000D03*
X54000000Y-116300000D03*
X64000000Y-116300000D03*
%TD*%
M02*
