%TF.GenerationSoftware,KiCad,Pcbnew,(6.0.4)*%
%TF.CreationDate,2022-11-15T19:41:09+00:00*%
%TF.ProjectId,pcb_v2,7063625f-7632-42e6-9b69-6361645f7063,rev?*%
%TF.SameCoordinates,Original*%
%TF.FileFunction,Legend,Bot*%
%TF.FilePolarity,Positive*%
%FSLAX46Y46*%
G04 Gerber Fmt 4.6, Leading zero omitted, Abs format (unit mm)*
G04 Created by KiCad (PCBNEW (6.0.4)) date 2022-11-15 19:41:09*
%MOMM*%
%LPD*%
G01*
G04 APERTURE LIST*
G04 Aperture macros list*
%AMRoundRect*
0 Rectangle with rounded corners*
0 $1 Rounding radius*
0 $2 $3 $4 $5 $6 $7 $8 $9 X,Y pos of 4 corners*
0 Add a 4 corners polygon primitive as box body*
4,1,4,$2,$3,$4,$5,$6,$7,$8,$9,$2,$3,0*
0 Add four circle primitives for the rounded corners*
1,1,$1+$1,$2,$3*
1,1,$1+$1,$4,$5*
1,1,$1+$1,$6,$7*
1,1,$1+$1,$8,$9*
0 Add four rect primitives between the rounded corners*
20,1,$1+$1,$2,$3,$4,$5,0*
20,1,$1+$1,$4,$5,$6,$7,0*
20,1,$1+$1,$6,$7,$8,$9,0*
20,1,$1+$1,$8,$9,$2,$3,0*%
G04 Aperture macros list end*
%ADD10C,0.150000*%
%ADD11C,0.120000*%
%ADD12C,3.429000*%
%ADD13C,1.701800*%
%ADD14C,2.032000*%
%ADD15C,0.800000*%
%ADD16O,2.000000X1.600000*%
%ADD17O,3.100000X1.600000*%
%ADD18R,1.000000X1.500000*%
%ADD19RoundRect,0.125000X0.825000X0.125000X-0.825000X0.125000X-0.825000X-0.125000X0.825000X-0.125000X0*%
G04 APERTURE END LIST*
D10*
X86447619Y-69417857D02*
X86830952Y-69417857D01*
X86830952Y-70020238D02*
X86830952Y-68870238D01*
X86283333Y-68870238D01*
X85845238Y-70020238D02*
X85845238Y-69253571D01*
X85845238Y-69472619D02*
X85790476Y-69363095D01*
X85735714Y-69308333D01*
X85626190Y-69253571D01*
X85516666Y-69253571D01*
X84640476Y-70020238D02*
X84640476Y-69417857D01*
X84695238Y-69308333D01*
X84804761Y-69253571D01*
X85023809Y-69253571D01*
X85133333Y-69308333D01*
X84640476Y-69965476D02*
X84750000Y-70020238D01*
X85023809Y-70020238D01*
X85133333Y-69965476D01*
X85188095Y-69855952D01*
X85188095Y-69746428D01*
X85133333Y-69636904D01*
X85023809Y-69582142D01*
X84750000Y-69582142D01*
X84640476Y-69527380D01*
X84092857Y-69253571D02*
X84092857Y-70020238D01*
X84092857Y-69363095D02*
X84038095Y-69308333D01*
X83928571Y-69253571D01*
X83764285Y-69253571D01*
X83654761Y-69308333D01*
X83600000Y-69417857D01*
X83600000Y-70020238D01*
X82559523Y-69965476D02*
X82669047Y-70020238D01*
X82888095Y-70020238D01*
X82997619Y-69965476D01*
X83052380Y-69910714D01*
X83107142Y-69801190D01*
X83107142Y-69472619D01*
X83052380Y-69363095D01*
X82997619Y-69308333D01*
X82888095Y-69253571D01*
X82669047Y-69253571D01*
X82559523Y-69308333D01*
X82778571Y-70075000D02*
X82669047Y-70129761D01*
X82614285Y-70239285D01*
X82669047Y-70348809D01*
X82778571Y-70403571D01*
X82942857Y-70403571D01*
X81902380Y-70020238D02*
X82011904Y-69965476D01*
X82066666Y-69910714D01*
X82121428Y-69801190D01*
X82121428Y-69472619D01*
X82066666Y-69363095D01*
X82011904Y-69308333D01*
X81902380Y-69253571D01*
X81738095Y-69253571D01*
X81628571Y-69308333D01*
X81573809Y-69363095D01*
X81519047Y-69472619D01*
X81519047Y-69801190D01*
X81573809Y-69910714D01*
X81628571Y-69965476D01*
X81738095Y-70020238D01*
X81902380Y-70020238D01*
X81026190Y-70020238D02*
X81026190Y-69253571D01*
X81026190Y-68870238D02*
X81080952Y-68925000D01*
X81026190Y-68979761D01*
X80971428Y-68925000D01*
X81026190Y-68870238D01*
X81026190Y-68979761D01*
X80533333Y-69965476D02*
X80423809Y-70020238D01*
X80204761Y-70020238D01*
X80095238Y-69965476D01*
X80040476Y-69855952D01*
X80040476Y-69801190D01*
X80095238Y-69691666D01*
X80204761Y-69636904D01*
X80369047Y-69636904D01*
X80478571Y-69582142D01*
X80533333Y-69472619D01*
X80533333Y-69417857D01*
X80478571Y-69308333D01*
X80369047Y-69253571D01*
X80204761Y-69253571D01*
X80095238Y-69308333D01*
X78123809Y-70020238D02*
X78671428Y-70020238D01*
X78671428Y-68870238D01*
X77302380Y-69965476D02*
X77411904Y-70020238D01*
X77630952Y-70020238D01*
X77740476Y-69965476D01*
X77795238Y-69855952D01*
X77795238Y-69417857D01*
X77740476Y-69308333D01*
X77630952Y-69253571D01*
X77411904Y-69253571D01*
X77302380Y-69308333D01*
X77247619Y-69417857D01*
X77247619Y-69527380D01*
X77795238Y-69636904D01*
X76754761Y-70020238D02*
X76754761Y-68870238D01*
X76261904Y-70020238D02*
X76261904Y-69417857D01*
X76316666Y-69308333D01*
X76426190Y-69253571D01*
X76590476Y-69253571D01*
X76700000Y-69308333D01*
X76754761Y-69363095D01*
X75276190Y-69965476D02*
X75385714Y-70020238D01*
X75604761Y-70020238D01*
X75714285Y-69965476D01*
X75769047Y-69855952D01*
X75769047Y-69417857D01*
X75714285Y-69308333D01*
X75604761Y-69253571D01*
X75385714Y-69253571D01*
X75276190Y-69308333D01*
X75221428Y-69417857D01*
X75221428Y-69527380D01*
X75769047Y-69636904D01*
X74728571Y-70020238D02*
X74728571Y-69253571D01*
X74728571Y-69472619D02*
X74673809Y-69363095D01*
X74619047Y-69308333D01*
X74509523Y-69253571D01*
X74400000Y-69253571D01*
X74016666Y-70020238D02*
X74016666Y-69253571D01*
X74016666Y-68870238D02*
X74071428Y-68925000D01*
X74016666Y-68979761D01*
X73961904Y-68925000D01*
X74016666Y-68870238D01*
X74016666Y-68979761D01*
X72976190Y-69965476D02*
X73085714Y-70020238D01*
X73304761Y-70020238D01*
X73414285Y-69965476D01*
X73469047Y-69910714D01*
X73523809Y-69801190D01*
X73523809Y-69472619D01*
X73469047Y-69363095D01*
X73414285Y-69308333D01*
X73304761Y-69253571D01*
X73085714Y-69253571D01*
X72976190Y-69308333D01*
X72045238Y-69965476D02*
X72154761Y-70020238D01*
X72373809Y-70020238D01*
X72483333Y-69965476D01*
X72538095Y-69855952D01*
X72538095Y-69417857D01*
X72483333Y-69308333D01*
X72373809Y-69253571D01*
X72154761Y-69253571D01*
X72045238Y-69308333D01*
X71990476Y-69417857D01*
X71990476Y-69527380D01*
X72538095Y-69636904D01*
X71607142Y-69253571D02*
X71333333Y-70020238D01*
X71059523Y-69253571D02*
X71333333Y-70020238D01*
X71442857Y-70294047D01*
X71497619Y-70348809D01*
X71607142Y-70403571D01*
%TO.C,JP_5V_BACK1*%
X99428571Y-79152380D02*
X99428571Y-79866666D01*
X99476190Y-80009523D01*
X99571428Y-80104761D01*
X99714285Y-80152380D01*
X99809523Y-80152380D01*
X98952380Y-80152380D02*
X98952380Y-79152380D01*
X98571428Y-79152380D01*
X98476190Y-79200000D01*
X98428571Y-79247619D01*
X98380952Y-79342857D01*
X98380952Y-79485714D01*
X98428571Y-79580952D01*
X98476190Y-79628571D01*
X98571428Y-79676190D01*
X98952380Y-79676190D01*
X98190476Y-80247619D02*
X97428571Y-80247619D01*
X96714285Y-79152380D02*
X97190476Y-79152380D01*
X97238095Y-79628571D01*
X97190476Y-79580952D01*
X97095238Y-79533333D01*
X96857142Y-79533333D01*
X96761904Y-79580952D01*
X96714285Y-79628571D01*
X96666666Y-79723809D01*
X96666666Y-79961904D01*
X96714285Y-80057142D01*
X96761904Y-80104761D01*
X96857142Y-80152380D01*
X97095238Y-80152380D01*
X97190476Y-80104761D01*
X97238095Y-80057142D01*
X96380952Y-79152380D02*
X96047619Y-80152380D01*
X95714285Y-79152380D01*
X95619047Y-80247619D02*
X94857142Y-80247619D01*
X94285714Y-79628571D02*
X94142857Y-79676190D01*
X94095238Y-79723809D01*
X94047619Y-79819047D01*
X94047619Y-79961904D01*
X94095238Y-80057142D01*
X94142857Y-80104761D01*
X94238095Y-80152380D01*
X94619047Y-80152380D01*
X94619047Y-79152380D01*
X94285714Y-79152380D01*
X94190476Y-79200000D01*
X94142857Y-79247619D01*
X94095238Y-79342857D01*
X94095238Y-79438095D01*
X94142857Y-79533333D01*
X94190476Y-79580952D01*
X94285714Y-79628571D01*
X94619047Y-79628571D01*
X93666666Y-79866666D02*
X93190476Y-79866666D01*
X93761904Y-80152380D02*
X93428571Y-79152380D01*
X93095238Y-80152380D01*
X92190476Y-80057142D02*
X92238095Y-80104761D01*
X92380952Y-80152380D01*
X92476190Y-80152380D01*
X92619047Y-80104761D01*
X92714285Y-80009523D01*
X92761904Y-79914285D01*
X92809523Y-79723809D01*
X92809523Y-79580952D01*
X92761904Y-79390476D01*
X92714285Y-79295238D01*
X92619047Y-79200000D01*
X92476190Y-79152380D01*
X92380952Y-79152380D01*
X92238095Y-79200000D01*
X92190476Y-79247619D01*
X91761904Y-80152380D02*
X91761904Y-79152380D01*
X91190476Y-80152380D02*
X91619047Y-79580952D01*
X91190476Y-79152380D02*
X91761904Y-79723809D01*
X90238095Y-80152380D02*
X90809523Y-80152380D01*
X90523809Y-80152380D02*
X90523809Y-79152380D01*
X90619047Y-79295238D01*
X90714285Y-79390476D01*
X90809523Y-79438095D01*
%TO.C,JP_SELECT2*%
X116884131Y-70655120D02*
X116884131Y-71369406D01*
X116931750Y-71512263D01*
X117026988Y-71607501D01*
X117169845Y-71655120D01*
X117265083Y-71655120D01*
X116407940Y-71655120D02*
X116407940Y-70655120D01*
X116026988Y-70655120D01*
X115931750Y-70702740D01*
X115884131Y-70750359D01*
X115836512Y-70845597D01*
X115836512Y-70988454D01*
X115884131Y-71083692D01*
X115931750Y-71131311D01*
X116026988Y-71178930D01*
X116407940Y-71178930D01*
X115646036Y-71750359D02*
X114884131Y-71750359D01*
X114693655Y-71607501D02*
X114550798Y-71655120D01*
X114312702Y-71655120D01*
X114217464Y-71607501D01*
X114169845Y-71559882D01*
X114122226Y-71464644D01*
X114122226Y-71369406D01*
X114169845Y-71274168D01*
X114217464Y-71226549D01*
X114312702Y-71178930D01*
X114503179Y-71131311D01*
X114598417Y-71083692D01*
X114646036Y-71036073D01*
X114693655Y-70940835D01*
X114693655Y-70845597D01*
X114646036Y-70750359D01*
X114598417Y-70702740D01*
X114503179Y-70655120D01*
X114265083Y-70655120D01*
X114122226Y-70702740D01*
X113693655Y-71131311D02*
X113360321Y-71131311D01*
X113217464Y-71655120D02*
X113693655Y-71655120D01*
X113693655Y-70655120D01*
X113217464Y-70655120D01*
X112312702Y-71655120D02*
X112788893Y-71655120D01*
X112788893Y-70655120D01*
X111979369Y-71131311D02*
X111646036Y-71131311D01*
X111503178Y-71655120D02*
X111979369Y-71655120D01*
X111979369Y-70655120D01*
X111503178Y-70655120D01*
X110503178Y-71559882D02*
X110550798Y-71607501D01*
X110693655Y-71655120D01*
X110788893Y-71655120D01*
X110931750Y-71607501D01*
X111026988Y-71512263D01*
X111074607Y-71417025D01*
X111122226Y-71226549D01*
X111122226Y-71083692D01*
X111074607Y-70893216D01*
X111026988Y-70797978D01*
X110931750Y-70702740D01*
X110788893Y-70655120D01*
X110693655Y-70655120D01*
X110550798Y-70702740D01*
X110503178Y-70750359D01*
X110217464Y-70655120D02*
X109646036Y-70655120D01*
X109931750Y-71655120D02*
X109931750Y-70655120D01*
X109360321Y-70750359D02*
X109312702Y-70702740D01*
X109217464Y-70655120D01*
X108979369Y-70655120D01*
X108884131Y-70702740D01*
X108836512Y-70750359D01*
X108788893Y-70845597D01*
X108788893Y-70940835D01*
X108836512Y-71083692D01*
X109407940Y-71655120D01*
X108788893Y-71655120D01*
%TO.C,MCP_C_REV1*%
X115150437Y-102348965D02*
X114150437Y-102348965D01*
X114864723Y-102682298D01*
X114150437Y-103015631D01*
X115150437Y-103015631D01*
X115055199Y-104063250D02*
X115102818Y-104015631D01*
X115150437Y-103872774D01*
X115150437Y-103777536D01*
X115102818Y-103634679D01*
X115007580Y-103539441D01*
X114912342Y-103491822D01*
X114721866Y-103444203D01*
X114579009Y-103444203D01*
X114388533Y-103491822D01*
X114293295Y-103539441D01*
X114198057Y-103634679D01*
X114150437Y-103777536D01*
X114150437Y-103872774D01*
X114198057Y-104015631D01*
X114245676Y-104063250D01*
X115150437Y-104491822D02*
X114150437Y-104491822D01*
X114150437Y-104872774D01*
X114198057Y-104968012D01*
X114245676Y-105015631D01*
X114340914Y-105063250D01*
X114483771Y-105063250D01*
X114579009Y-105015631D01*
X114626628Y-104968012D01*
X114674247Y-104872774D01*
X114674247Y-104491822D01*
X115245676Y-105253726D02*
X115245676Y-106015631D01*
X115055199Y-106825155D02*
X115102818Y-106777536D01*
X115150437Y-106634679D01*
X115150437Y-106539441D01*
X115102818Y-106396584D01*
X115007580Y-106301346D01*
X114912342Y-106253726D01*
X114721866Y-106206107D01*
X114579009Y-106206107D01*
X114388533Y-106253726D01*
X114293295Y-106301346D01*
X114198057Y-106396584D01*
X114150437Y-106539441D01*
X114150437Y-106634679D01*
X114198057Y-106777536D01*
X114245676Y-106825155D01*
X115245676Y-107015631D02*
X115245676Y-107777536D01*
X115150437Y-108587060D02*
X114674247Y-108253726D01*
X115150437Y-108015631D02*
X114150437Y-108015631D01*
X114150437Y-108396584D01*
X114198057Y-108491822D01*
X114245676Y-108539441D01*
X114340914Y-108587060D01*
X114483771Y-108587060D01*
X114579009Y-108539441D01*
X114626628Y-108491822D01*
X114674247Y-108396584D01*
X114674247Y-108015631D01*
X114626628Y-109015631D02*
X114626628Y-109348965D01*
X115150437Y-109491822D02*
X115150437Y-109015631D01*
X114150437Y-109015631D01*
X114150437Y-109491822D01*
X114150437Y-109777536D02*
X115150437Y-110110869D01*
X114150437Y-110444203D01*
X115150437Y-111301346D02*
X115150437Y-110729917D01*
X115150437Y-111015631D02*
X114150437Y-111015631D01*
X114293295Y-110920393D01*
X114388533Y-110825155D01*
X114436152Y-110729917D01*
%TO.C,MCP_A_REV1*%
X66952380Y-119619047D02*
X65952380Y-119619047D01*
X66666666Y-119952380D01*
X65952380Y-120285714D01*
X66952380Y-120285714D01*
X66857142Y-121333333D02*
X66904761Y-121285714D01*
X66952380Y-121142857D01*
X66952380Y-121047619D01*
X66904761Y-120904761D01*
X66809523Y-120809523D01*
X66714285Y-120761904D01*
X66523809Y-120714285D01*
X66380952Y-120714285D01*
X66190476Y-120761904D01*
X66095238Y-120809523D01*
X66000000Y-120904761D01*
X65952380Y-121047619D01*
X65952380Y-121142857D01*
X66000000Y-121285714D01*
X66047619Y-121333333D01*
X66952380Y-121761904D02*
X65952380Y-121761904D01*
X65952380Y-122142857D01*
X66000000Y-122238095D01*
X66047619Y-122285714D01*
X66142857Y-122333333D01*
X66285714Y-122333333D01*
X66380952Y-122285714D01*
X66428571Y-122238095D01*
X66476190Y-122142857D01*
X66476190Y-121761904D01*
X67047619Y-122523809D02*
X67047619Y-123285714D01*
X66666666Y-123476190D02*
X66666666Y-123952380D01*
X66952380Y-123380952D02*
X65952380Y-123714285D01*
X66952380Y-124047619D01*
X67047619Y-124142857D02*
X67047619Y-124904761D01*
X66952380Y-125714285D02*
X66476190Y-125380952D01*
X66952380Y-125142857D02*
X65952380Y-125142857D01*
X65952380Y-125523809D01*
X66000000Y-125619047D01*
X66047619Y-125666666D01*
X66142857Y-125714285D01*
X66285714Y-125714285D01*
X66380952Y-125666666D01*
X66428571Y-125619047D01*
X66476190Y-125523809D01*
X66476190Y-125142857D01*
X66428571Y-126142857D02*
X66428571Y-126476190D01*
X66952380Y-126619047D02*
X66952380Y-126142857D01*
X65952380Y-126142857D01*
X65952380Y-126619047D01*
X65952380Y-126904761D02*
X66952380Y-127238095D01*
X65952380Y-127571428D01*
X66952380Y-128428571D02*
X66952380Y-127857142D01*
X66952380Y-128142857D02*
X65952380Y-128142857D01*
X66095238Y-128047619D01*
X66190476Y-127952380D01*
X66238095Y-127857142D01*
%TO.C,JP_GND_BACK1*%
X99897619Y-63152380D02*
X99897619Y-63866666D01*
X99945238Y-64009523D01*
X100040476Y-64104761D01*
X100183333Y-64152380D01*
X100278571Y-64152380D01*
X99421428Y-64152380D02*
X99421428Y-63152380D01*
X99040476Y-63152380D01*
X98945238Y-63200000D01*
X98897619Y-63247619D01*
X98850000Y-63342857D01*
X98850000Y-63485714D01*
X98897619Y-63580952D01*
X98945238Y-63628571D01*
X99040476Y-63676190D01*
X99421428Y-63676190D01*
X98659523Y-64247619D02*
X97897619Y-64247619D01*
X97135714Y-63200000D02*
X97230952Y-63152380D01*
X97373809Y-63152380D01*
X97516666Y-63200000D01*
X97611904Y-63295238D01*
X97659523Y-63390476D01*
X97707142Y-63580952D01*
X97707142Y-63723809D01*
X97659523Y-63914285D01*
X97611904Y-64009523D01*
X97516666Y-64104761D01*
X97373809Y-64152380D01*
X97278571Y-64152380D01*
X97135714Y-64104761D01*
X97088095Y-64057142D01*
X97088095Y-63723809D01*
X97278571Y-63723809D01*
X96659523Y-64152380D02*
X96659523Y-63152380D01*
X96088095Y-64152380D01*
X96088095Y-63152380D01*
X95611904Y-64152380D02*
X95611904Y-63152380D01*
X95373809Y-63152380D01*
X95230952Y-63200000D01*
X95135714Y-63295238D01*
X95088095Y-63390476D01*
X95040476Y-63580952D01*
X95040476Y-63723809D01*
X95088095Y-63914285D01*
X95135714Y-64009523D01*
X95230952Y-64104761D01*
X95373809Y-64152380D01*
X95611904Y-64152380D01*
X94850000Y-64247619D02*
X94088095Y-64247619D01*
X93516666Y-63628571D02*
X93373809Y-63676190D01*
X93326190Y-63723809D01*
X93278571Y-63819047D01*
X93278571Y-63961904D01*
X93326190Y-64057142D01*
X93373809Y-64104761D01*
X93469047Y-64152380D01*
X93850000Y-64152380D01*
X93850000Y-63152380D01*
X93516666Y-63152380D01*
X93421428Y-63200000D01*
X93373809Y-63247619D01*
X93326190Y-63342857D01*
X93326190Y-63438095D01*
X93373809Y-63533333D01*
X93421428Y-63580952D01*
X93516666Y-63628571D01*
X93850000Y-63628571D01*
X92897619Y-63866666D02*
X92421428Y-63866666D01*
X92992857Y-64152380D02*
X92659523Y-63152380D01*
X92326190Y-64152380D01*
X91421428Y-64057142D02*
X91469047Y-64104761D01*
X91611904Y-64152380D01*
X91707142Y-64152380D01*
X91850000Y-64104761D01*
X91945238Y-64009523D01*
X91992857Y-63914285D01*
X92040476Y-63723809D01*
X92040476Y-63580952D01*
X91992857Y-63390476D01*
X91945238Y-63295238D01*
X91850000Y-63200000D01*
X91707142Y-63152380D01*
X91611904Y-63152380D01*
X91469047Y-63200000D01*
X91421428Y-63247619D01*
X90992857Y-64152380D02*
X90992857Y-63152380D01*
X90421428Y-64152380D02*
X90850000Y-63580952D01*
X90421428Y-63152380D02*
X90992857Y-63723809D01*
X89469047Y-64152380D02*
X90040476Y-64152380D01*
X89754761Y-64152380D02*
X89754761Y-63152380D01*
X89850000Y-63295238D01*
X89945238Y-63390476D01*
X90040476Y-63438095D01*
%TO.C,MCP_B_REV1*%
X66952380Y-85047619D02*
X65952380Y-85047619D01*
X66666666Y-85380952D01*
X65952380Y-85714285D01*
X66952380Y-85714285D01*
X66857142Y-86761904D02*
X66904761Y-86714285D01*
X66952380Y-86571428D01*
X66952380Y-86476190D01*
X66904761Y-86333333D01*
X66809523Y-86238095D01*
X66714285Y-86190476D01*
X66523809Y-86142857D01*
X66380952Y-86142857D01*
X66190476Y-86190476D01*
X66095238Y-86238095D01*
X66000000Y-86333333D01*
X65952380Y-86476190D01*
X65952380Y-86571428D01*
X66000000Y-86714285D01*
X66047619Y-86761904D01*
X66952380Y-87190476D02*
X65952380Y-87190476D01*
X65952380Y-87571428D01*
X66000000Y-87666666D01*
X66047619Y-87714285D01*
X66142857Y-87761904D01*
X66285714Y-87761904D01*
X66380952Y-87714285D01*
X66428571Y-87666666D01*
X66476190Y-87571428D01*
X66476190Y-87190476D01*
X67047619Y-87952380D02*
X67047619Y-88714285D01*
X66428571Y-89285714D02*
X66476190Y-89428571D01*
X66523809Y-89476190D01*
X66619047Y-89523809D01*
X66761904Y-89523809D01*
X66857142Y-89476190D01*
X66904761Y-89428571D01*
X66952380Y-89333333D01*
X66952380Y-88952380D01*
X65952380Y-88952380D01*
X65952380Y-89285714D01*
X66000000Y-89380952D01*
X66047619Y-89428571D01*
X66142857Y-89476190D01*
X66238095Y-89476190D01*
X66333333Y-89428571D01*
X66380952Y-89380952D01*
X66428571Y-89285714D01*
X66428571Y-88952380D01*
X67047619Y-89714285D02*
X67047619Y-90476190D01*
X66952380Y-91285714D02*
X66476190Y-90952380D01*
X66952380Y-90714285D02*
X65952380Y-90714285D01*
X65952380Y-91095238D01*
X66000000Y-91190476D01*
X66047619Y-91238095D01*
X66142857Y-91285714D01*
X66285714Y-91285714D01*
X66380952Y-91238095D01*
X66428571Y-91190476D01*
X66476190Y-91095238D01*
X66476190Y-90714285D01*
X66428571Y-91714285D02*
X66428571Y-92047619D01*
X66952380Y-92190476D02*
X66952380Y-91714285D01*
X65952380Y-91714285D01*
X65952380Y-92190476D01*
X65952380Y-92476190D02*
X66952380Y-92809523D01*
X65952380Y-93142857D01*
X66952380Y-94000000D02*
X66952380Y-93428571D01*
X66952380Y-93714285D02*
X65952380Y-93714285D01*
X66095238Y-93619047D01*
X66190476Y-93523809D01*
X66238095Y-93428571D01*
%TO.C,KEY_B_4*%
X70000000Y-72500000D02*
X70000000Y-71500000D01*
X71000000Y-85500000D02*
X70000000Y-85500000D01*
X84000000Y-84500000D02*
X84000000Y-85500000D01*
X70000000Y-85500000D02*
X70000000Y-84500000D01*
X84000000Y-71500000D02*
X84000000Y-72500000D01*
X70000000Y-71500000D02*
X71000000Y-71500000D01*
X84000000Y-85500000D02*
X83000000Y-85500000D01*
X83000000Y-71500000D02*
X84000000Y-71500000D01*
%TO.C,KEY_B_2*%
X88000000Y-80000000D02*
X89000000Y-80000000D01*
X102000000Y-94000000D02*
X101000000Y-94000000D01*
X89000000Y-94000000D02*
X88000000Y-94000000D01*
X88000000Y-81000000D02*
X88000000Y-80000000D01*
X88000000Y-94000000D02*
X88000000Y-93000000D01*
X102000000Y-80000000D02*
X102000000Y-81000000D01*
X101000000Y-80000000D02*
X102000000Y-80000000D01*
X102000000Y-93000000D02*
X102000000Y-94000000D01*
%TO.C,KEY_C_1*%
X124000000Y-115000000D02*
X124000000Y-114000000D01*
X124000000Y-114000000D02*
X125000000Y-114000000D01*
X138000000Y-114000000D02*
X138000000Y-115000000D01*
X138000000Y-128000000D02*
X137000000Y-128000000D01*
X137000000Y-114000000D02*
X138000000Y-114000000D01*
X124000000Y-128000000D02*
X124000000Y-127000000D01*
X125000000Y-128000000D02*
X124000000Y-128000000D01*
X138000000Y-127000000D02*
X138000000Y-128000000D01*
%TO.C,KEY_A_0*%
X83000000Y-122500000D02*
X84000000Y-122500000D01*
X84000000Y-136500000D02*
X83000000Y-136500000D01*
X71000000Y-136500000D02*
X70000000Y-136500000D01*
X70000000Y-136500000D02*
X70000000Y-135500000D01*
X84000000Y-122500000D02*
X84000000Y-123500000D01*
X84000000Y-135500000D02*
X84000000Y-136500000D01*
%TO.C,KEY_C_3*%
X125000000Y-94000000D02*
X124000000Y-94000000D01*
X124000000Y-80000000D02*
X125000000Y-80000000D01*
X138000000Y-94000000D02*
X137000000Y-94000000D01*
X138000000Y-80000000D02*
X138000000Y-81000000D01*
X124000000Y-94000000D02*
X124000000Y-93000000D01*
X138000000Y-93000000D02*
X138000000Y-94000000D01*
X124000000Y-81000000D02*
X124000000Y-80000000D01*
X137000000Y-80000000D02*
X138000000Y-80000000D01*
%TO.C,KEY_C_0*%
X107000000Y-119500000D02*
X106000000Y-119500000D01*
X120000000Y-118500000D02*
X120000000Y-119500000D01*
X106000000Y-105500000D02*
X107000000Y-105500000D01*
X106000000Y-119500000D02*
X106000000Y-118500000D01*
X120000000Y-105500000D02*
X120000000Y-106500000D01*
X120000000Y-119500000D02*
X119000000Y-119500000D01*
X119000000Y-105500000D02*
X120000000Y-105500000D01*
X106000000Y-106500000D02*
X106000000Y-105500000D01*
%TO.C,KEY_C_2*%
X138000000Y-97000000D02*
X138000000Y-98000000D01*
X138000000Y-111000000D02*
X137000000Y-111000000D01*
X124000000Y-111000000D02*
X124000000Y-110000000D01*
X138000000Y-110000000D02*
X138000000Y-111000000D01*
X124000000Y-97000000D02*
X125000000Y-97000000D01*
X124000000Y-98000000D02*
X124000000Y-97000000D01*
X125000000Y-111000000D02*
X124000000Y-111000000D01*
X137000000Y-97000000D02*
X138000000Y-97000000D01*
%TO.C,KEY_A_5*%
X52000000Y-89500000D02*
X52000000Y-88500000D01*
X52000000Y-88500000D02*
X53000000Y-88500000D01*
X66000000Y-101500000D02*
X66000000Y-102500000D01*
X53000000Y-102500000D02*
X52000000Y-102500000D01*
X66000000Y-102500000D02*
X65000000Y-102500000D01*
X52000000Y-102500000D02*
X52000000Y-101500000D01*
%TO.C,KEY_B_1*%
X102000000Y-111000000D02*
X101000000Y-111000000D01*
X102000000Y-110000000D02*
X102000000Y-111000000D01*
X102000000Y-97000000D02*
X102000000Y-98000000D01*
X101000000Y-97000000D02*
X102000000Y-97000000D01*
X88000000Y-97000000D02*
X89000000Y-97000000D01*
X88000000Y-98000000D02*
X88000000Y-97000000D01*
X88000000Y-111000000D02*
X88000000Y-110000000D01*
X89000000Y-111000000D02*
X88000000Y-111000000D01*
%TO.C,KEY_C_5*%
X106000000Y-89500000D02*
X106000000Y-88500000D01*
X107000000Y-102500000D02*
X106000000Y-102500000D01*
X120000000Y-101500000D02*
X120000000Y-102500000D01*
X120000000Y-88500000D02*
X120000000Y-89500000D01*
X120000000Y-102500000D02*
X119000000Y-102500000D01*
X106000000Y-102500000D02*
X106000000Y-101500000D01*
X119000000Y-88500000D02*
X120000000Y-88500000D01*
X106000000Y-88500000D02*
X107000000Y-88500000D01*
%TO.C,KEY_B_0*%
X84000000Y-88500000D02*
X84000000Y-89500000D01*
X83000000Y-88500000D02*
X84000000Y-88500000D01*
X71000000Y-102500000D02*
X70000000Y-102500000D01*
X70000000Y-102500000D02*
X70000000Y-101500000D01*
X84000000Y-102500000D02*
X83000000Y-102500000D01*
X84000000Y-101500000D02*
X84000000Y-102500000D01*
%TO.C,KEY_A_3*%
X84000000Y-118500000D02*
X84000000Y-119500000D01*
X70000000Y-119500000D02*
X70000000Y-118500000D01*
X71000000Y-119500000D02*
X70000000Y-119500000D01*
X70000000Y-106500000D02*
X70000000Y-105500000D01*
X70000000Y-105500000D02*
X71000000Y-105500000D01*
X84000000Y-119500000D02*
X83000000Y-119500000D01*
X84000000Y-105500000D02*
X84000000Y-106500000D01*
X83000000Y-105500000D02*
X84000000Y-105500000D01*
%TO.C,KEY_A_1*%
X52000000Y-123500000D02*
X52000000Y-122500000D01*
X52000000Y-122500000D02*
X53000000Y-122500000D01*
X66000000Y-135500000D02*
X66000000Y-136500000D01*
X66000000Y-136500000D02*
X65000000Y-136500000D01*
X52000000Y-136500000D02*
X52000000Y-135500000D01*
X53000000Y-136500000D02*
X52000000Y-136500000D01*
%TO.C,KEY_A_2*%
X34000000Y-123500000D02*
X34000000Y-122500000D01*
X48000000Y-122500000D02*
X48000000Y-123500000D01*
X48000000Y-135500000D02*
X48000000Y-136500000D01*
X48000000Y-136500000D02*
X47000000Y-136500000D01*
X35000000Y-136500000D02*
X34000000Y-136500000D01*
X47000000Y-122500000D02*
X48000000Y-122500000D01*
X34000000Y-136500000D02*
X34000000Y-135500000D01*
X34000000Y-122500000D02*
X35000000Y-122500000D01*
%TO.C,KEY_B_5*%
X66000000Y-71500000D02*
X66000000Y-72500000D01*
X65000000Y-71500000D02*
X66000000Y-71500000D01*
X52000000Y-72500000D02*
X52000000Y-71500000D01*
X53000000Y-85500000D02*
X52000000Y-85500000D01*
X52000000Y-85500000D02*
X52000000Y-84500000D01*
X66000000Y-84500000D02*
X66000000Y-85500000D01*
X52000000Y-71500000D02*
X53000000Y-71500000D01*
X66000000Y-85500000D02*
X65000000Y-85500000D01*
%TO.C,KEY_B_3*%
X102000000Y-77000000D02*
X101000000Y-77000000D01*
X88000000Y-77000000D02*
X88000000Y-76000000D01*
X88000000Y-64000000D02*
X88000000Y-63000000D01*
X89000000Y-77000000D02*
X88000000Y-77000000D01*
X102000000Y-76000000D02*
X102000000Y-77000000D01*
X101000000Y-63000000D02*
X102000000Y-63000000D01*
X102000000Y-63000000D02*
X102000000Y-64000000D01*
X88000000Y-63000000D02*
X89000000Y-63000000D01*
%TO.C,KEY_C_4*%
X106000000Y-72500000D02*
X106000000Y-71500000D01*
X106000000Y-71500000D02*
X107000000Y-71500000D01*
X120000000Y-71500000D02*
X120000000Y-72500000D01*
X106000000Y-85500000D02*
X106000000Y-84500000D01*
X120000000Y-85500000D02*
X119000000Y-85500000D01*
X119000000Y-71500000D02*
X120000000Y-71500000D01*
X120000000Y-84500000D02*
X120000000Y-85500000D01*
X107000000Y-85500000D02*
X106000000Y-85500000D01*
%TO.C,KEY_A_4*%
X52000000Y-105500000D02*
X53000000Y-105500000D01*
X53000000Y-119500000D02*
X52000000Y-119500000D01*
X66000000Y-105500000D02*
X66000000Y-106500000D01*
X66000000Y-118500000D02*
X66000000Y-119500000D01*
X65000000Y-105500000D02*
X66000000Y-105500000D01*
X52000000Y-106500000D02*
X52000000Y-105500000D01*
X66000000Y-119500000D02*
X65000000Y-119500000D01*
X52000000Y-119500000D02*
X52000000Y-118500000D01*
D11*
%TO.C,JP_5V_BACK1*%
X93600000Y-80500000D02*
X93600000Y-82500000D01*
X96400000Y-80500000D02*
X93600000Y-80500000D01*
X93600000Y-82500000D02*
X96400000Y-82500000D01*
X96400000Y-82500000D02*
X96400000Y-80500000D01*
%TO.C,JP_SELECT2*%
X114303179Y-74202740D02*
X114003179Y-74502740D01*
X115053179Y-72002740D02*
X110953179Y-72002740D01*
X110953179Y-72002740D02*
X110953179Y-74002740D01*
X115053179Y-74002740D02*
X115053179Y-72002740D01*
X114303179Y-74202740D02*
X114603179Y-74502740D01*
X110953179Y-74002740D02*
X115053179Y-74002740D01*
X114603179Y-74502740D02*
X114003179Y-74502740D01*
%TO.C,MCP_C_REV1*%
X113000000Y-102915000D02*
X115760000Y-102915000D01*
X113000000Y-110335000D02*
X115760000Y-110335000D01*
X113000000Y-102915000D02*
X110240000Y-102915000D01*
X115760000Y-103190000D02*
X117450000Y-103190000D01*
X113000000Y-110335000D02*
X110240000Y-110335000D01*
X115760000Y-110335000D02*
X115760000Y-110060000D01*
X110240000Y-110335000D02*
X110240000Y-110060000D01*
X110240000Y-102915000D02*
X110240000Y-103190000D01*
X115760000Y-102915000D02*
X115760000Y-103190000D01*
%TO.C,MCP_A_REV1*%
X70760000Y-127710000D02*
X70760000Y-127435000D01*
X65240000Y-127710000D02*
X65240000Y-127435000D01*
X68000000Y-127710000D02*
X70760000Y-127710000D01*
X68000000Y-120290000D02*
X70760000Y-120290000D01*
X70760000Y-120290000D02*
X70760000Y-120565000D01*
X68000000Y-120290000D02*
X65240000Y-120290000D01*
X65240000Y-120290000D02*
X65240000Y-120565000D01*
X68000000Y-127710000D02*
X65240000Y-127710000D01*
X70760000Y-120565000D02*
X72450000Y-120565000D01*
%TO.C,JP_GND_BACK1*%
X96250000Y-64500000D02*
X93450000Y-64500000D01*
X96250000Y-66500000D02*
X96250000Y-64500000D01*
X93450000Y-64500000D02*
X93450000Y-66500000D01*
X93450000Y-66500000D02*
X96250000Y-66500000D01*
%TO.C,MCP_B_REV1*%
X65241818Y-93383515D02*
X65241818Y-93108515D01*
X70761818Y-85963515D02*
X70761818Y-86238515D01*
X65241818Y-85963515D02*
X65241818Y-86238515D01*
X68001818Y-93383515D02*
X70761818Y-93383515D01*
X68001818Y-85963515D02*
X70761818Y-85963515D01*
X68001818Y-93383515D02*
X65241818Y-93383515D01*
X68001818Y-85963515D02*
X65241818Y-85963515D01*
X70761818Y-93383515D02*
X70761818Y-93108515D01*
X70761818Y-86238515D02*
X72451818Y-86238515D01*
%TD*%
%LPC*%
D12*
%TO.C,KEY_B_4*%
X77000000Y-78500000D03*
D13*
X82500000Y-78500000D03*
X71500000Y-78500000D03*
D14*
X77000000Y-84400000D03*
X72000000Y-82300000D03*
X82000000Y-82300000D03*
%TD*%
D12*
%TO.C,KEY_B_2*%
X95000000Y-87000000D03*
D13*
X100500000Y-87000000D03*
X89500000Y-87000000D03*
D14*
X95000000Y-92900000D03*
X90000000Y-90800000D03*
X100000000Y-90800000D03*
%TD*%
D12*
%TO.C,KEY_C_1*%
X131000000Y-121000000D03*
D13*
X136500000Y-121000000D03*
X125500000Y-121000000D03*
D14*
X131000000Y-126900000D03*
X126000000Y-124800000D03*
X136000000Y-124800000D03*
%TD*%
D13*
%TO.C,KEY_A_0*%
X82500000Y-129500000D03*
X71500000Y-129500000D03*
D12*
X77000000Y-129500000D03*
D14*
X77000000Y-135400000D03*
X72000000Y-133300000D03*
X82000000Y-133300000D03*
%TD*%
D13*
%TO.C,KEY_C_3*%
X125500000Y-87000000D03*
D12*
X131000000Y-87000000D03*
D13*
X136500000Y-87000000D03*
D14*
X131000000Y-92900000D03*
X136000000Y-90800000D03*
X126000000Y-90800000D03*
%TD*%
D13*
%TO.C,KEY_C_0*%
X118500000Y-112500000D03*
D12*
X113000000Y-112500000D03*
D13*
X107500000Y-112500000D03*
D14*
X113000000Y-118400000D03*
X108000000Y-116300000D03*
X118000000Y-116300000D03*
%TD*%
D13*
%TO.C,KEY_C_2*%
X125500000Y-104000000D03*
X136500000Y-104000000D03*
D12*
X131000000Y-104000000D03*
D14*
X131000000Y-109900000D03*
X126000000Y-107800000D03*
X136000000Y-107800000D03*
%TD*%
D13*
%TO.C,KEY_A_5*%
X64500000Y-95500000D03*
D12*
X59000000Y-95500000D03*
D13*
X53500000Y-95500000D03*
D14*
X59000000Y-101400000D03*
X64000000Y-99300000D03*
X54000000Y-99300000D03*
%TD*%
D13*
%TO.C,KEY_B_1*%
X89500000Y-104000000D03*
X100500000Y-104000000D03*
D12*
X95000000Y-104000000D03*
D14*
X95000000Y-109900000D03*
X90000000Y-107800000D03*
X100000000Y-107800000D03*
%TD*%
D13*
%TO.C,KEY_C_5*%
X107500000Y-95500000D03*
D12*
X113000000Y-95500000D03*
D13*
X118500000Y-95500000D03*
D14*
X113000000Y-101400000D03*
X108000000Y-99300000D03*
X118000000Y-99300000D03*
%TD*%
D15*
%TO.C,JACK1*%
X109012500Y-66500000D03*
X116012500Y-66500000D03*
D16*
X111412500Y-68800000D03*
X111412500Y-64200000D03*
X114412500Y-68800000D03*
X114412500Y-64200000D03*
D17*
X106862500Y-64200000D03*
X106862500Y-68800000D03*
%TD*%
D13*
%TO.C,KEY_B_0*%
X82500000Y-95500000D03*
X71500000Y-95500000D03*
D12*
X77000000Y-95500000D03*
D14*
X77000000Y-101400000D03*
X72000000Y-99300000D03*
X82000000Y-99300000D03*
%TD*%
D12*
%TO.C,KEY_A_3*%
X77000000Y-112500000D03*
D13*
X82500000Y-112500000D03*
X71500000Y-112500000D03*
D14*
X77000000Y-118400000D03*
X82000000Y-116300000D03*
X72000000Y-116300000D03*
%TD*%
D13*
%TO.C,KEY_A_1*%
X53500000Y-129500000D03*
X64500000Y-129500000D03*
D12*
X59000000Y-129500000D03*
D14*
X59000000Y-135400000D03*
X54000000Y-133300000D03*
X64000000Y-133300000D03*
%TD*%
D12*
%TO.C,KEY_A_2*%
X41000000Y-129500000D03*
D13*
X35500000Y-129500000D03*
X46500000Y-129500000D03*
D14*
X41000000Y-135400000D03*
X36000000Y-133300000D03*
X46000000Y-133300000D03*
%TD*%
D13*
%TO.C,KEY_B_5*%
X53500000Y-78500000D03*
D12*
X59000000Y-78500000D03*
D13*
X64500000Y-78500000D03*
D14*
X59000000Y-84400000D03*
X64000000Y-82300000D03*
X54000000Y-82300000D03*
%TD*%
D12*
%TO.C,KEY_B_3*%
X95000000Y-70000000D03*
D13*
X100500000Y-70000000D03*
X89500000Y-70000000D03*
D14*
X95000000Y-75900000D03*
X100000000Y-73800000D03*
X90000000Y-73800000D03*
%TD*%
D12*
%TO.C,KEY_C_4*%
X113000000Y-78500000D03*
D13*
X107500000Y-78500000D03*
X118500000Y-78500000D03*
D14*
X113000000Y-84400000D03*
X108000000Y-82300000D03*
X118000000Y-82300000D03*
%TD*%
D13*
%TO.C,KEY_A_4*%
X64500000Y-112500000D03*
D12*
X59000000Y-112500000D03*
D13*
X53500000Y-112500000D03*
D14*
X59000000Y-118400000D03*
X54000000Y-116300000D03*
X64000000Y-116300000D03*
%TD*%
D18*
%TO.C,JP_5V_BACK1*%
X95650000Y-81500000D03*
X94350000Y-81500000D03*
%TD*%
%TO.C,JP_SELECT2*%
X114303179Y-73002740D03*
X113003179Y-73002740D03*
X111703179Y-73002740D03*
%TD*%
D19*
%TO.C,MCP_C_REV1*%
X116500000Y-103700000D03*
X116500000Y-104350000D03*
X116500000Y-105000000D03*
X116500000Y-105650000D03*
X116500000Y-106300000D03*
X116500000Y-106950000D03*
X116500000Y-107600000D03*
X116500000Y-108250000D03*
X116500000Y-108900000D03*
X116500000Y-109550000D03*
X109500000Y-109550000D03*
X109500000Y-108900000D03*
X109500000Y-108250000D03*
X109500000Y-107600000D03*
X109500000Y-106950000D03*
X109500000Y-106300000D03*
X109500000Y-105650000D03*
X109500000Y-105000000D03*
X109500000Y-104350000D03*
X109500000Y-103700000D03*
%TD*%
%TO.C,MCP_A_REV1*%
X71500000Y-121075000D03*
X71500000Y-121725000D03*
X71500000Y-122375000D03*
X71500000Y-123025000D03*
X71500000Y-123675000D03*
X71500000Y-124325000D03*
X71500000Y-124975000D03*
X71500000Y-125625000D03*
X71500000Y-126275000D03*
X71500000Y-126925000D03*
X64500000Y-126925000D03*
X64500000Y-126275000D03*
X64500000Y-125625000D03*
X64500000Y-124975000D03*
X64500000Y-124325000D03*
X64500000Y-123675000D03*
X64500000Y-123025000D03*
X64500000Y-122375000D03*
X64500000Y-121725000D03*
X64500000Y-121075000D03*
%TD*%
D18*
%TO.C,JP_GND_BACK1*%
X95500000Y-65500000D03*
X94200000Y-65500000D03*
%TD*%
D19*
%TO.C,MCP_B_REV1*%
X71501818Y-86748515D03*
X71501818Y-87398515D03*
X71501818Y-88048515D03*
X71501818Y-88698515D03*
X71501818Y-89348515D03*
X71501818Y-89998515D03*
X71501818Y-90648515D03*
X71501818Y-91298515D03*
X71501818Y-91948515D03*
X71501818Y-92598515D03*
X64501818Y-92598515D03*
X64501818Y-91948515D03*
X64501818Y-91298515D03*
X64501818Y-90648515D03*
X64501818Y-89998515D03*
X64501818Y-89348515D03*
X64501818Y-88698515D03*
X64501818Y-88048515D03*
X64501818Y-87398515D03*
X64501818Y-86748515D03*
%TD*%
M02*
