M48
; DRILL file {KiCad (6.0.4)} date Tue Nov 15 19:41:09 2022
; FORMAT={-:-/ absolute / inch / decimal}
; #@! TF.CreationDate,2022-11-15T19:41:09+00:00
; #@! TF.GenerationSoftware,Kicad,Pcbnew,(6.0.4)
; #@! TF.FileFunction,Plated,1,2,PTH
FMAT,2
INCH
; #@! TA.AperFunction,Plated,PTH,ViaDrill
T1C0.0157
; #@! TA.AperFunction,Plated,PTH,ComponentDrill
T2C0.0354
; #@! TA.AperFunction,Plated,PTH,ComponentDrill
T3C0.0500
%
G90
G05
T1
X2.3819Y-3.4636
X2.4021Y-4.9011
X2.4144Y-3.4252
X2.4409Y-3.3858
X2.6575Y-4.6457
X2.6575Y-4.7047
X2.6575Y-4.7441
X2.6644Y-3.6015
X2.6644Y-3.6614
X2.6698Y-3.5378
X2.6772Y-3.384
X2.6772Y-3.4233
X2.6772Y-4.8425
X2.6772Y-4.9213
X2.6772Y-4.9931
X2.6907Y-3.5068
X2.693Y-3.575
X2.6969Y-3.6349
X2.6969Y-4.8819
X2.6969Y-4.9606
X2.7163Y-5.0197
X2.9331Y-4.8228
X2.9523Y-3.406
X3.1693Y-3.4055
X4.0551Y-2.9331
X4.1821Y-4.094
X4.311Y-3.8386
X4.4094Y-4.0945
X4.4291Y-4.1535
X4.4296Y-4.3022
X4.4296Y-4.2318
X4.4488Y-2.9724
X4.4519Y-4.1214
X4.4653Y-4.2685
X4.4685Y-4.1929
X4.4685Y-4.3307
X4.5167Y-4.0354
T3
X1.4173Y-5.248
X1.6142Y-5.3307
X1.811Y-5.248
X2.126Y-3.2402
X2.126Y-3.9094
X2.126Y-4.5787
X2.126Y-5.248
X2.3228Y-3.3228
X2.3228Y-3.9921
X2.3228Y-4.6614
X2.3228Y-5.3307
X2.5197Y-3.2402
X2.5197Y-3.9094
X2.5197Y-4.5787
X2.5197Y-5.248
X2.8346Y-3.2402
X2.8346Y-3.9094
X2.8346Y-4.5787
X2.8346Y-5.248
X3.0315Y-3.3228
X3.0315Y-3.9921
X3.0315Y-4.6614
X3.0315Y-5.3307
X3.2283Y-3.2402
X3.2283Y-3.9094
X3.2283Y-4.5787
X3.2283Y-5.248
X3.5433Y-2.9055
X3.5433Y-3.5748
X3.5433Y-4.2441
X3.7402Y-2.9882
X3.7402Y-3.6575
X3.7402Y-4.3268
X3.937Y-2.9055
X3.937Y-3.5748
X3.937Y-4.2441
X4.252Y-3.2402
X4.252Y-3.9094
X4.252Y-4.5787
X4.4488Y-3.3228
X4.4488Y-3.9921
X4.4488Y-4.6614
X4.6457Y-3.2402
X4.6457Y-3.9094
X4.6457Y-4.5787
X4.9606Y-3.5748
X4.9606Y-4.2441
X4.9606Y-4.9134
X5.1575Y-3.6575
X5.1575Y-4.3268
X5.1575Y-4.9961
X5.3543Y-3.5748
X5.3543Y-4.2441
X5.3543Y-4.9134
T2
G00X4.2367Y-2.5276
M15
G01X4.1777Y-2.5276
M16
G05
G00X4.2367Y-2.5276
M15
G01X4.1777Y-2.5276
M16
G05
G00X4.2367Y-2.7087
M15
G01X4.1777Y-2.7087
M16
G05
G00X4.2367Y-2.7087
M15
G01X4.1777Y-2.7087
M16
G05
G00X4.3942Y-2.5276
M15
G01X4.3784Y-2.5276
M16
G05
G00X4.3942Y-2.7087
M15
G01X4.3784Y-2.7087
M16
G05
G00X4.3942Y-2.7087
M15
G01X4.3784Y-2.7087
M16
G05
G00X4.5123Y-2.5276
M15
G01X4.4966Y-2.5276
M16
G05
G00X4.5123Y-2.7087
M15
G01X4.4966Y-2.7087
M16
G05
G00X4.5123Y-2.7087
M15
G01X4.4966Y-2.7087
M16
G05
T0
M30
