%TF.GenerationSoftware,KiCad,Pcbnew,(6.0.4)*%
%TF.CreationDate,2022-11-15T19:41:09+00:00*%
%TF.ProjectId,pcb_v2,7063625f-7632-42e6-9b69-6361645f7063,rev?*%
%TF.SameCoordinates,Original*%
%TF.FileFunction,Soldermask,Bot*%
%TF.FilePolarity,Negative*%
%FSLAX46Y46*%
G04 Gerber Fmt 4.6, Leading zero omitted, Abs format (unit mm)*
G04 Created by KiCad (PCBNEW (6.0.4)) date 2022-11-15 19:41:09*
%MOMM*%
%LPD*%
G01*
G04 APERTURE LIST*
G04 Aperture macros list*
%AMRoundRect*
0 Rectangle with rounded corners*
0 $1 Rounding radius*
0 $2 $3 $4 $5 $6 $7 $8 $9 X,Y pos of 4 corners*
0 Add a 4 corners polygon primitive as box body*
4,1,4,$2,$3,$4,$5,$6,$7,$8,$9,$2,$3,0*
0 Add four circle primitives for the rounded corners*
1,1,$1+$1,$2,$3*
1,1,$1+$1,$4,$5*
1,1,$1+$1,$6,$7*
1,1,$1+$1,$8,$9*
0 Add four rect primitives between the rounded corners*
20,1,$1+$1,$2,$3,$4,$5,0*
20,1,$1+$1,$4,$5,$6,$7,0*
20,1,$1+$1,$6,$7,$8,$9,0*
20,1,$1+$1,$8,$9,$2,$3,0*%
G04 Aperture macros list end*
%ADD10C,3.429000*%
%ADD11C,1.701800*%
%ADD12C,2.032000*%
%ADD13C,0.800000*%
%ADD14O,2.000000X1.600000*%
%ADD15O,3.100000X1.600000*%
%ADD16R,1.000000X1.500000*%
%ADD17RoundRect,0.125000X0.825000X0.125000X-0.825000X0.125000X-0.825000X-0.125000X0.825000X-0.125000X0*%
G04 APERTURE END LIST*
D10*
%TO.C,KEY_B_4*%
X77000000Y-78500000D03*
D11*
X82500000Y-78500000D03*
X71500000Y-78500000D03*
D12*
X77000000Y-84400000D03*
X72000000Y-82300000D03*
X82000000Y-82300000D03*
%TD*%
D10*
%TO.C,KEY_B_2*%
X95000000Y-87000000D03*
D11*
X100500000Y-87000000D03*
X89500000Y-87000000D03*
D12*
X95000000Y-92900000D03*
X90000000Y-90800000D03*
X100000000Y-90800000D03*
%TD*%
D10*
%TO.C,KEY_C_1*%
X131000000Y-121000000D03*
D11*
X136500000Y-121000000D03*
X125500000Y-121000000D03*
D12*
X131000000Y-126900000D03*
X126000000Y-124800000D03*
X136000000Y-124800000D03*
%TD*%
D11*
%TO.C,KEY_A_0*%
X82500000Y-129500000D03*
X71500000Y-129500000D03*
D10*
X77000000Y-129500000D03*
D12*
X77000000Y-135400000D03*
X72000000Y-133300000D03*
X82000000Y-133300000D03*
%TD*%
D11*
%TO.C,KEY_C_3*%
X125500000Y-87000000D03*
D10*
X131000000Y-87000000D03*
D11*
X136500000Y-87000000D03*
D12*
X131000000Y-92900000D03*
X136000000Y-90800000D03*
X126000000Y-90800000D03*
%TD*%
D11*
%TO.C,KEY_C_0*%
X118500000Y-112500000D03*
D10*
X113000000Y-112500000D03*
D11*
X107500000Y-112500000D03*
D12*
X113000000Y-118400000D03*
X108000000Y-116300000D03*
X118000000Y-116300000D03*
%TD*%
D11*
%TO.C,KEY_C_2*%
X125500000Y-104000000D03*
X136500000Y-104000000D03*
D10*
X131000000Y-104000000D03*
D12*
X131000000Y-109900000D03*
X126000000Y-107800000D03*
X136000000Y-107800000D03*
%TD*%
D11*
%TO.C,KEY_A_5*%
X64500000Y-95500000D03*
D10*
X59000000Y-95500000D03*
D11*
X53500000Y-95500000D03*
D12*
X59000000Y-101400000D03*
X64000000Y-99300000D03*
X54000000Y-99300000D03*
%TD*%
D11*
%TO.C,KEY_B_1*%
X89500000Y-104000000D03*
X100500000Y-104000000D03*
D10*
X95000000Y-104000000D03*
D12*
X95000000Y-109900000D03*
X90000000Y-107800000D03*
X100000000Y-107800000D03*
%TD*%
D11*
%TO.C,KEY_C_5*%
X107500000Y-95500000D03*
D10*
X113000000Y-95500000D03*
D11*
X118500000Y-95500000D03*
D12*
X113000000Y-101400000D03*
X108000000Y-99300000D03*
X118000000Y-99300000D03*
%TD*%
D13*
%TO.C,JACK1*%
X109012500Y-66500000D03*
X116012500Y-66500000D03*
D14*
X111412500Y-68800000D03*
X111412500Y-64200000D03*
X114412500Y-68800000D03*
X114412500Y-64200000D03*
D15*
X106862500Y-64200000D03*
X106862500Y-68800000D03*
%TD*%
D11*
%TO.C,KEY_B_0*%
X82500000Y-95500000D03*
X71500000Y-95500000D03*
D10*
X77000000Y-95500000D03*
D12*
X77000000Y-101400000D03*
X72000000Y-99300000D03*
X82000000Y-99300000D03*
%TD*%
D10*
%TO.C,KEY_A_3*%
X77000000Y-112500000D03*
D11*
X82500000Y-112500000D03*
X71500000Y-112500000D03*
D12*
X77000000Y-118400000D03*
X82000000Y-116300000D03*
X72000000Y-116300000D03*
%TD*%
D11*
%TO.C,KEY_A_1*%
X53500000Y-129500000D03*
X64500000Y-129500000D03*
D10*
X59000000Y-129500000D03*
D12*
X59000000Y-135400000D03*
X54000000Y-133300000D03*
X64000000Y-133300000D03*
%TD*%
D10*
%TO.C,KEY_A_2*%
X41000000Y-129500000D03*
D11*
X35500000Y-129500000D03*
X46500000Y-129500000D03*
D12*
X41000000Y-135400000D03*
X36000000Y-133300000D03*
X46000000Y-133300000D03*
%TD*%
D11*
%TO.C,KEY_B_5*%
X53500000Y-78500000D03*
D10*
X59000000Y-78500000D03*
D11*
X64500000Y-78500000D03*
D12*
X59000000Y-84400000D03*
X64000000Y-82300000D03*
X54000000Y-82300000D03*
%TD*%
D10*
%TO.C,KEY_B_3*%
X95000000Y-70000000D03*
D11*
X100500000Y-70000000D03*
X89500000Y-70000000D03*
D12*
X95000000Y-75900000D03*
X100000000Y-73800000D03*
X90000000Y-73800000D03*
%TD*%
D10*
%TO.C,KEY_C_4*%
X113000000Y-78500000D03*
D11*
X107500000Y-78500000D03*
X118500000Y-78500000D03*
D12*
X113000000Y-84400000D03*
X108000000Y-82300000D03*
X118000000Y-82300000D03*
%TD*%
D11*
%TO.C,KEY_A_4*%
X64500000Y-112500000D03*
D10*
X59000000Y-112500000D03*
D11*
X53500000Y-112500000D03*
D12*
X59000000Y-118400000D03*
X54000000Y-116300000D03*
X64000000Y-116300000D03*
%TD*%
D16*
%TO.C,JP_5V_BACK1*%
X95650000Y-81500000D03*
X94350000Y-81500000D03*
%TD*%
%TO.C,JP_SELECT2*%
X114303179Y-73002740D03*
X113003179Y-73002740D03*
X111703179Y-73002740D03*
%TD*%
D17*
%TO.C,MCP_C_REV1*%
X116500000Y-103700000D03*
X116500000Y-104350000D03*
X116500000Y-105000000D03*
X116500000Y-105650000D03*
X116500000Y-106300000D03*
X116500000Y-106950000D03*
X116500000Y-107600000D03*
X116500000Y-108250000D03*
X116500000Y-108900000D03*
X116500000Y-109550000D03*
X109500000Y-109550000D03*
X109500000Y-108900000D03*
X109500000Y-108250000D03*
X109500000Y-107600000D03*
X109500000Y-106950000D03*
X109500000Y-106300000D03*
X109500000Y-105650000D03*
X109500000Y-105000000D03*
X109500000Y-104350000D03*
X109500000Y-103700000D03*
%TD*%
%TO.C,MCP_A_REV1*%
X71500000Y-121075000D03*
X71500000Y-121725000D03*
X71500000Y-122375000D03*
X71500000Y-123025000D03*
X71500000Y-123675000D03*
X71500000Y-124325000D03*
X71500000Y-124975000D03*
X71500000Y-125625000D03*
X71500000Y-126275000D03*
X71500000Y-126925000D03*
X64500000Y-126925000D03*
X64500000Y-126275000D03*
X64500000Y-125625000D03*
X64500000Y-124975000D03*
X64500000Y-124325000D03*
X64500000Y-123675000D03*
X64500000Y-123025000D03*
X64500000Y-122375000D03*
X64500000Y-121725000D03*
X64500000Y-121075000D03*
%TD*%
D16*
%TO.C,JP_GND_BACK1*%
X95500000Y-65500000D03*
X94200000Y-65500000D03*
%TD*%
D17*
%TO.C,MCP_B_REV1*%
X71501818Y-86748515D03*
X71501818Y-87398515D03*
X71501818Y-88048515D03*
X71501818Y-88698515D03*
X71501818Y-89348515D03*
X71501818Y-89998515D03*
X71501818Y-90648515D03*
X71501818Y-91298515D03*
X71501818Y-91948515D03*
X71501818Y-92598515D03*
X64501818Y-92598515D03*
X64501818Y-91948515D03*
X64501818Y-91298515D03*
X64501818Y-90648515D03*
X64501818Y-89998515D03*
X64501818Y-89348515D03*
X64501818Y-88698515D03*
X64501818Y-88048515D03*
X64501818Y-87398515D03*
X64501818Y-86748515D03*
%TD*%
M02*
