%TF.GenerationSoftware,KiCad,Pcbnew,(6.0.4)*%
%TF.CreationDate,2022-11-15T19:41:09+00:00*%
%TF.ProjectId,pcb_v2,7063625f-7632-42e6-9b69-6361645f7063,rev?*%
%TF.SameCoordinates,Original*%
%TF.FileFunction,Paste,Bot*%
%TF.FilePolarity,Positive*%
%FSLAX46Y46*%
G04 Gerber Fmt 4.6, Leading zero omitted, Abs format (unit mm)*
G04 Created by KiCad (PCBNEW (6.0.4)) date 2022-11-15 19:41:09*
%MOMM*%
%LPD*%
G01*
G04 APERTURE LIST*
G04 Aperture macros list*
%AMRoundRect*
0 Rectangle with rounded corners*
0 $1 Rounding radius*
0 $2 $3 $4 $5 $6 $7 $8 $9 X,Y pos of 4 corners*
0 Add a 4 corners polygon primitive as box body*
4,1,4,$2,$3,$4,$5,$6,$7,$8,$9,$2,$3,0*
0 Add four circle primitives for the rounded corners*
1,1,$1+$1,$2,$3*
1,1,$1+$1,$4,$5*
1,1,$1+$1,$6,$7*
1,1,$1+$1,$8,$9*
0 Add four rect primitives between the rounded corners*
20,1,$1+$1,$2,$3,$4,$5,0*
20,1,$1+$1,$4,$5,$6,$7,0*
20,1,$1+$1,$6,$7,$8,$9,0*
20,1,$1+$1,$8,$9,$2,$3,0*%
G04 Aperture macros list end*
%ADD10RoundRect,0.125000X0.825000X0.125000X-0.825000X0.125000X-0.825000X-0.125000X0.825000X-0.125000X0*%
G04 APERTURE END LIST*
D10*
%TO.C,MCP_C_REV1*%
X116500000Y-103700000D03*
X116500000Y-104350000D03*
X116500000Y-105000000D03*
X116500000Y-105650000D03*
X116500000Y-106300000D03*
X116500000Y-106950000D03*
X116500000Y-107600000D03*
X116500000Y-108250000D03*
X116500000Y-108900000D03*
X116500000Y-109550000D03*
X109500000Y-109550000D03*
X109500000Y-108900000D03*
X109500000Y-108250000D03*
X109500000Y-107600000D03*
X109500000Y-106950000D03*
X109500000Y-106300000D03*
X109500000Y-105650000D03*
X109500000Y-105000000D03*
X109500000Y-104350000D03*
X109500000Y-103700000D03*
%TD*%
%TO.C,MCP_A_REV1*%
X71500000Y-121075000D03*
X71500000Y-121725000D03*
X71500000Y-122375000D03*
X71500000Y-123025000D03*
X71500000Y-123675000D03*
X71500000Y-124325000D03*
X71500000Y-124975000D03*
X71500000Y-125625000D03*
X71500000Y-126275000D03*
X71500000Y-126925000D03*
X64500000Y-126925000D03*
X64500000Y-126275000D03*
X64500000Y-125625000D03*
X64500000Y-124975000D03*
X64500000Y-124325000D03*
X64500000Y-123675000D03*
X64500000Y-123025000D03*
X64500000Y-122375000D03*
X64500000Y-121725000D03*
X64500000Y-121075000D03*
%TD*%
%TO.C,MCP_B_REV1*%
X71501818Y-86748515D03*
X71501818Y-87398515D03*
X71501818Y-88048515D03*
X71501818Y-88698515D03*
X71501818Y-89348515D03*
X71501818Y-89998515D03*
X71501818Y-90648515D03*
X71501818Y-91298515D03*
X71501818Y-91948515D03*
X71501818Y-92598515D03*
X64501818Y-92598515D03*
X64501818Y-91948515D03*
X64501818Y-91298515D03*
X64501818Y-90648515D03*
X64501818Y-89998515D03*
X64501818Y-89348515D03*
X64501818Y-88698515D03*
X64501818Y-88048515D03*
X64501818Y-87398515D03*
X64501818Y-86748515D03*
%TD*%
M02*
